<svg xmlns="http://www.w3.org/2000/svg" xmlns:xlink="http://www.w3.org/1999/xlink" width="125" zoomAndPan="magnify" viewBox="0 0 93.75 93.749997" height="125" preserveAspectRatio="xMidYMid meet" version="1.0"><defs><clipPath id="id1"><path d="M 22.832031 19.996094 L 70.832031 19.996094 L 70.832031 73.996094 L 22.832031 73.996094 Z M 22.832031 19.996094 " clip-rule="nonzero"/></clipPath><clipPath id="id2"><path d="M 27 54 L 57 54 L 57 73.996094 L 27 73.996094 Z M 27 54 " clip-rule="nonzero"/></clipPath></defs><g clip-path="url(#id1)"><path fill="#f7f619" d="M 47.902344 20.089844 L 46.101562 19.996094 L 44.339844 20.113281 L 42.582031 20.429688 L 40.511719 21.078125 L 38.472656 22.039062 L 36.441406 23.277344 L 34.351562 25.011719 L 31.890625 27.515625 L 29.527344 30.289062 L 27.21875 33.433594 L 25.707031 35.898438 L 24.71875 37.957031 L 23.832031 40.320312 L 23.191406 42.996094 L 22.855469 45.570312 L 22.855469 46.5 L 22.996094 48 L 23.464844 50.042969 L 24.578125 54.234375 L 24.847656 55.859375 L 25.199219 60.648438 L 25.460938 62.808594 L 25.867188 64.464844 L 26.375 65.621094 L 27.023438 66.625 L 28.195312 67.886719 L 29.605469 68.949219 L 31.246094 69.832031 L 33.519531 70.761719 L 37.523438 72.058594 L 41.523438 73.097656 L 44.734375 73.691406 L 46.886719 73.929688 L 48.996094 73.988281 L 50.992188 73.832031 L 53.375 73.359375 L 55.742188 72.652344 L 58.066406 71.707031 L 60.355469 70.527344 L 62.621094 69.125 L 65.285156 67.117188 L 66.984375 65.582031 L 68.367188 63.792969 L 69.328125 62.027344 L 69.96875 60.34375 L 70.421875 58.5 L 70.671875 56.832031 L 70.8125 54.253906 L 70.75 51.910156 L 70.480469 49.136719 L 70.085938 46.816406 L 69.484375 44.457031 L 68.347656 41.203125 L 66.488281 36.917969 L 63.445312 30.835938 L 62.210938 28.933594 L 61.257812 27.789062 L 59.824219 26.453125 L 57.773438 24.917969 L 55.039062 23.265625 L 51.90625 21.707031 Z M 47.902344 20.089844 " fill-opacity="1" fill-rule="evenodd"/></g><path fill="#f9f980" d="M 27.652344 36.304688 L 27.652344 35.582031 L 27.820312 34.574219 L 28.238281 33.632812 L 29.132812 32.488281 L 30.703125 30.679688 L 32.734375 28.460938 L 34.09375 27.21875 L 34.644531 26.925781 L 34.785156 27.019531 L 34.785156 27.199219 L 34.082031 28.695312 L 31.445312 33.417969 L 30.597656 35.285156 L 30.285156 36.289062 L 30.167969 36.878906 L 30.210938 37.644531 L 30.425781 38.355469 L 31.128906 39.429688 L 32.890625 41.148438 L 33.941406 42.1875 L 34.390625 42.855469 L 34.527344 43.527344 L 34.367188 44.332031 L 33.78125 45.675781 L 33.085938 46.738281 L 32.300781 47.578125 L 31.65625 48 L 31.222656 48.113281 L 30.832031 47.96875 L 30.386719 47.382812 L 29.644531 45.609375 L 28.664062 42.226562 L 27.921875 38.683594 L 27.652344 36.570312 Z M 27.652344 36.304688 " fill-opacity="1" fill-rule="evenodd"/><g clip-path="url(#id2)"><path fill="#e8e800" d="M 27.9375 65.761719 L 28.003906 66.25 L 28.3125 66.84375 L 29.109375 67.652344 L 30.328125 68.476562 L 32.03125 69.316406 L 35.113281 70.542969 L 39.414062 71.945312 L 42.582031 72.746094 L 45.414062 73.257812 L 47.800781 73.515625 L 49.796875 73.554688 L 51.894531 73.375 L 53.574219 73.019531 L 55.324219 72.429688 L 56.730469 71.707031 L 53.492188 70.660156 L 50.417969 69.398438 L 48.191406 68.320312 L 46.707031 67.335938 L 43.167969 64.542969 L 42.152344 63.96875 L 41.449219 63.773438 L 40.980469 63.871094 L 40.492188 64.402344 L 39.984375 65.527344 L 39.0625 68.75 L 38.789062 69.265625 L 38.554688 69.347656 L 38.304688 69.082031 L 37.96875 68.335938 L 37.25 65.464844 L 36.269531 60.976562 L 35.621094 59.050781 L 34.527344 56.527344 L 33.664062 55.082031 L 33.007812 54.390625 L 32.539062 54.175781 L 32.183594 54.175781 L 31.523438 54.488281 L 30.636719 55.289062 L 29.527344 56.765625 L 28.707031 58.203125 L 28.238281 59.347656 L 27.84375 60.882812 L 27.6875 62.335938 L 27.703125 63.871094 Z M 27.9375 65.761719 " fill-opacity="1" fill-rule="evenodd"/></g><path fill="#ffffc7" d="M 35.933594 48.902344 L 35.5625 46.65625 L 35.269531 43.277344 L 35.113281 39.078125 L 35.175781 35.859375 L 35.371094 33.261719 L 35.722656 30.902344 L 36.3125 28.632812 L 36.949219 26.9375 L 37.578125 25.839844 L 38.539062 24.621094 L 39.648438 23.675781 L 40.886719 22.910156 L 42.699219 22.097656 L 44.550781 21.550781 L 46.101562 21.332031 L 47.484375 21.292969 L 48.683594 21.46875 L 50.132812 21.886719 L 53 23.160156 L 55.347656 24.457031 L 57.1875 25.707031 L 58.6875 26.9375 L 60.238281 28.617188 L 61.855469 30.9375 L 63.734375 34.140625 L 65.964844 38.664062 L 67.582031 42.644531 L 68.523438 45.570312 L 69.132812 48.074219 L 69.460938 50.730469 L 69.5 53.011719 L 69.40625 55.175781 L 69.09375 58.5 L 68.699219 60.921875 L 68.25 62.46875 L 67.488281 64.011719 L 66.527344 65.132812 L 65.167969 66.25 L 63.601562 67.140625 L 62.171875 67.707031 L 60.511719 68.164062 L 58.984375 68.402344 L 57.597656 68.453125 L 55.933594 68.261719 L 54.476562 67.847656 L 52.90625 67.097656 L 50.96875 65.855469 L 47.902344 63.539062 L 42.722656 59.304688 L 40.550781 57.273438 L 38.945312 55.453125 L 37.640625 53.5625 L 36.875 52.105469 L 36.230469 50.199219 Z M 35.933594 48.902344 " fill-opacity="1" fill-rule="evenodd"/><path fill="#f7f619" d="M 50.265625 42.855469 L 43.835938 37.683594 L 39.257812 33.773438 L 38.554688 32.945312 L 37.96875 31.703125 L 37.675781 30.585938 L 37.640625 29.578125 L 37.792969 28.734375 L 38.070312 28.066406 L 38.90625 26.859375 L 40.21875 25.507812 L 41.136719 24.777344 L 42.035156 24.304688 L 42.542969 24.183594 L 43 24.246094 L 43.542969 24.601562 L 44.171875 25.46875 L 44.867188 26.980469 L 45.960938 29.996094 L 48.074219 35.992188 L 49.152344 39.734375 L 49.269531 40.21875 Z M 50.265625 42.855469 " fill-opacity="1" fill-rule="evenodd"/><path fill="#f7f619" d="M 49.363281 37.503906 L 48.425781 33.929688 L 47.507812 31.136719 L 45.28125 26.148438 L 44.96875 24.96875 L 44.945312 24.382812 L 45.125 23.890625 L 45.558594 23.421875 L 46.414062 22.949219 L 47.507812 22.6875 L 48.347656 22.6875 L 49.054688 22.84375 L 50.03125 23.4375 L 50.886719 24.328125 L 51.460938 25.109375 L 51.203125 25.074219 L 51.617188 25.09375 L 52.648438 25.011719 L 53.082031 25.09375 L 53.375 25.285156 L 53.808594 26.113281 L 54.003906 27.121094 L 54.003906 28.710938 L 53.746094 31.804688 L 53.105469 36.804688 L 52.257812 42.148438 L 51.789062 41.933594 L 51.460938 41.972656 L 51.070312 42.25 Z M 49.363281 37.503906 " fill-opacity="1" fill-rule="evenodd"/><path fill="#f7f619" d="M 53.574219 41.832031 L 53.691406 40.441406 L 54.566406 36.03125 L 55.324219 32.511719 L 55.910156 29.25 L 56.226562 28.398438 L 56.460938 28.144531 L 56.71875 28.039062 L 57.164062 28.238281 L 58.007812 29.125 L 59.417969 30.859375 L 61.097656 32.828125 L 61.820312 33.984375 L 62.269531 35.359375 L 62.40625 36.382812 L 62.328125 37.15625 L 62.011719 37.894531 L 61.566406 38.523438 L 60.394531 39.496094 L 58.324219 40.792969 L 55.871094 42.050781 L 54.019531 42.855469 L 53.785156 42.816406 L 53.628906 42.539062 Z M 53.574219 41.832031 " fill-opacity="1" fill-rule="evenodd"/><path fill="#f7f619" d="M 54.566406 44.058594 L 54.972656 43.746094 L 57.972656 42.644531 L 62.3125 40.21875 L 63.25 39.867188 L 63.757812 39.785156 L 64.03125 39.984375 L 65.496094 42.804688 L 66.550781 45.359375 L 67.152344 47.5625 L 67.175781 48.234375 L 67.019531 48.625 L 66.707031 48.820312 L 66.199219 48.820312 L 64.933594 48.484375 L 61.609375 47.367188 L 56.367188 45.949219 L 55.230469 45.453125 L 54.527344 44.886719 L 54.394531 44.492188 L 54.488281 44.140625 Z M 54.566406 44.058594 " fill-opacity="1" fill-rule="evenodd"/><path fill="#f7f619" d="M 54.371094 45.875 L 54.746094 45.925781 L 56.871094 46.855469 L 59.898438 48.25 L 61.566406 48.746094 L 64.519531 49.335938 L 65.648438 49.726562 L 66.316406 50.199219 L 66.761719 50.832031 L 67.078125 51.671875 L 67.410156 53.113281 L 67.464844 54.414062 L 67.410156 55.453125 L 67.058594 57.316406 L 66.707031 57.984375 L 66.410156 58.144531 L 66.175781 58.144531 L 65.496094 57.886719 L 64.125 56.960938 L 62.246094 55.320312 L 60.722656 53.585938 L 58.867188 51.320312 L 57.226562 49.84375 L 55.933594 48.664062 L 54.488281 46.789062 L 54.175781 46.160156 L 54.175781 45.949219 Z M 54.371094 45.875 " fill-opacity="1" fill-rule="evenodd"/><path fill="#f7f619" d="M 48.761719 43.351562 L 47.484375 42.1875 L 41.902344 37.957031 L 38.4375 34.851562 L 37.640625 34.363281 L 37.25 34.257812 L 36.875 34.445312 L 36.640625 34.886719 L 36.464844 36.066406 L 36.441406 39.652344 L 36.640625 40.964844 L 37.015625 41.859375 L 37.523438 42.382812 L 38.355469 42.773438 L 39.714844 43.078125 L 42.019531 43.46875 L 45.984375 44.390625 L 47.449219 44.570312 L 48.503906 44.457031 L 48.9375 44.257812 L 49.054688 44.023438 L 48.972656 43.683594 Z M 48.761719 43.351562 " fill-opacity="1" fill-rule="evenodd"/><path fill="#f7f619" d="M 50.460938 46.582031 L 50.132812 46.515625 L 49.792969 46.453125 L 49.464844 46.398438 L 49.128906 46.34375 L 48.785156 46.289062 L 48.441406 46.230469 L 48.097656 46.183594 L 47.742188 46.136719 L 47.386719 46.101562 L 47.027344 46.0625 L 46.660156 46.019531 L 45.910156 45.957031 L 45.523438 45.925781 L 45.140625 45.890625 L 44.75 45.875 L 44.339844 45.839844 L 43.917969 45.792969 L 43.472656 45.730469 L 43.027344 45.65625 L 42.566406 45.589844 L 42.105469 45.507812 L 41.636719 45.449219 L 41.171875 45.390625 L 40.714844 45.34375 L 40.265625 45.324219 L 39.832031 45.324219 L 39.410156 45.359375 L 39.007812 45.429688 L 38.625 45.53125 L 38.273438 45.683594 L 37.953125 45.875 L 37.671875 46.109375 L 37.460938 46.359375 L 37.308594 46.628906 L 37.226562 46.914062 L 37.179688 47.210938 L 37.179688 47.515625 L 37.207031 47.828125 L 37.273438 48.144531 L 37.367188 48.476562 L 37.464844 48.800781 L 37.59375 49.113281 L 37.71875 49.433594 L 37.835938 49.746094 L 37.953125 50.046875 L 38.0625 50.332031 L 38.144531 50.609375 L 38.214844 50.878906 L 38.296875 51.128906 L 38.375 51.367188 L 38.46875 51.59375 L 38.554688 51.824219 L 38.65625 52.042969 L 38.765625 52.253906 L 38.882812 52.476562 L 39.007812 52.6875 L 39.148438 52.910156 L 39.296875 53.136719 L 39.460938 53.375 L 39.632812 53.617188 L 39.832031 53.875 L 40.03125 54.144531 L 40.257812 54.425781 L 40.5 54.753906 L 40.785156 55.097656 L 41.078125 55.476562 L 41.40625 55.867188 L 41.753906 56.28125 L 42.105469 56.703125 L 42.472656 57.128906 L 42.839844 57.542969 L 43.214844 57.945312 L 43.574219 58.34375 L 43.9375 58.710938 L 44.28125 59.050781 L 44.609375 59.347656 L 44.914062 59.609375 L 45.195312 59.820312 L 45.453125 59.976562 L 45.675781 60.089844 L 45.867188 60.164062 L 46.050781 60.210938 L 46.214844 60.222656 L 46.359375 60.203125 L 46.5 60.164062 L 46.625 60.09375 L 46.742188 60 L 46.863281 59.871094 L 46.96875 59.730469 L 47.074219 59.570312 L 47.179688 59.386719 L 47.292969 59.183594 L 47.410156 58.957031 L 47.53125 58.71875 L 47.667969 58.457031 L 47.800781 58.179688 L 47.929688 57.851562 L 48.066406 57.496094 L 48.207031 57.105469 L 48.339844 56.6875 L 48.480469 56.246094 L 48.613281 55.792969 L 48.75 55.320312 L 48.878906 54.847656 L 49.007812 54.363281 L 49.128906 53.890625 L 49.246094 53.421875 L 49.359375 52.960938 L 49.464844 52.523438 L 49.570312 52.105469 L 49.664062 51.710938 L 49.738281 51.351562 L 49.828125 50.988281 L 49.898438 50.632812 L 49.96875 50.28125 L 50.039062 49.941406 L 50.101562 49.605469 L 50.15625 49.273438 L 50.203125 48.949219 L 50.25 48.632812 L 50.296875 48.328125 L 50.324219 48.015625 L 50.367188 47.71875 L 50.394531 47.429688 L 50.417969 47.140625 L 50.4375 46.863281 Z M 50.460938 46.582031 " fill-opacity="1" fill-rule="evenodd"/><path fill="#f7f619" d="M 51.164062 50.515625 L 48.820312 60.015625 L 48.660156 61.195312 L 48.703125 62.140625 L 48.9375 62.808594 L 49.699219 63.539062 L 51.382812 64.738281 L 53.234375 65.738281 L 54.566406 66.234375 L 55.699219 66.390625 L 56.988281 66.351562 L 58.066406 66.136719 L 58.632812 65.855469 L 58.984375 65.488281 L 58.984375 65.03125 L 58.242188 62.890625 L 54.972656 55.6875 L 54.238281 53.667969 L 53.628906 51.4375 L 52.882812 48.328125 L 52.554688 47.621094 L 52.339844 47.460938 L 52.164062 47.539062 L 51.59375 48.546875 Z M 51.164062 50.515625 " fill-opacity="1" fill-rule="evenodd"/><path fill="#f7f619" d="M 54.160156 49.097656 L 55.113281 52.679688 L 56.871094 57.472656 L 58.324219 60.898438 L 59.238281 62.574219 L 60.277344 63.929688 L 60.917969 64.480469 L 61.492188 64.699219 L 61.976562 64.71875 L 62.621094 64.402344 L 63.722656 63.339844 L 64.753906 61.882812 L 65.179688 61.082031 L 65.285156 60.46875 L 65.105469 60.015625 L 62.738281 57.261719 L 59.378906 53.625 L 58.832031 52.816406 L 58.476562 51.984375 L 57.085938 50.472656 L 54.511719 47.894531 L 53.820312 47.066406 L 53.726562 47.105469 L 53.746094 47.496094 Z M 54.160156 49.097656 " fill-opacity="1" fill-rule="evenodd"/><path fill="#ffffc7" d="M 56.679688 53.523438 L 56.636719 53.5625 L 56.835938 54.425781 L 57.632812 56.550781 L 58.558594 58.300781 L 60.082031 60.609375 L 60.277344 60.777344 L 60.277344 60.609375 L 59.6875 58.757812 L 58.828125 56.800781 L 57.65625 54.820312 L 56.695312 53.523438 Z M 56.679688 53.523438 " fill-opacity="1" fill-rule="evenodd"/><path fill="#ffffc7" d="M 59.863281 55.9375 L 60.589844 56.6875 L 62.40625 59.089844 L 62.914062 59.996094 L 62.875 60.308594 L 62.621094 60.503906 L 62.289062 60.542969 L 61.820312 60.332031 L 61.375 59.664062 L 60.355469 57.460938 L 59.886719 56.175781 L 59.847656 55.9375 Z M 59.863281 55.9375 " fill-opacity="1" fill-rule="evenodd"/><path fill="#ffffc7" d="M 57.972656 48.996094 L 57.949219 48.996094 L 59.453125 50.175781 L 60.90625 51.933594 L 61.46875 52.617188 L 61.175781 51.828125 L 60.433594 50.597656 L 59.589844 49.859375 L 58.023438 49.019531 Z M 57.972656 48.996094 " fill-opacity="1" fill-rule="evenodd"/><path fill="#ffffc7" d="M 60.882812 49.492188 L 63.601562 50.632812 L 65.050781 51.355469 L 65.011719 51.398438 L 64.542969 51.378906 L 63.367188 51.082031 L 62.054688 50.375 L 60.882812 49.546875 L 60.839844 49.46875 Z M 60.882812 49.492188 " fill-opacity="1" fill-rule="evenodd"/><path fill="#ffffc7" d="M 58.164062 43.246094 L 58.335938 43.171875 L 58.359375 43.195312 L 58.925781 43.113281 L 63.914062 41.542969 L 64.007812 41.554688 L 63.089844 42.132812 L 61.035156 43.078125 L 58.324219 43.917969 L 57.578125 44.058594 L 57.476562 43.941406 L 57.929688 43.40625 Z M 58.164062 43.246094 " fill-opacity="1" fill-rule="evenodd"/><path fill="#ffffc7" d="M 61.074219 45.675781 L 62.269531 45.925781 L 65.859375 46.398438 L 65.976562 46.382812 L 63.875 45.792969 L 61.894531 45.359375 L 61.351562 45.359375 L 61.023438 45.515625 L 61.023438 45.636719 Z M 61.074219 45.675781 " fill-opacity="1" fill-rule="evenodd"/><path fill="#ffffc7" d="M 55.273438 40.441406 L 55.933594 40.101562 L 58.164062 38.605469 L 61.035156 36.097656 L 61.46875 35.59375 L 61.375 35.59375 L 59.769531 36.503906 L 57.554688 37.976562 L 56.050781 39.429688 L 55.273438 40.359375 Z M 55.273438 40.441406 " fill-opacity="1" fill-rule="evenodd"/><path fill="#ffffc7" d="M 57.972656 35.5 L 59.3125 34.140625 L 59.546875 33.773438 L 59.21875 33.867188 L 57.972656 34.597656 L 57.75 34.875 L 57.695312 35.246094 L 57.832031 35.5 Z M 57.972656 35.5 " fill-opacity="1" fill-rule="evenodd"/><path fill="#ffffc7" d="M 52.257812 28.339844 L 52.339844 30.289062 L 52.339844 33.261719 L 52.203125 35.71875 L 52.164062 35.898438 L 52.023438 35.070312 L 51.851562 32.082031 L 52.023438 29.640625 L 52.246094 28.316406 Z M 52.257812 28.339844 " fill-opacity="1" fill-rule="evenodd"/><path fill="#ffffc7" d="M 48.253906 25.523438 L 48.917969 28.652344 L 49.363281 31.375 L 49.289062 31.425781 L 48.820312 30.503906 L 48.253906 28.828125 L 48.113281 27.332031 L 48.113281 25.875 L 48.214844 25.46875 Z M 48.253906 25.523438 " fill-opacity="1" fill-rule="evenodd"/><path fill="#ffffc7" d="M 49.363281 32.984375 L 49.347656 33 L 49.949219 35.992188 L 50.835938 39.703125 L 50.851562 39.734375 L 50.324219 36.097656 L 49.914062 34.339844 L 49.386719 33 Z M 49.363281 32.984375 " fill-opacity="1" fill-rule="evenodd"/><path fill="#ffffc7" d="M 45.046875 31.058594 L 46.179688 34.246094 L 47.433594 38.410156 L 47.507812 38.996094 L 46.472656 36.761719 L 45.257812 33.574219 L 44.945312 32.175781 L 44.890625 31.09375 L 44.945312 30.953125 Z M 45.046875 31.058594 " fill-opacity="1" fill-rule="evenodd"/><path fill="#ffffc7" d="M 40.351562 31.566406 L 42.113281 33.632812 L 42.777344 34.28125 L 42.765625 34.164062 L 42.097656 32.960938 L 41.605469 32.332031 L 40.609375 31.582031 L 40.335938 31.488281 Z M 40.351562 31.566406 " fill-opacity="1" fill-rule="evenodd"/><path fill="#ffffc7" d="M 40.84375 27.832031 L 41.683594 29.21875 L 41.957031 29.484375 L 42.035156 29.363281 L 41.996094 29.027344 L 41.195312 28.105469 L 40.84375 27.804688 Z M 40.84375 27.832031 " fill-opacity="1" fill-rule="evenodd"/><path fill="#ffffc7" d="M 41.746094 27.332031 L 43.035156 29.21875 L 43.503906 29.773438 L 43.503906 29.558594 L 43.128906 28.652344 L 42.488281 27.90625 L 41.746094 27.292969 Z M 41.746094 27.332031 " fill-opacity="1" fill-rule="evenodd"/><path fill="#ffffc7" d="M 44.75 41.4375 L 41.628906 39.867188 L 41.238281 39.808594 L 41.042969 40.007812 L 41.121094 40.320312 L 41.566406 40.691406 L 43.351562 41.304688 L 46.453125 42.148438 L 46.472656 42.148438 Z M 44.75 41.4375 " fill-opacity="1" fill-rule="evenodd"/><path fill="#ffffc7" d="M 38.4375 41.542969 L 41.566406 42.265625 L 43.074219 42.523438 L 42.058594 42.027344 L 40.257812 41.4375 L 39.398438 41.34375 L 38.496094 41.386719 L 38.34375 41.480469 Z M 38.4375 41.542969 " fill-opacity="1" fill-rule="evenodd"/><path fill="#ffffc7" d="M 39.242188 46.773438 L 40.453125 46.789062 L 45.257812 47.148438 L 45.632812 47.246094 L 45.441406 47.382812 L 44.382812 47.5625 L 43.445312 47.5625 L 40.886719 47.167969 L 39.242188 46.789062 L 39.21875 46.777344 L 39.242188 46.777344 Z M 39.242188 46.773438 " fill-opacity="1" fill-rule="evenodd"/><path fill="#ffffc7" d="M 46.261719 48.09375 L 46.078125 48.09375 L 42.742188 49.371094 L 40.300781 50.238281 L 40.277344 50.316406 L 41.394531 50.292969 L 42.882812 50.082031 L 43.636719 49.859375 L 44.851562 49.195312 L 46.195312 48.15625 Z M 46.261719 48.09375 " fill-opacity="1" fill-rule="evenodd"/><path fill="#ffffc7" d="M 48.855469 49.195312 L 48.777344 50.597656 L 48.332031 54.035156 L 48.058594 55.371094 L 47.601562 56.410156 L 47.238281 56.925781 L 47.058594 56.960938 L 47.015625 56.394531 L 47.273438 54.292969 L 47.976562 51.511719 L 48.703125 49.371094 L 48.84375 49.179688 Z M 48.855469 49.195312 " fill-opacity="1" fill-rule="evenodd"/><path fill="#ffffc7" d="M 51.460938 55.238281 L 51.027344 57.773438 L 50.640625 60.957031 L 50.71875 61.09375 L 50.992188 60.582031 L 51.203125 59.542969 L 51.460938 55.761719 L 51.460938 55.214844 Z M 51.460938 55.238281 " fill-opacity="1" fill-rule="evenodd"/><path fill="#ffffc7" d="M 52.574219 53.328125 L 52.597656 53.976562 L 52.90625 56.136719 L 53.257812 57.457031 L 53.9375 58.914062 L 54.996094 60.542969 L 55.167969 60.683594 L 54.605469 59.007812 L 53.351562 55.648438 L 52.597656 53.328125 L 52.574219 53.308594 Z M 52.574219 53.328125 " fill-opacity="1" fill-rule="evenodd"/><path fill="#f9f980" d="M 26.945312 54.742188 L 26.609375 54.742188 L 25.890625 55.160156 L 25.867188 55.253906 L 26.476562 55.476562 L 26.59375 55.78125 L 26.671875 56.371094 L 26.84375 56.410156 L 27.375 56.136719 L 27.546875 55.898438 L 27.429688 55.433594 L 27.101562 54.859375 Z M 26.945312 54.742188 " fill-opacity="1" fill-rule="evenodd"/><path fill="#dbdb00" d="M 27.234375 54.53125 L 26.984375 54.507812 L 26.28125 54.847656 L 26.164062 55.015625 L 26.765625 55.253906 L 26.882812 55.570312 L 26.984375 56.160156 L 27.183594 56.199219 L 27.746094 55.886719 L 27.863281 55.621094 L 27.664062 55.039062 L 27.277344 54.542969 Z M 27.234375 54.53125 " fill-opacity="1" fill-rule="evenodd"/><path fill="#f9f980" d="M 27.023438 41.554688 L 26.710938 41.554688 L 26.046875 41.933594 L 26.023438 42.027344 L 26.609375 42.265625 L 26.726562 42.738281 L 26.789062 43.054688 L 26.960938 43.113281 L 27.429688 42.878906 L 27.585938 42.582031 L 27.351562 41.953125 L 27.039062 41.554688 Z M 27.023438 41.554688 " fill-opacity="1" fill-rule="evenodd"/><path fill="#dbdb00" d="M 27.3125 41.34375 L 27.039062 41.34375 L 26.316406 41.734375 L 26.292969 41.832031 L 26.867188 42.027344 L 26.984375 42.34375 L 27.066406 42.855469 L 27.234375 42.898438 L 27.703125 42.660156 L 27.886719 42.367188 L 27.6875 41.777344 L 27.335938 41.34375 Z M 27.3125 41.34375 " fill-opacity="1" fill-rule="evenodd"/><path fill="#f9f980" d="M 30.035156 63.457031 L 29.800781 63.414062 L 29.074219 63.691406 L 28.566406 64.085938 L 28.628906 64.164062 L 29.367188 64.425781 L 29.542969 64.777344 L 29.644531 65.582031 L 29.800781 65.722656 L 30.117188 65.664062 L 30.679688 65.332031 L 30.871094 64.992188 L 30.703125 64.34375 L 30.210938 63.574219 Z M 30.035156 63.457031 " fill-opacity="1" fill-rule="evenodd"/><path fill="#dbdb00" d="M 30.445312 63.164062 L 30.210938 63.125 L 29.367188 63.457031 L 28.957031 63.8125 L 29.097656 63.914062 L 29.722656 64.085938 L 29.917969 64.320312 L 30.074219 65.304688 L 30.246094 65.40625 L 30.636719 65.289062 L 31.128906 64.953125 L 31.265625 64.636719 L 31.066406 63.96875 L 30.621094 63.28125 Z M 30.445312 63.164062 " fill-opacity="1" fill-rule="evenodd"/><path fill="#f9f980" d="M 32.265625 43.800781 L 32.042969 43.800781 L 31.5625 44.097656 L 31.539062 44.140625 L 31.96875 44.296875 L 32.066406 44.769531 L 32.125 44.886719 L 32.5 44.746094 L 32.65625 44.53125 L 32.417969 43.941406 Z M 32.265625 43.800781 " fill-opacity="1" fill-rule="evenodd"/><path fill="#dbdb00" d="M 32.460938 43.667969 L 32.242188 43.667969 L 31.757812 43.957031 L 31.734375 44 L 32.160156 44.152344 L 32.265625 44.625 L 32.320312 44.746094 L 32.734375 44.570312 L 32.851562 44.375 L 32.632812 43.824219 Z M 32.460938 43.667969 " fill-opacity="1" fill-rule="evenodd"/><path fill="#f9f980" d="M 31.054688 49.964844 L 31.03125 49.984375 L 31.5625 50.609375 L 31.808594 50.753906 L 32.109375 50.515625 L 32.183594 50.28125 L 31.851562 50.082031 L 31.128906 49.941406 Z M 31.054688 49.964844 " fill-opacity="1" fill-rule="evenodd"/><path fill="#dbdb00" d="M 31.222656 49.859375 L 31.207031 49.886719 L 31.734375 50.515625 L 31.992188 50.648438 L 32.277344 50.410156 L 32.359375 50.175781 L 32.03125 49.980469 L 31.300781 49.84375 Z M 31.222656 49.859375 " fill-opacity="1" fill-rule="evenodd"/><path fill="#f9f980" d="M 37.535156 63.300781 L 37.523438 63.320312 L 38.027344 63.953125 L 38.28125 64.085938 L 38.589844 63.847656 L 38.671875 63.613281 L 38.34375 63.414062 L 37.617188 63.28125 Z M 37.535156 63.300781 " fill-opacity="1" fill-rule="evenodd"/><path fill="#dbdb00" d="M 37.71875 63.207031 L 37.695312 63.222656 L 38.226562 63.847656 L 38.472656 63.992188 L 38.773438 63.753906 L 38.851562 63.519531 L 38.515625 63.320312 L 37.792969 63.179688 Z M 37.71875 63.207031 " fill-opacity="1" fill-rule="evenodd"/><path fill="#f9f980" d="M 42.269531 65.917969 L 42.253906 65.9375 L 42.648438 66.527344 L 43.351562 67.179688 L 43.542969 67.234375 L 43.953125 66.957031 L 44.171875 66.484375 L 43.988281 66.289062 L 42.777344 65.917969 L 42.269531 65.898438 Z M 42.269531 65.917969 " fill-opacity="1" fill-rule="evenodd"/><path fill="#dbdb00" d="M 42.566406 65.761719 L 42.542969 65.777344 L 42.894531 66.328125 L 43.660156 67.023438 L 43.859375 67.078125 L 44.222656 66.824219 L 44.476562 66.371094 L 44.382812 66.152344 L 43.308594 65.804688 L 42.582031 65.722656 Z M 42.566406 65.761719 " fill-opacity="1" fill-rule="evenodd"/><path fill="#f9f980" d="M 31.65625 58.914062 L 31.640625 58.925781 L 31.925781 59.429688 L 32.734375 60.175781 L 32.929688 60.230469 L 33.296875 59.976562 L 33.546875 59.480469 L 33.414062 59.285156 L 32.300781 58.925781 L 31.679688 58.875 Z M 31.65625 58.914062 " fill-opacity="1" fill-rule="evenodd"/><path fill="#dbdb00" d="M 31.949219 58.734375 L 31.925781 58.757812 L 32.382812 59.429688 L 33.125 60.054688 L 33.320312 60.054688 L 33.707031 59.703125 L 33.859375 59.304688 L 33.6875 59.113281 L 32.773438 58.796875 L 31.96875 58.691406 Z M 31.949219 58.734375 " fill-opacity="1" fill-rule="evenodd"/><path fill="#f9f980" d="M 40.9375 63.125 L 40.925781 63.140625 L 41.429688 63.773438 L 41.683594 63.914062 L 41.996094 63.679688 L 42.074219 63.441406 L 41.746094 63.246094 L 41.019531 63.101562 Z M 40.9375 63.125 " fill-opacity="1" fill-rule="evenodd"/><path fill="#dbdb00" d="M 41.121094 63.023438 L 41.097656 63.046875 L 41.628906 63.695312 L 41.878906 63.835938 L 42.136719 63.613281 L 42.253906 63.339844 L 42.035156 63.207031 L 41.195312 62.984375 Z M 41.121094 63.023438 " fill-opacity="1" fill-rule="evenodd"/><path fill="#f9f980" d="M 35.371094 56.054688 L 35.351562 56.078125 L 35.347656 56.101562 L 35.339844 56.121094 L 35.339844 56.21875 L 35.347656 56.234375 L 35.351562 56.265625 L 35.371094 56.285156 L 35.375 56.3125 L 35.394531 56.332031 L 35.417969 56.359375 L 35.433594 56.378906 L 35.457031 56.398438 L 35.488281 56.410156 L 35.511719 56.433594 L 35.535156 56.453125 L 35.5625 56.457031 L 35.585938 56.472656 L 35.621094 56.480469 L 35.644531 56.492188 L 35.753906 56.492188 L 35.777344 56.480469 L 35.800781 56.472656 L 35.824219 56.457031 L 35.839844 56.453125 L 35.855469 56.433594 L 35.878906 56.410156 L 35.886719 56.398438 L 35.894531 56.378906 L 35.894531 56.359375 L 35.902344 56.332031 L 35.902344 56.3125 L 35.894531 56.285156 L 35.894531 56.253906 L 35.878906 56.207031 L 35.871094 56.175781 L 35.824219 56.105469 L 35.800781 56.078125 L 35.785156 56.066406 L 35.761719 56.042969 L 35.730469 56.027344 L 35.707031 56.007812 L 35.675781 56 L 35.652344 55.996094 L 35.621094 55.984375 L 35.585938 55.980469 L 35.539062 55.980469 L 35.511719 55.984375 L 35.488281 55.984375 L 35.464844 55.996094 L 35.441406 56 L 35.417969 56.019531 L 35.398438 56.027344 L 35.386719 56.042969 Z M 35.371094 56.054688 " fill-opacity="1" fill-rule="evenodd"/><path fill="#dbdb00" d="M 35.421875 55.960938 L 35.410156 55.984375 L 35.394531 56 L 35.386719 56.027344 L 35.386719 56.046875 L 35.375 56.074219 L 35.375 56.09375 L 35.386719 56.121094 L 35.394531 56.140625 L 35.398438 56.167969 L 35.410156 56.1875 L 35.417969 56.21875 L 35.433594 56.234375 L 35.457031 56.265625 L 35.492188 56.300781 L 35.527344 56.316406 L 35.550781 56.339844 L 35.574219 56.347656 L 35.605469 56.363281 L 35.628906 56.371094 L 35.660156 56.378906 L 35.683594 56.386719 L 35.792969 56.386719 L 35.863281 56.363281 L 35.878906 56.347656 L 35.894531 56.339844 L 35.917969 56.316406 L 35.925781 56.300781 L 35.933594 56.277344 L 35.933594 56.253906 L 35.941406 56.230469 L 35.941406 56.207031 L 35.933594 56.183594 L 35.933594 56.160156 L 35.925781 56.128906 L 35.917969 56.105469 L 35.910156 56.078125 L 35.863281 56.007812 L 35.839844 55.984375 L 35.824219 55.960938 L 35.800781 55.9375 L 35.769531 55.921875 L 35.746094 55.914062 L 35.714844 55.898438 L 35.691406 55.890625 L 35.660156 55.886719 L 35.558594 55.886719 L 35.527344 55.890625 L 35.511719 55.898438 L 35.464844 55.914062 L 35.445312 55.933594 L 35.433594 55.949219 Z M 35.421875 55.960938 " fill-opacity="1" fill-rule="evenodd"/><path fill="#f9f980" d="M 31.734375 36.097656 L 31.714844 36.117188 L 31.710938 36.132812 L 31.710938 36.179688 L 31.703125 36.207031 L 31.710938 36.230469 L 31.710938 36.253906 L 31.714844 36.277344 L 31.726562 36.300781 L 31.734375 36.324219 L 31.75 36.347656 L 31.761719 36.371094 L 31.78125 36.394531 L 31.804688 36.410156 L 31.820312 36.433594 L 31.851562 36.445312 L 31.875 36.472656 L 31.898438 36.480469 L 31.925781 36.492188 L 31.949219 36.503906 L 31.984375 36.511719 L 32.007812 36.523438 L 32.113281 36.523438 L 32.132812 36.511719 L 32.15625 36.503906 L 32.179688 36.492188 L 32.195312 36.480469 L 32.207031 36.472656 L 32.226562 36.445312 L 32.230469 36.433594 L 32.25 36.410156 L 32.253906 36.394531 L 32.253906 36.371094 L 32.265625 36.347656 L 32.265625 36.324219 L 32.253906 36.300781 L 32.253906 36.277344 L 32.230469 36.230469 L 32.226562 36.207031 L 32.207031 36.179688 L 32.183594 36.15625 L 32.171875 36.132812 L 32.148438 36.117188 L 32.125 36.097656 L 32.089844 36.078125 L 32.066406 36.0625 L 32.039062 36.054688 L 32.015625 36.039062 L 31.984375 36.03125 L 31.960938 36.019531 L 31.851562 36.019531 L 31.828125 36.03125 L 31.804688 36.039062 L 31.78125 36.054688 L 31.761719 36.0625 L 31.75 36.078125 Z M 31.734375 36.097656 " fill-opacity="1" fill-rule="evenodd"/><path fill="#dbdb00" d="M 31.796875 35.992188 L 31.78125 36.015625 L 31.761719 36.039062 L 31.757812 36.054688 L 31.757812 36.078125 L 31.75 36.101562 L 31.75 36.125 L 31.757812 36.148438 L 31.757812 36.171875 L 31.761719 36.195312 L 31.78125 36.21875 L 31.785156 36.242188 L 31.804688 36.265625 L 31.820312 36.289062 L 31.84375 36.3125 L 31.855469 36.332031 L 31.890625 36.347656 L 31.914062 36.371094 L 31.9375 36.382812 L 31.96875 36.394531 L 31.996094 36.410156 L 32.019531 36.417969 L 32.054688 36.425781 L 32.15625 36.425781 L 32.203125 36.410156 L 32.226562 36.394531 L 32.242188 36.382812 L 32.277344 36.347656 L 32.289062 36.332031 L 32.296875 36.3125 L 32.300781 36.289062 L 32.300781 36.195312 L 32.296875 36.171875 L 32.289062 36.148438 L 32.273438 36.125 L 32.265625 36.101562 L 32.25 36.078125 L 32.226562 36.054688 L 32.207031 36.039062 L 32.160156 35.992188 L 32.132812 35.972656 L 32.109375 35.96875 L 32.078125 35.953125 L 32.054688 35.945312 L 32.019531 35.9375 L 31.996094 35.925781 L 31.972656 35.925781 L 31.945312 35.921875 L 31.921875 35.925781 L 31.898438 35.925781 L 31.875 35.9375 L 31.851562 35.945312 L 31.832031 35.953125 L 31.820312 35.96875 L 31.804688 35.972656 Z M 31.796875 35.992188 " fill-opacity="1" fill-rule="evenodd"/><path fill="#f9f980" d="M 50.578125 67.378906 L 50.558594 67.402344 L 50.554688 67.414062 L 50.554688 67.460938 L 50.546875 67.484375 L 50.554688 67.507812 L 50.554688 67.535156 L 50.558594 67.558594 L 50.570312 67.582031 L 50.578125 67.605469 L 50.59375 67.628906 L 50.605469 67.652344 L 50.625 67.675781 L 50.648438 67.695312 L 50.664062 67.714844 L 50.695312 67.730469 L 50.71875 67.753906 L 50.742188 67.761719 L 50.769531 67.777344 L 50.792969 67.789062 L 50.828125 67.792969 L 50.851562 67.804688 L 50.960938 67.804688 L 50.976562 67.792969 L 51 67.789062 L 51.023438 67.777344 L 51.039062 67.761719 L 51.054688 67.753906 L 51.070312 67.730469 L 51.078125 67.714844 L 51.09375 67.695312 L 51.101562 67.675781 L 51.101562 67.652344 L 51.109375 67.628906 L 51.109375 67.605469 L 51.101562 67.582031 L 51.101562 67.558594 L 51.085938 67.535156 L 51.078125 67.507812 L 51.070312 67.484375 L 51.054688 67.460938 L 51.03125 67.4375 L 51.015625 67.414062 L 50.992188 67.402344 L 50.96875 67.378906 L 50.9375 67.363281 L 50.914062 67.34375 L 50.882812 67.335938 L 50.859375 67.320312 L 50.828125 67.316406 L 50.804688 67.304688 L 50.695312 67.304688 L 50.671875 67.316406 L 50.648438 67.320312 L 50.625 67.335938 L 50.605469 67.34375 L 50.59375 67.363281 Z M 50.578125 67.378906 " fill-opacity="1" fill-rule="evenodd"/><path fill="#dbdb00" d="M 50.640625 67.273438 L 50.625 67.296875 L 50.605469 67.320312 L 50.601562 67.335938 L 50.601562 67.363281 L 50.59375 67.382812 L 50.59375 67.410156 L 50.601562 67.429688 L 50.601562 67.457031 L 50.605469 67.476562 L 50.625 67.503906 L 50.628906 67.523438 L 50.648438 67.550781 L 50.664062 67.570312 L 50.6875 67.597656 L 50.699219 67.613281 L 50.734375 67.628906 L 50.757812 67.652344 L 50.78125 67.664062 L 50.8125 67.675781 L 50.84375 67.695312 L 50.867188 67.699219 L 50.898438 67.707031 L 51 67.707031 L 51.023438 67.699219 L 51.046875 67.695312 L 51.070312 67.675781 L 51.101562 67.652344 L 51.125 67.628906 L 51.140625 67.597656 L 51.148438 67.570312 L 51.148438 67.476562 L 51.140625 67.457031 L 51.132812 67.429688 L 51.117188 67.410156 L 51.109375 67.382812 L 51.09375 67.363281 L 51.070312 67.335938 L 51.007812 67.273438 L 50.976562 67.257812 L 50.953125 67.25 L 50.921875 67.234375 L 50.898438 67.226562 L 50.863281 67.222656 L 50.839844 67.210938 L 50.816406 67.210938 L 50.789062 67.203125 L 50.765625 67.210938 L 50.742188 67.210938 L 50.71875 67.222656 L 50.695312 67.226562 L 50.675781 67.234375 L 50.664062 67.25 L 50.648438 67.257812 Z M 50.640625 67.273438 " fill-opacity="1" fill-rule="evenodd"/><path fill="#f9f980" d="M 31.480469 29.597656 L 31.453125 29.640625 L 31.433594 29.671875 L 31.429688 29.710938 L 31.421875 29.75 L 31.410156 29.785156 L 31.421875 29.828125 L 31.429688 29.875 L 31.433594 29.914062 L 31.453125 29.960938 L 31.476562 30.003906 L 31.5 30.042969 L 31.523438 30.078125 L 31.5625 30.117188 L 31.59375 30.160156 L 31.632812 30.199219 L 31.679688 30.230469 L 31.714844 30.257812 L 31.761719 30.292969 L 31.808594 30.304688 L 31.855469 30.335938 L 31.902344 30.339844 L 31.949219 30.347656 L 31.996094 30.351562 L 32.042969 30.351562 L 32.085938 30.347656 L 32.132812 30.339844 L 32.171875 30.335938 L 32.207031 30.316406 L 32.25 30.292969 L 32.277344 30.269531 L 32.3125 30.246094 L 32.34375 30.207031 L 32.359375 30.175781 L 32.371094 30.144531 L 32.382812 30.101562 L 32.390625 30.066406 L 32.390625 29.984375 L 32.382812 29.9375 L 32.371094 29.898438 L 32.359375 29.851562 L 32.34375 29.816406 L 32.320312 29.773438 L 32.289062 29.734375 L 32.253906 29.691406 L 32.226562 29.65625 L 32.183594 29.617188 L 32.148438 29.578125 L 32.089844 29.550781 L 32.042969 29.523438 L 31.996094 29.5 L 31.945312 29.484375 L 31.898438 29.464844 L 31.851562 29.457031 L 31.804688 29.457031 L 31.757812 29.453125 L 31.714844 29.457031 L 31.667969 29.464844 L 31.632812 29.476562 L 31.59375 29.488281 L 31.5625 29.511719 L 31.527344 29.535156 L 31.503906 29.570312 Z M 31.480469 29.597656 " fill-opacity="1" fill-rule="evenodd"/><path fill="#dbdb00" d="M 31.539062 29.417969 L 31.515625 29.457031 L 31.5 29.5 L 31.492188 29.535156 L 31.480469 29.578125 L 31.480469 29.617188 L 31.492188 29.65625 L 31.5 29.691406 L 31.515625 29.738281 L 31.527344 29.78125 L 31.550781 29.828125 L 31.574219 29.867188 L 31.597656 29.910156 L 31.632812 29.945312 L 31.667969 29.984375 L 31.710938 30.019531 L 31.757812 30.050781 L 31.796875 30.089844 L 31.890625 30.136719 L 31.9375 30.148438 L 31.984375 30.164062 L 32.03125 30.183594 L 32.078125 30.183594 L 32.125 30.191406 L 32.160156 30.183594 L 32.207031 30.183594 L 32.25 30.164062 L 32.289062 30.148438 L 32.324219 30.136719 L 32.359375 30.113281 L 32.390625 30.089844 L 32.417969 30.050781 L 32.4375 30.019531 L 32.453125 29.976562 L 32.460938 29.9375 L 32.464844 29.890625 L 32.464844 29.804688 L 32.460938 29.769531 L 32.453125 29.71875 L 32.429688 29.679688 L 32.414062 29.640625 L 32.390625 29.59375 L 32.359375 29.550781 L 32.324219 29.511719 L 32.289062 29.476562 L 32.242188 29.441406 L 32.203125 29.402344 L 32.15625 29.371094 L 32.0625 29.324219 L 32.015625 29.308594 L 31.921875 29.285156 L 31.785156 29.285156 L 31.738281 29.296875 L 31.703125 29.308594 L 31.664062 29.324219 L 31.621094 29.34375 L 31.59375 29.363281 Z M 31.539062 29.417969 " fill-opacity="1" fill-rule="evenodd"/><path fill="#f9f980" d="M 34.707031 51.75 L 34.683594 51.792969 L 34.667969 51.828125 L 34.660156 51.871094 L 34.648438 51.910156 L 34.648438 51.984375 L 34.660156 52.027344 L 34.667969 52.074219 L 34.683594 52.113281 L 34.707031 52.160156 L 34.730469 52.203125 L 34.761719 52.238281 L 34.789062 52.277344 L 34.832031 52.316406 L 34.871094 52.347656 L 34.917969 52.382812 L 34.953125 52.417969 L 35.046875 52.464844 L 35.09375 52.484375 L 35.140625 52.5 L 35.1875 52.503906 L 35.328125 52.503906 L 35.371094 52.5 L 35.410156 52.484375 L 35.445312 52.464844 L 35.488281 52.453125 L 35.515625 52.429688 L 35.582031 52.363281 L 35.597656 52.335938 L 35.609375 52.296875 L 35.621094 52.253906 L 35.628906 52.214844 L 35.628906 52.136719 L 35.621094 52.097656 L 35.609375 52.050781 L 35.597656 52.011719 L 35.574219 51.964844 L 35.550781 51.921875 L 35.515625 51.886719 L 35.488281 51.84375 L 35.445312 51.804688 L 35.410156 51.777344 L 35.371094 51.734375 L 35.324219 51.703125 L 35.277344 51.683594 L 35.230469 51.652344 L 35.183594 51.640625 L 35.136719 51.625 L 35.089844 51.605469 L 35.042969 51.605469 L 34.996094 51.601562 L 34.949219 51.605469 L 34.90625 51.617188 L 34.871094 51.625 L 34.832031 51.640625 L 34.789062 51.664062 L 34.761719 51.6875 L 34.730469 51.71875 Z M 34.707031 51.75 " fill-opacity="1" fill-rule="evenodd"/><path fill="#dbdb00" d="M 34.785156 51.578125 L 34.761719 51.617188 L 34.742188 51.648438 L 34.738281 51.6875 L 34.730469 51.730469 L 34.730469 51.804688 L 34.738281 51.851562 L 34.742188 51.890625 L 34.761719 51.9375 L 34.777344 51.980469 L 34.800781 52.019531 L 34.832031 52.058594 L 34.859375 52.097656 L 34.894531 52.136719 L 34.929688 52.171875 L 34.976562 52.207031 L 35.070312 52.269531 L 35.117188 52.296875 L 35.164062 52.308594 L 35.210938 52.324219 L 35.269531 52.332031 L 35.316406 52.34375 L 35.398438 52.34375 L 35.441406 52.332031 L 35.488281 52.324219 L 35.515625 52.308594 L 35.558594 52.296875 L 35.585938 52.269531 L 35.609375 52.238281 L 35.644531 52.207031 L 35.660156 52.171875 L 35.683594 52.136719 L 35.691406 52.097656 L 35.699219 52.050781 L 35.699219 51.964844 L 35.691406 51.921875 L 35.683594 51.875 L 35.667969 51.839844 L 35.644531 51.792969 L 35.621094 51.75 L 35.585938 51.710938 L 35.558594 51.671875 L 35.527344 51.636719 L 35.488281 51.59375 L 35.445312 51.554688 L 35.398438 51.53125 L 35.351562 51.5 L 35.304688 51.484375 L 35.257812 51.460938 L 35.117188 51.4375 L 35.070312 51.4375 L 35.023438 51.445312 L 34.988281 51.453125 L 34.949219 51.460938 L 34.90625 51.476562 L 34.835938 51.523438 L 34.808594 51.546875 Z M 34.785156 51.578125 " fill-opacity="1" fill-rule="evenodd"/><path fill="#f9f980" d="M 26.476562 49.136719 L 26.445312 49.179688 L 26.429688 49.207031 L 26.421875 49.246094 L 26.410156 49.289062 L 26.40625 49.324219 L 26.410156 49.367188 L 26.421875 49.414062 L 26.429688 49.453125 L 26.445312 49.5 L 26.46875 49.539062 L 26.492188 49.574219 L 26.515625 49.617188 L 26.554688 49.65625 L 26.585938 49.699219 L 26.625 49.734375 L 26.671875 49.765625 L 26.710938 49.796875 L 26.757812 49.832031 L 26.804688 49.855469 L 26.851562 49.867188 L 26.898438 49.886719 L 26.953125 49.890625 L 27 49.902344 L 27.089844 49.902344 L 27.136719 49.890625 L 27.171875 49.886719 L 27.210938 49.867188 L 27.253906 49.855469 L 27.28125 49.832031 L 27.304688 49.796875 L 27.335938 49.765625 L 27.351562 49.734375 L 27.375 49.699219 L 27.382812 49.65625 L 27.394531 49.617188 L 27.394531 49.527344 L 27.382812 49.492188 L 27.375 49.445312 L 27.359375 49.398438 L 27.335938 49.359375 L 27.3125 49.3125 L 27.28125 49.273438 L 27.253906 49.230469 L 27.21875 49.195312 L 27.183594 49.152344 L 27.140625 49.113281 L 27 49.042969 L 26.953125 49.027344 L 26.90625 49.019531 L 26.851562 49.007812 L 26.804688 49.003906 L 26.71875 49.003906 L 26.671875 49.007812 L 26.632812 49.027344 L 26.554688 49.058594 L 26.523438 49.085938 L 26.5 49.105469 Z M 26.476562 49.136719 " fill-opacity="1" fill-rule="evenodd"/><path fill="#dbdb00" d="M 26.554688 48.957031 L 26.523438 48.996094 L 26.507812 49.039062 L 26.5 49.074219 L 26.484375 49.152344 L 26.492188 49.199219 L 26.5 49.242188 L 26.507812 49.289062 L 26.523438 49.324219 L 26.546875 49.367188 L 26.570312 49.414062 L 26.59375 49.453125 L 26.703125 49.5625 L 26.75 49.585938 L 26.789062 49.625 L 26.835938 49.652344 L 26.882812 49.671875 L 27.023438 49.71875 L 27.070312 49.71875 L 27.117188 49.726562 L 27.160156 49.71875 L 27.207031 49.71875 L 27.242188 49.703125 L 27.28125 49.6875 L 27.324219 49.671875 L 27.351562 49.652344 L 27.382812 49.625 L 27.417969 49.585938 L 27.429688 49.558594 L 27.445312 49.523438 L 27.453125 49.480469 L 27.464844 49.445312 L 27.464844 49.359375 L 27.453125 49.3125 L 27.445312 49.273438 L 27.421875 49.226562 L 27.40625 49.183594 L 27.382812 49.136719 L 27.351562 49.097656 L 27.324219 49.058594 L 27.28125 49.027344 L 27.234375 48.992188 L 27.195312 48.957031 L 27.148438 48.933594 L 27.101562 48.902344 L 27.054688 48.878906 L 26.960938 48.847656 L 26.914062 48.839844 L 26.875 48.832031 L 26.78125 48.832031 L 26.703125 48.847656 L 26.664062 48.863281 L 26.632812 48.878906 L 26.601562 48.902344 L 26.578125 48.933594 Z M 26.554688 48.957031 " fill-opacity="1" fill-rule="evenodd"/><path fill="#f9f980" d="M 35.761719 67.390625 L 35.730469 67.429688 L 35.714844 67.472656 L 35.707031 67.507812 L 35.699219 67.550781 L 35.691406 67.589844 L 35.699219 67.636719 L 35.707031 67.675781 L 35.714844 67.722656 L 35.730469 67.757812 L 35.753906 67.800781 L 35.777344 67.847656 L 35.800781 67.886719 L 35.839844 67.929688 L 35.871094 67.957031 L 35.910156 67.996094 L 35.957031 68.023438 L 35.996094 68.0625 L 36.089844 68.109375 L 36.136719 68.125 L 36.183594 68.136719 L 36.230469 68.15625 L 36.277344 68.15625 L 36.324219 68.164062 L 36.363281 68.15625 L 36.410156 68.15625 L 36.453125 68.136719 L 36.488281 68.125 L 36.527344 68.109375 L 36.558594 68.085938 L 36.59375 68.0625 L 36.621094 68.023438 L 36.640625 67.992188 L 36.664062 67.921875 L 36.667969 67.871094 L 36.667969 67.792969 L 36.664062 67.746094 L 36.652344 67.699219 L 36.628906 67.660156 L 36.617188 67.613281 L 36.59375 67.570312 L 36.558594 67.523438 L 36.527344 67.484375 L 36.488281 67.449219 L 36.441406 67.414062 L 36.40625 67.378906 L 36.359375 67.355469 L 36.3125 67.328125 L 36.265625 67.304688 L 36.214844 67.289062 L 36.121094 67.273438 L 36.082031 67.269531 L 35.988281 67.269531 L 35.949219 67.273438 L 35.910156 67.28125 L 35.871094 67.296875 L 35.808594 67.335938 L 35.785156 67.367188 Z M 35.761719 67.390625 " fill-opacity="1" fill-rule="evenodd"/><path fill="#dbdb00" d="M 35.816406 67.222656 L 35.792969 67.257812 L 35.777344 67.289062 L 35.761719 67.367188 L 35.761719 67.457031 L 35.769531 67.503906 L 35.785156 67.542969 L 35.816406 67.636719 L 35.839844 67.675781 L 35.871094 67.710938 L 35.902344 67.757812 L 35.941406 67.800781 L 35.988281 67.835938 L 36.035156 67.863281 L 36.074219 67.894531 L 36.121094 67.921875 L 36.167969 67.945312 L 36.214844 67.957031 L 36.265625 67.96875 L 36.3125 67.976562 L 36.359375 67.980469 L 36.441406 67.980469 L 36.488281 67.976562 L 36.527344 67.96875 L 36.570312 67.949219 L 36.605469 67.933594 L 36.640625 67.910156 L 36.667969 67.882812 L 36.699219 67.847656 L 36.734375 67.777344 L 36.738281 67.742188 L 36.746094 67.699219 L 36.746094 67.660156 L 36.738281 67.617188 L 36.734375 67.578125 L 36.714844 67.53125 L 36.699219 67.496094 L 36.675781 67.449219 L 36.652344 67.410156 L 36.628906 67.367188 L 36.597656 67.328125 L 36.558594 67.289062 L 36.523438 67.257812 L 36.480469 67.222656 L 36.433594 67.1875 L 36.339844 67.140625 L 36.199219 67.09375 L 36.152344 67.09375 L 36.113281 67.085938 L 36.066406 67.09375 L 36.019531 67.09375 L 35.902344 67.140625 L 35.839844 67.1875 Z M 35.816406 67.222656 " fill-opacity="1" fill-rule="evenodd"/><path fill="#f9f980" d="M 39.574219 60.625 L 39.554688 60.648438 L 39.550781 60.671875 L 39.539062 60.683594 L 39.53125 60.707031 L 39.53125 60.753906 L 39.539062 60.777344 L 39.550781 60.804688 L 39.554688 60.828125 L 39.574219 60.851562 L 39.578125 60.875 L 39.601562 60.898438 L 39.621094 60.921875 L 39.644531 60.945312 L 39.65625 60.960938 L 39.691406 60.976562 L 39.714844 61 L 39.738281 61.015625 L 39.765625 61.023438 L 39.789062 61.039062 L 39.820312 61.046875 L 39.84375 61.054688 L 39.949219 61.054688 L 39.972656 61.046875 L 40.007812 61.023438 L 40.023438 61.015625 L 40.046875 61 L 40.066406 60.976562 L 40.070312 60.960938 L 40.089844 60.921875 L 40.09375 60.898438 L 40.09375 60.851562 L 40.089844 60.828125 L 40.078125 60.804688 L 40.070312 60.777344 L 40.054688 60.753906 L 40.046875 60.730469 L 40.023438 60.707031 L 40.007812 60.683594 L 39.984375 60.671875 L 39.972656 60.648438 L 39.949219 60.625 L 39.914062 60.609375 L 39.890625 60.601562 L 39.859375 60.582031 L 39.835938 60.578125 L 39.808594 60.566406 L 39.785156 60.5625 L 39.761719 60.5625 L 39.738281 60.550781 L 39.703125 60.5625 L 39.679688 60.5625 L 39.65625 60.566406 L 39.644531 60.578125 L 39.621094 60.582031 L 39.601562 60.601562 L 39.578125 60.609375 Z M 39.574219 60.625 " fill-opacity="1" fill-rule="evenodd"/><path fill="#dbdb00" d="M 39.609375 60.527344 L 39.597656 60.550781 L 39.585938 60.566406 L 39.585938 60.613281 L 39.578125 60.636719 L 39.585938 60.660156 L 39.585938 60.683594 L 39.597656 60.707031 L 39.601562 60.730469 L 39.609375 60.753906 L 39.625 60.78125 L 39.644531 60.804688 L 39.65625 60.828125 L 39.679688 60.84375 L 39.695312 60.863281 L 39.726562 60.882812 L 39.75 60.90625 L 39.773438 60.910156 L 39.808594 60.929688 L 39.832031 60.941406 L 39.859375 60.945312 L 39.882812 60.953125 L 39.996094 60.953125 L 40.007812 60.945312 L 40.03125 60.941406 L 40.054688 60.929688 L 40.070312 60.910156 L 40.089844 60.90625 L 40.101562 60.882812 L 40.113281 60.863281 L 40.117188 60.84375 L 40.136719 60.804688 L 40.136719 60.753906 L 40.125 60.730469 L 40.117188 60.707031 L 40.113281 60.683594 L 40.09375 60.660156 L 40.089844 60.636719 L 40.066406 60.613281 L 40.046875 60.589844 L 39.984375 60.527344 L 39.960938 60.515625 L 39.9375 60.496094 L 39.90625 60.484375 L 39.882812 60.472656 L 39.859375 60.46875 L 39.832031 60.457031 L 39.726562 60.457031 L 39.703125 60.46875 L 39.679688 60.472656 L 39.65625 60.484375 L 39.625 60.515625 Z M 39.609375 60.527344 " fill-opacity="1" fill-rule="evenodd"/><path fill="#f9f980" d="M 35.777344 26.464844 L 35.746094 26.511719 L 35.738281 26.527344 L 35.738281 26.554688 L 35.730469 26.574219 L 35.730469 26.601562 L 35.738281 26.621094 L 35.746094 26.652344 L 35.753906 26.667969 L 35.761719 26.699219 L 35.785156 26.746094 L 35.808594 26.765625 L 35.824219 26.792969 L 35.878906 26.820312 L 35.902344 26.84375 L 35.925781 26.859375 L 35.957031 26.867188 L 35.980469 26.886719 L 36.011719 26.890625 L 36.035156 26.902344 L 36.144531 26.902344 L 36.167969 26.890625 L 36.191406 26.886719 L 36.214844 26.867188 L 36.230469 26.859375 L 36.269531 26.820312 L 36.277344 26.804688 L 36.289062 26.792969 L 36.289062 26.765625 L 36.292969 26.746094 L 36.292969 26.714844 L 36.289062 26.699219 L 36.289062 26.667969 L 36.277344 26.652344 L 36.269531 26.621094 L 36.265625 26.601562 L 36.246094 26.574219 L 36.230469 26.554688 L 36.214844 26.527344 L 36.191406 26.511719 L 36.175781 26.488281 L 36.152344 26.464844 L 36.121094 26.453125 L 36.097656 26.441406 L 36.066406 26.429688 L 36.042969 26.417969 L 36.011719 26.414062 L 35.988281 26.40625 L 35.957031 26.40625 L 35.933594 26.394531 L 35.910156 26.40625 L 35.878906 26.40625 L 35.863281 26.414062 L 35.839844 26.417969 L 35.816406 26.429688 L 35.785156 26.453125 Z M 35.777344 26.464844 " fill-opacity="1" fill-rule="evenodd"/><path fill="#dbdb00" d="M 35.816406 26.371094 L 35.800781 26.394531 L 35.785156 26.433594 L 35.777344 26.460938 L 35.777344 26.507812 L 35.785156 26.527344 L 35.792969 26.554688 L 35.800781 26.574219 L 35.808594 26.601562 L 35.824219 26.621094 L 35.839844 26.652344 L 35.855469 26.667969 L 35.871094 26.6875 L 35.894531 26.710938 L 35.917969 26.726562 L 35.941406 26.75 L 35.964844 26.757812 L 35.996094 26.773438 L 36.019531 26.78125 L 36.050781 26.792969 L 36.074219 26.796875 L 36.183594 26.796875 L 36.207031 26.792969 L 36.230469 26.78125 L 36.253906 26.773438 L 36.269531 26.757812 L 36.289062 26.75 L 36.3125 26.726562 L 36.316406 26.710938 L 36.324219 26.6875 L 36.324219 26.667969 L 36.335938 26.652344 L 36.335938 26.621094 L 36.324219 26.601562 L 36.324219 26.574219 L 36.316406 26.554688 L 36.3125 26.527344 L 36.300781 26.507812 L 36.289062 26.480469 L 36.269531 26.460938 L 36.253906 26.433594 L 36.230469 26.414062 L 36.214844 26.394531 L 36.191406 26.371094 L 36.160156 26.359375 L 36.136719 26.339844 L 36.105469 26.335938 L 36.082031 26.320312 L 36.050781 26.308594 L 36.027344 26.300781 L 35.917969 26.300781 L 35.878906 26.320312 L 35.855469 26.335938 L 35.839844 26.339844 L 35.824219 26.359375 Z M 35.816406 26.371094 " fill-opacity="1" fill-rule="evenodd"/></svg>