<svg xmlns="http://www.w3.org/2000/svg" xmlns:xlink="http://www.w3.org/1999/xlink" width="125" zoomAndPan="magnify" viewBox="0 0 93.75 93.749997" height="125" preserveAspectRatio="xMidYMid meet" version="1.0"><defs><g/><clipPath id="id1"><path d="M 30 29 L 48 29 L 48 50.546875 L 30 50.546875 Z M 30 29 " clip-rule="nonzero"/></clipPath><clipPath id="id2"><path d="M 35 32 L 48 32 L 48 50.546875 L 35 50.546875 Z M 35 32 " clip-rule="nonzero"/></clipPath><clipPath id="id3"><path d="M 24.144531 24.296875 L 44 24.296875 L 44 31 L 24.144531 31 Z M 24.144531 24.296875 " clip-rule="nonzero"/></clipPath><clipPath id="id4"><path d="M 44 26 L 52.644531 26 L 52.644531 50 L 44 50 Z M 44 26 " clip-rule="nonzero"/></clipPath><clipPath id="id5"><path d="M 34 49 L 35 49 L 35 50.546875 L 34 50.546875 Z M 34 49 " clip-rule="nonzero"/></clipPath><clipPath id="id6"><path d="M 34 26 L 52 26 L 52 47.917969 L 34 47.917969 Z M 34 26 " clip-rule="nonzero"/></clipPath><clipPath id="id7"><path d="M 39 30 L 52 30 L 52 47.917969 L 39 47.917969 Z M 39 30 " clip-rule="nonzero"/></clipPath><clipPath id="id8"><path d="M 28.300781 21.667969 L 48 21.667969 L 48 28 L 28.300781 28 Z M 28.300781 21.667969 " clip-rule="nonzero"/></clipPath><clipPath id="id9"><path d="M 48 23 L 56.800781 23 L 56.800781 47 L 48 47 Z M 48 23 " clip-rule="nonzero"/></clipPath><clipPath id="id10"><path d="M 38 46 L 40 46 L 40 47.917969 L 38 47.917969 Z M 38 46 " clip-rule="nonzero"/></clipPath></defs><path fill="#427638" d="M 41.164062 32.824219 C 40.964844 32.746094 40.808594 32.589844 40.722656 32.382812 C 40.625 32.132812 40.636719 31.816406 40.761719 31.546875 C 40.96875 31.105469 41.339844 30.847656 41.671875 30.625 C 41.898438 30.46875 42.113281 30.320312 42.230469 30.144531 C 42.40625 29.855469 42.367188 29.453125 42.328125 28.988281 C 42.296875 28.632812 42.261719 28.261719 42.320312 27.875 C 42.429688 27.160156 42.886719 26.496094 43.542969 26.085938 C 44.113281 25.726562 44.832031 25.566406 45.566406 25.621094 C 46.746094 25.703125 47.828125 26.363281 48.390625 27.324219 C 48.675781 27.8125 48.816406 28.347656 48.953125 28.855469 C 49.03125 29.152344 49.109375 29.4375 49.210938 29.703125 C 49.425781 30.273438 49.898438 30.871094 50.445312 30.832031 L 50.507812 31.839844 C 49.378906 31.910156 48.597656 30.925781 48.265625 30.058594 C 48.152344 29.742188 48.066406 29.421875 47.980469 29.113281 C 47.859375 28.648438 47.742188 28.207031 47.527344 27.835938 C 47.125 27.152344 46.351562 26.695312 45.496094 26.625 C 44.96875 26.585938 44.46875 26.695312 44.074219 26.945312 C 43.664062 27.199219 43.386719 27.601562 43.316406 28.027344 C 43.28125 28.285156 43.300781 28.578125 43.332031 28.886719 C 43.386719 29.453125 43.449219 30.105469 43.078125 30.679688 C 42.855469 31.027344 42.53125 31.25 42.246094 31.445312 C 41.988281 31.621094 41.765625 31.777344 41.671875 31.972656 C 41.664062 31.988281 41.664062 32.011719 41.664062 32.019531 C 41.664062 31.988281 41.621094 31.902344 41.527344 31.871094 Z M 41.164062 32.824219 " fill-opacity="1" fill-rule="nonzero"/><g clip-path="url(#id1)"><path fill="#fbde1b" d="M 40.761719 29.726562 C 39.347656 30.089844 37.929688 30.453125 36.601562 31.058594 C 35.472656 31.570312 34.421875 32.242188 33.417969 32.972656 C 32.886719 33.351562 32.351562 33.761719 32 34.304688 C 31.71875 34.722656 31.558594 35.210938 31.410156 35.691406 C 30.910156 37.316406 30.515625 38.988281 30.523438 40.695312 C 30.53125 42.398438 30.957031 44.132812 31.960938 45.496094 C 32.398438 46.09375 32.949219 46.628906 33.265625 47.300781 C 33.511719 47.84375 33.597656 48.441406 33.789062 49.007812 C 33.984375 49.570312 34.34375 50.121094 34.910156 50.308594 C 35.605469 50.53125 36.316406 50.128906 37 49.882812 C 38.777344 49.246094 40.816406 49.664062 42.570312 48.945312 C 44.28125 48.238281 45.410156 46.574219 46.207031 44.894531 C 47.039062 43.109375 47.617188 41.191406 47.71875 39.222656 C 47.820312 37.253906 47.402344 35.242188 46.382812 33.558594 C 46.058594 33.03125 45.6875 32.542969 45.308594 32.058594 C 44.941406 31.570312 44.546875 31.074219 44.003906 30.785156 C 43.734375 30.640625 43.441406 30.554688 43.179688 30.390625 C 42.753906 30.128906 42.792969 29.695312 42.289062 29.578125 C 41.789062 29.445312 41.234375 29.601562 40.761719 29.726562 Z M 40.761719 29.726562 " fill-opacity="1" fill-rule="nonzero"/></g><g clip-path="url(#id2)"><path fill="#ecb81d" d="M 47 34.503906 C 48.011719 36.417969 47.765625 38.726562 47.496094 40.871094 C 47.410156 41.546875 47.324219 42.226562 47.15625 42.894531 C 46.761719 44.453125 45.933594 45.859375 45.015625 47.171875 C 44.753906 47.542969 44.484375 47.914062 44.136719 48.207031 C 43.789062 48.503906 43.378906 48.71875 42.960938 48.898438 C 41.957031 49.324219 40.871094 49.570312 39.78125 49.609375 C 39.054688 49.640625 38.3125 49.578125 37.605469 49.71875 C 36.980469 49.84375 36.398438 50.121094 35.773438 50.269531 C 35.671875 50.292969 35.574219 50.308594 35.480469 50.269531 C 35.320312 50.199219 35.28125 49.972656 35.347656 49.8125 C 35.417969 49.648438 35.574219 49.539062 35.71875 49.449219 C 37.363281 48.355469 39.363281 47.875 40.96875 46.730469 C 41.503906 46.347656 41.988281 45.890625 42.46875 45.441406 C 42.878906 45.054688 43.300781 44.660156 43.542969 44.148438 C 43.671875 43.863281 43.75 43.546875 43.8125 43.234375 C 44.042969 42.167969 44.230469 41.082031 44.585938 40.042969 C 44.746094 39.570312 44.945312 39.105469 45.078125 38.617188 C 45.464844 37.222656 45.324219 35.757812 45.339844 34.335938 C 45.347656 33.929688 45.234375 32.558594 45.75 32.785156 C 46.222656 33.007812 46.777344 34.070312 47 34.503906 Z M 47 34.503906 " fill-opacity="1" fill-rule="nonzero"/></g><path fill="#f7e5ba" d="M 34.308594 32.800781 C 34.003906 32.917969 33.6875 33.046875 33.464844 33.289062 C 33.203125 33.574219 33.109375 33.96875 32.957031 34.335938 C 32.65625 35.03125 32.089844 35.660156 32.121094 36.410156 C 32.671875 36.132812 33.148438 35.722656 33.527344 35.234375 C 33.84375 34.816406 34.082031 34.34375 34.390625 33.914062 C 34.730469 33.445312 35.171875 33.046875 35.660156 32.738281 C 35.992188 32.527344 36.753906 32.375 36.894531 31.988281 C 36.027344 32.085938 35.117188 32.492188 34.308594 32.800781 Z M 34.308594 32.800781 " fill-opacity="1" fill-rule="nonzero"/><g clip-path="url(#id3)"><path fill="#427638" d="M 41.71875 25.84375 C 41.117188 25.636719 40.570312 25.277344 39.945312 25.140625 C 39.511719 25.039062 39.0625 25.046875 38.632812 24.960938 C 38.277344 24.890625 37.9375 24.765625 37.589844 24.675781 C 37.039062 24.527344 36.476562 24.457031 35.914062 24.417969 C 34.324219 24.308594 32.722656 24.441406 31.171875 24.820312 C 30.585938 24.960938 30.007812 25.140625 29.472656 25.433594 C 28.578125 25.914062 27.875 26.703125 26.988281 27.214844 C 26.546875 27.472656 26.058594 27.648438 25.628906 27.929688 C 25.050781 28.300781 24.59375 28.828125 24.144531 29.34375 C 25.425781 29.570312 26.710938 29.792969 27.992188 30.027344 C 28.300781 30.082031 28.625 30.136719 28.933594 30.089844 C 29.320312 30.027344 29.660156 29.824219 30.015625 29.65625 C 31.109375 29.136719 32.347656 29.003906 33.449219 28.523438 C 33.976562 28.300781 34.460938 27.996094 34.988281 27.789062 C 35.363281 27.640625 35.75 27.539062 36.144531 27.449219 C 36.570312 27.339844 36.992188 27.238281 37.433594 27.214844 C 37.765625 27.199219 38.105469 27.230469 38.429688 27.308594 C 38.683594 27.371094 38.933594 27.464844 39.195312 27.507812 C 39.441406 27.546875 39.6875 27.539062 39.9375 27.53125 C 40.992188 27.5 42.296875 27.546875 43.285156 27.113281 C 44.484375 26.578125 42.089844 25.96875 41.71875 25.84375 Z M 41.71875 25.84375 " fill-opacity="1" fill-rule="nonzero"/></g><g clip-path="url(#id4)"><path fill="#427638" d="M 46.222656 32.335938 C 46.304688 32.902344 46.351562 33.464844 46.4375 34.03125 C 46.539062 34.660156 46.691406 35.28125 46.816406 35.90625 C 47.046875 37.078125 47.1875 38.261719 47.226562 39.445312 C 47.25 40.335938 47.226562 41.238281 47.464844 42.097656 C 47.914062 43.707031 49.210938 44.902344 50.160156 46.273438 C 50.691406 47.039062 51.125 47.882812 51.488281 48.742188 C 51.625 49.074219 51.820312 49.464844 52.175781 49.503906 C 52.644531 48.898438 52.304688 48.03125 52.144531 47.285156 C 52.042969 46.835938 52.011719 46.371094 51.964844 45.90625 C 51.757812 43.5 51.347656 41.105469 50.738281 38.765625 C 50.546875 38.035156 50.335938 37.300781 50.011719 36.621094 C 49.773438 36.117188 49.472656 35.636719 49.253906 35.125 C 49.007812 34.550781 48.871094 33.929688 48.667969 33.34375 C 48.167969 31.839844 47.300781 30.5 46.445312 29.183594 C 45.996094 28.492188 45.550781 27.804688 45.039062 27.152344 C 44.816406 26.867188 44.507812 26.386719 44.160156 26.277344 C 44.042969 26.617188 44.335938 27.050781 44.476562 27.347656 C 44.738281 27.890625 44.992188 28.429688 45.226562 28.988281 C 45.671875 30.066406 46.042969 31.179688 46.222656 32.335938 Z M 46.222656 32.335938 " fill-opacity="1" fill-rule="nonzero"/></g><path fill="#f6ce79" d="M 25.597656 29.035156 C 27.789062 28.207031 30 27.386719 32.277344 26.8125 C 33.402344 26.535156 34.539062 26.308594 35.695312 26.191406 C 36.871094 26.078125 38.050781 26.070312 39.226562 26.167969 C 40.570312 26.285156 41.898438 26.542969 43.210938 26.875 C 43.355469 26.914062 43.417969 26.6875 43.273438 26.648438 C 40.941406 26.054688 38.539062 25.726562 36.136719 25.914062 C 33.796875 26.097656 31.511719 26.703125 29.289062 27.449219 C 28.015625 27.875 26.769531 28.347656 25.535156 28.8125 C 25.394531 28.863281 25.457031 29.089844 25.597656 29.035156 Z M 25.597656 29.035156 " fill-opacity="1" fill-rule="nonzero"/><path fill="#f6ce79" d="M 45.957031 29.214844 C 46.238281 29.71875 46.40625 30.257812 46.578125 30.800781 C 46.753906 31.390625 46.929688 31.972656 47.109375 32.558594 C 47.464844 33.730469 47.820312 34.90625 48.175781 36.078125 C 48.34375 36.644531 48.523438 37.207031 48.722656 37.765625 C 48.921875 38.324219 49.15625 38.867188 49.363281 39.414062 C 49.78125 40.523438 49.996094 41.695312 50.230469 42.855469 C 50.5 44.210938 50.769531 45.558594 51.046875 46.914062 C 51.078125 47.0625 51.300781 47 51.269531 46.851562 C 51.03125 45.644531 50.785156 44.4375 50.546875 43.226562 C 50.3125 42.058594 50.113281 40.863281 49.726562 39.734375 C 49.535156 39.175781 49.300781 38.632812 49.085938 38.082031 C 48.871094 37.527344 48.683594 36.953125 48.507812 36.386719 C 48.144531 35.21875 47.789062 34.039062 47.433594 32.863281 C 47.234375 32.195312 47.03125 31.539062 46.832031 30.871094 C 46.644531 30.265625 46.460938 29.65625 46.152344 29.097656 C 46.082031 28.964844 45.882812 29.082031 45.957031 29.214844 Z M 45.957031 29.214844 " fill-opacity="1" fill-rule="nonzero"/><path fill="#f6ce79" d="M 48.921875 40.144531 C 48.839844 40.878906 48.738281 41.609375 48.636719 42.34375 C 48.621094 42.445312 48.769531 42.484375 48.785156 42.382812 C 48.894531 41.640625 48.992188 40.886719 49.078125 40.144531 C 49.09375 40.042969 48.9375 40.050781 48.921875 40.144531 Z M 48.921875 40.144531 " fill-opacity="1" fill-rule="nonzero"/><path fill="#f6ce79" d="M 49.253906 40.855469 C 49.203125 41.515625 49.140625 42.171875 49.054688 42.832031 C 49.039062 42.933594 49.195312 42.933594 49.210938 42.832031 C 49.285156 42.171875 49.355469 41.515625 49.410156 40.855469 C 49.417969 40.757812 49.261719 40.765625 49.253906 40.855469 Z M 49.253906 40.855469 " fill-opacity="1" fill-rule="nonzero"/><path fill="#f6ce79" d="M 47.742188 36.402344 C 47.582031 37.230469 47.441406 38.066406 47.324219 38.914062 C 47.308594 39.011719 47.464844 39.050781 47.472656 38.953125 C 47.589844 38.105469 47.726562 37.269531 47.890625 36.441406 C 47.90625 36.347656 47.757812 36.308594 47.742188 36.402344 Z M 47.742188 36.402344 " fill-opacity="1" fill-rule="nonzero"/><path fill="#f6ce79" d="M 50.257812 38.859375 C 49.828125 38.292969 49.488281 37.65625 49.261719 36.976562 C 49.234375 36.882812 49.085938 36.921875 49.117188 37.015625 C 49.347656 37.71875 49.703125 38.378906 50.152344 38.964844 C 50.214844 39.050781 50.320312 38.9375 50.257812 38.859375 Z M 50.257812 38.859375 " fill-opacity="1" fill-rule="nonzero"/><path fill="#f6ce79" d="M 30.222656 27.640625 C 29.726562 28.152344 29.550781 28.878906 29.046875 29.375 C 28.980469 29.445312 29.085938 29.554688 29.15625 29.484375 C 29.667969 28.988281 29.835938 28.261719 30.332031 27.75 C 30.398438 27.679688 30.292969 27.570312 30.222656 27.640625 Z M 30.222656 27.640625 " fill-opacity="1" fill-rule="nonzero"/><path fill="#f6ce79" d="M 31.78125 25.945312 C 31.457031 26.136719 31.054688 26.0625 30.699219 26.039062 C 30.277344 26.015625 29.851562 26.007812 29.425781 26.023438 C 29.328125 26.023438 29.328125 26.175781 29.425781 26.175781 C 29.875 26.160156 30.332031 26.167969 30.777344 26.199219 C 31.140625 26.222656 31.535156 26.277344 31.859375 26.085938 C 31.945312 26.03125 31.867188 25.890625 31.78125 25.945312 Z M 31.78125 25.945312 " fill-opacity="1" fill-rule="nonzero"/><path fill="#f6ce79" d="M 33.363281 25.410156 C 32.972656 25.339844 32.5625 25.308594 32.160156 25.324219 C 32.058594 25.324219 32.058594 25.480469 32.160156 25.480469 C 32.546875 25.464844 32.941406 25.488281 33.320312 25.558594 C 33.417969 25.582031 33.464844 25.433594 33.363281 25.410156 Z M 33.363281 25.410156 " fill-opacity="1" fill-rule="nonzero"/><path fill="#f7e5ba" d="M 43.085938 32.296875 C 43.070312 32.09375 43.085938 31.894531 43.132812 31.691406 L 43.511719 31.769531 C 43.480469 31.933594 43.464844 32.101562 43.472656 32.273438 Z M 43.085938 32.296875 " fill-opacity="1" fill-rule="nonzero"/><path fill="#f7e5ba" d="M 43.773438 33.015625 L 43.972656 32.820312 L 44.246094 33.09375 L 44.046875 33.289062 Z M 43.773438 33.015625 " fill-opacity="1" fill-rule="nonzero"/><path fill="#f7e5ba" d="M 44.191406 32.535156 C 44.066406 32.382812 44.011719 32.179688 44.035156 31.988281 L 44.414062 32.042969 C 44.398438 32.125 44.429688 32.21875 44.484375 32.289062 Z M 44.191406 32.535156 " fill-opacity="1" fill-rule="nonzero"/><path fill="#f7e5ba" d="M 41.710938 31.648438 L 41.878906 31.296875 L 42.226562 31.464844 L 42.0625 31.8125 Z M 41.710938 31.648438 " fill-opacity="1" fill-rule="nonzero"/><path fill="#f7e5ba" d="M 42.308594 32.960938 L 42.664062 32.808594 L 42.78125 33.085938 L 42.425781 33.238281 Z M 42.308594 32.960938 " fill-opacity="1" fill-rule="nonzero"/><path fill="#f7e5ba" d="M 40.84375 31.671875 L 40.996094 31.429688 L 41.324219 31.640625 L 41.167969 31.882812 Z M 40.84375 31.671875 " fill-opacity="1" fill-rule="nonzero"/><path fill="#f7e5ba" d="M 42.039062 30.722656 L 42.3125 30.449219 L 42.511719 30.648438 L 42.238281 30.921875 Z M 42.039062 30.722656 " fill-opacity="1" fill-rule="nonzero"/><path fill="#f7e5ba" d="M 44.824219 33.921875 C 44.769531 33.808594 44.738281 33.675781 44.746094 33.550781 L 45.132812 33.558594 C 45.132812 33.628906 45.148438 33.691406 45.171875 33.753906 Z M 44.824219 33.921875 " fill-opacity="1" fill-rule="nonzero"/><path fill="#f7e5ba" d="M 43.238281 31.507812 L 43.40625 31.160156 L 43.644531 31.273438 L 43.476562 31.621094 Z M 43.238281 31.507812 " fill-opacity="1" fill-rule="nonzero"/><path fill="#f7e5ba" d="M 45.765625 34.457031 C 45.617188 34.359375 45.550781 34.171875 45.574219 34 L 45.949219 34.054688 C 45.941406 34.085938 45.964844 34.125 45.988281 34.148438 Z M 45.765625 34.457031 " fill-opacity="1" fill-rule="nonzero"/><path fill="#f7e5ba" d="M 43.980469 34.53125 L 44.234375 34.242188 L 44.507812 34.480469 L 44.253906 34.773438 Z M 43.980469 34.53125 " fill-opacity="1" fill-rule="nonzero"/><path fill="#f7e5ba" d="M 44.777344 32.765625 L 45.007812 32.457031 L 45.171875 32.578125 L 44.9375 32.886719 Z M 44.777344 32.765625 " fill-opacity="1" fill-rule="nonzero"/><path fill="#f7e5ba" d="M 45.285156 35.804688 C 45.210938 35.699219 45.15625 35.566406 45.140625 35.433594 L 45.527344 35.386719 C 45.535156 35.457031 45.558594 35.519531 45.605469 35.582031 Z M 45.285156 35.804688 " fill-opacity="1" fill-rule="nonzero"/><path fill="#f7e5ba" d="M 40.644531 33.515625 L 40.921875 33.320312 L 41.144531 33.632812 L 40.867188 33.832031 Z M 40.644531 33.515625 " fill-opacity="1" fill-rule="nonzero"/><path fill="#f7e5ba" d="M 41.910156 34.71875 L 42.28125 34.601562 L 42.390625 34.957031 L 42.019531 35.070312 Z M 41.910156 34.71875 " fill-opacity="1" fill-rule="nonzero"/><path fill="#f7e5ba" d="M 43.011719 34.796875 L 43.050781 34.519531 L 43.433594 34.574219 L 43.394531 34.851562 Z M 43.011719 34.796875 " fill-opacity="1" fill-rule="nonzero"/><path fill="#f7e5ba" d="M 40.445312 32.667969 L 40.722656 32.546875 L 40.875 32.902344 L 40.597656 33.023438 Z M 40.445312 32.667969 " fill-opacity="1" fill-rule="nonzero"/><path fill="#f7e5ba" d="M 39.5 31.863281 L 39.695312 31.824219 L 39.773438 32.203125 L 39.574219 32.242188 Z M 39.5 31.863281 " fill-opacity="1" fill-rule="nonzero"/><path fill="#f7e5ba" d="M 40.367188 34.785156 L 40.753906 34.785156 L 40.753906 35.023438 L 40.367188 35.023438 Z M 40.367188 34.785156 " fill-opacity="1" fill-rule="nonzero"/><path fill="#f7e5ba" d="M 43.589844 36.273438 L 43.914062 36.0625 L 44.070312 36.304688 L 43.742188 36.515625 Z M 43.589844 36.273438 " fill-opacity="1" fill-rule="nonzero"/><path fill="#f7e5ba" d="M 44.617188 36.378906 L 44.789062 36.035156 L 44.949219 36.113281 L 44.773438 36.460938 Z M 44.617188 36.378906 " fill-opacity="1" fill-rule="nonzero"/><path fill="#f7e5ba" d="M 42.324219 36.109375 L 42.640625 35.949219 L 42.8125 36.296875 L 42.496094 36.457031 Z M 42.324219 36.109375 " fill-opacity="1" fill-rule="nonzero"/><path fill="#f7e5ba" d="M 46.074219 36.023438 C 45.988281 35.867188 45.933594 35.683594 45.929688 35.503906 L 46.3125 35.488281 C 46.320312 35.613281 46.351562 35.730469 46.414062 35.835938 Z M 46.074219 36.023438 " fill-opacity="1" fill-rule="nonzero"/><path fill="#f7e5ba" d="M 45.101562 37.261719 L 45.183594 36.945312 L 45.554688 37.046875 L 45.472656 37.359375 Z M 45.101562 37.261719 " fill-opacity="1" fill-rule="nonzero"/><path fill="#f7e5ba" d="M 46.128906 37.679688 L 46.503906 37.585938 L 46.582031 37.902344 L 46.207031 37.996094 Z M 46.128906 37.679688 " fill-opacity="1" fill-rule="nonzero"/><path fill="#f7e5ba" d="M 45.894531 39.039062 L 46.277344 38.988281 L 46.316406 39.304688 L 45.933594 39.355469 Z M 45.894531 39.039062 " fill-opacity="1" fill-rule="nonzero"/><path fill="#f7e5ba" d="M 44.019531 37.335938 L 44.351562 37.136719 L 44.46875 37.335938 L 44.140625 37.535156 Z M 44.019531 37.335938 " fill-opacity="1" fill-rule="nonzero"/><path fill="#f7e5ba" d="M 45.007812 38.160156 L 45.339844 37.960938 L 45.457031 38.160156 L 45.125 38.359375 Z M 45.007812 38.160156 " fill-opacity="1" fill-rule="nonzero"/><path fill="#f7e5ba" d="M 44.585938 39.957031 L 44.96875 39.957031 L 44.96875 40.199219 L 44.585938 40.199219 Z M 44.585938 39.957031 " fill-opacity="1" fill-rule="nonzero"/><path fill="#f7e5ba" d="M 46.320312 40.277344 L 46.707031 40.277344 L 46.707031 40.554688 L 46.320312 40.554688 Z M 46.320312 40.277344 " fill-opacity="1" fill-rule="nonzero"/><path fill="#f7e5ba" d="M 43.707031 38.796875 L 43.863281 38.523438 L 44.199219 38.714844 L 44.039062 38.992188 Z M 43.707031 38.796875 " fill-opacity="1" fill-rule="nonzero"/><path fill="#f7e5ba" d="M 42.53125 37.753906 L 42.730469 37.59375 L 42.972656 37.898438 L 42.773438 38.058594 Z M 42.53125 37.753906 " fill-opacity="1" fill-rule="nonzero"/><path fill="#f7e5ba" d="M 34.730469 48.820312 L 35.117188 48.820312 L 35.117188 49.097656 L 34.730469 49.097656 Z M 34.730469 48.820312 " fill-opacity="1" fill-rule="nonzero"/><path fill="#f7e5ba" d="M 35.058594 47.667969 L 35.417969 47.523438 L 35.496094 47.71875 L 35.136719 47.863281 Z M 35.058594 47.667969 " fill-opacity="1" fill-rule="nonzero"/><path fill="#f7e5ba" d="M 34.152344 46.625 L 34.425781 46.351562 L 34.582031 46.511719 L 34.3125 46.785156 Z M 34.152344 46.625 " fill-opacity="1" fill-rule="nonzero"/><path fill="#f7e5ba" d="M 34.011719 47.679688 L 34.253906 47.679688 L 34.253906 48.070312 L 34.011719 48.070312 Z M 34.011719 47.679688 " fill-opacity="1" fill-rule="nonzero"/><path fill="#f7e5ba" d="M 35.640625 48.734375 L 35.707031 48.355469 L 35.941406 48.394531 L 35.878906 48.773438 Z M 35.640625 48.734375 " fill-opacity="1" fill-rule="nonzero"/><path fill="#f7e5ba" d="M 37.132812 48.191406 L 37.332031 48.191406 L 37.332031 48.582031 L 37.132812 48.582031 Z M 37.132812 48.191406 " fill-opacity="1" fill-rule="nonzero"/><path fill="#f7e5ba" d="M 35.828125 47.125 L 35.945312 47.125 L 35.945312 47.511719 L 35.828125 47.511719 Z M 35.828125 47.125 " fill-opacity="1" fill-rule="nonzero"/><path fill="#f7e5ba" d="M 32.988281 45.976562 L 33.226562 45.976562 L 33.226562 46.363281 L 32.988281 46.363281 Z M 32.988281 45.976562 " fill-opacity="1" fill-rule="nonzero"/><path fill="#f7e5ba" d="M 36.5 49.105469 L 36.816406 49.105469 L 36.816406 49.496094 L 36.5 49.496094 Z M 36.5 49.105469 " fill-opacity="1" fill-rule="nonzero"/><path fill="#f7e5ba" d="M 36.886719 48.101562 L 36.730469 48.0625 L 36.824219 47.679688 L 36.980469 47.726562 Z M 36.886719 48.101562 " fill-opacity="1" fill-rule="nonzero"/><path fill="#f7e5ba" d="M 39.023438 48.269531 L 39.265625 48.269531 L 39.265625 48.65625 L 39.023438 48.65625 Z M 39.023438 48.269531 " fill-opacity="1" fill-rule="nonzero"/><path fill="#f7e5ba" d="M 37.757812 49.058594 L 37.960938 49.058594 L 37.960938 49.449219 L 37.757812 49.449219 Z M 37.757812 49.058594 " fill-opacity="1" fill-rule="nonzero"/><path fill="#f7e5ba" d="M 38.3125 48.828125 L 38.554688 48.828125 L 38.554688 49.214844 L 38.3125 49.214844 Z M 38.3125 48.828125 " fill-opacity="1" fill-rule="nonzero"/><path fill="#f7e5ba" d="M 40.351562 48.96875 L 40.511719 48.886719 L 40.683594 49.234375 L 40.527344 49.3125 Z M 40.351562 48.96875 " fill-opacity="1" fill-rule="nonzero"/><path fill="#f7e5ba" d="M 39.4375 48.921875 L 39.515625 48.847656 L 39.789062 49.121094 L 39.710938 49.195312 Z M 39.4375 48.921875 " fill-opacity="1" fill-rule="nonzero"/><path fill="#f7e5ba" d="M 38.296875 47.375 L 38.574219 47.292969 L 38.679688 47.667969 L 38.402344 47.746094 Z M 38.296875 47.375 " fill-opacity="1" fill-rule="nonzero"/><path fill="#f7e5ba" d="M 39.773438 47.679688 L 39.890625 47.679688 L 39.890625 48.070312 L 39.773438 48.070312 Z M 39.773438 47.679688 " fill-opacity="1" fill-rule="nonzero"/><path fill="#f7e5ba" d="M 40.992188 48.191406 L 41.273438 48.191406 L 41.273438 48.582031 L 40.992188 48.582031 Z M 40.992188 48.191406 " fill-opacity="1" fill-rule="nonzero"/><path fill="#f7e5ba" d="M 37.136719 47.390625 L 37.199219 47.007812 L 37.4375 47.046875 L 37.375 47.429688 Z M 37.136719 47.390625 " fill-opacity="1" fill-rule="nonzero"/><path fill="#f7e5ba" d="M 37.511719 46.253906 L 37.941406 46.214844 L 37.976562 46.601562 L 37.542969 46.640625 Z M 37.511719 46.253906 " fill-opacity="1" fill-rule="nonzero"/><path fill="#f7e5ba" d="M 36.300781 46.257812 L 36.578125 46.257812 L 36.578125 46.644531 L 36.300781 46.644531 Z M 36.300781 46.257812 " fill-opacity="1" fill-rule="nonzero"/><path fill="#f7e5ba" d="M 39.121094 46.582031 L 39.472656 46.464844 L 39.59375 46.832031 L 39.242188 46.949219 Z M 39.121094 46.582031 " fill-opacity="1" fill-rule="nonzero"/><path fill="#f7e5ba" d="M 40.566406 47.46875 L 40.855469 47.417969 L 40.925781 47.800781 L 40.636719 47.851562 Z M 40.566406 47.46875 " fill-opacity="1" fill-rule="nonzero"/><path fill="#f7e5ba" d="M 42.019531 48.152344 C 41.914062 48.09375 41.820312 48 41.75 47.890625 L 42.074219 47.6875 C 42.105469 47.742188 42.152344 47.789062 42.207031 47.820312 Z M 42.019531 48.152344 " fill-opacity="1" fill-rule="nonzero"/><path fill="#f7e5ba" d="M 42.3125 48.777344 L 42.363281 48.394531 L 42.570312 48.421875 L 42.519531 48.804688 Z M 42.3125 48.777344 " fill-opacity="1" fill-rule="nonzero"/><path fill="#f7e5ba" d="M 40.792969 47.039062 C 40.675781 47.015625 40.5625 46.96875 40.460938 46.898438 L 40.675781 46.582031 C 40.730469 46.621094 40.800781 46.652344 40.871094 46.660156 Z M 40.792969 47.039062 " fill-opacity="1" fill-rule="nonzero"/><path fill="#f7e5ba" d="M 41.574219 47.023438 L 41.726562 47.023438 L 41.726562 47.410156 L 41.574219 47.410156 Z M 41.574219 47.023438 " fill-opacity="1" fill-rule="nonzero"/><path fill="#f7e5ba" d="M 35.3125 46.542969 C 35.28125 46.441406 35.257812 46.339844 35.257812 46.242188 L 35.644531 46.242188 C 35.644531 46.300781 35.652344 46.363281 35.671875 46.417969 Z M 35.3125 46.542969 " fill-opacity="1" fill-rule="nonzero"/><path fill="#f7e5ba" d="M 36.574219 45.441406 L 36.90625 45.242188 L 36.984375 45.375 L 36.652344 45.574219 Z M 36.574219 45.441406 " fill-opacity="1" fill-rule="nonzero"/><path fill="#f7e5ba" d="M 38.371094 46.152344 L 38.667969 45.90625 L 38.820312 46.089844 L 38.527344 46.335938 Z M 38.371094 46.152344 " fill-opacity="1" fill-rule="nonzero"/><path fill="#f7e5ba" d="M 40.121094 46.449219 C 40.019531 46.378906 39.953125 46.273438 39.914062 46.15625 L 40.285156 46.054688 C 40.292969 46.085938 40.3125 46.117188 40.335938 46.132812 Z M 40.121094 46.449219 " fill-opacity="1" fill-rule="nonzero"/><path fill="#f7e5ba" d="M 42.375 47.339844 L 42.667969 47.085938 L 42.824219 47.269531 L 42.53125 47.523438 Z M 42.375 47.339844 " fill-opacity="1" fill-rule="nonzero"/><path fill="#f7e5ba" d="M 43.03125 48.226562 L 43.222656 47.886719 L 43.402344 47.992188 L 43.210938 48.328125 Z M 43.03125 48.226562 " fill-opacity="1" fill-rule="nonzero"/><path fill="#f7e5ba" d="M 34.210938 49.363281 L 34.523438 49.128906 L 34.601562 49.234375 L 34.292969 49.46875 Z M 34.210938 49.363281 " fill-opacity="1" fill-rule="nonzero"/><g clip-path="url(#id5)"><path fill="#f7e5ba" d="M 34.585938 49.960938 L 34.683594 49.585938 L 34.894531 49.640625 L 34.796875 50.015625 Z M 34.585938 49.960938 " fill-opacity="1" fill-rule="nonzero"/></g><path fill="#f7e5ba" d="M 42.792969 46.621094 L 42.722656 46.300781 C 42.816406 46.289062 42.910156 46.300781 42.984375 46.363281 C 43.0625 46.417969 43.109375 46.503906 43.117188 46.597656 Z M 42.792969 46.621094 " fill-opacity="1" fill-rule="nonzero"/><path fill="#f7e5ba" d="M 43.148438 47.296875 L 43.332031 46.953125 L 43.488281 47.039062 L 43.304688 47.378906 Z M 43.148438 47.296875 " fill-opacity="1" fill-rule="nonzero"/><path fill="#f7e5ba" d="M 41.554688 46.398438 L 41.699219 46.035156 L 41.898438 46.117188 L 41.753906 46.476562 Z M 41.554688 46.398438 " fill-opacity="1" fill-rule="nonzero"/><path fill="#f7e5ba" d="M 40.695312 45.84375 L 40.816406 45.476562 L 41.167969 45.59375 L 41.046875 45.960938 Z M 40.695312 45.84375 " fill-opacity="1" fill-rule="nonzero"/><path fill="#427638" d="M 45.316406 30.195312 C 45.117188 30.121094 44.960938 29.964844 44.878906 29.753906 C 44.777344 29.507812 44.792969 29.191406 44.914062 28.917969 C 45.125 28.476562 45.496094 28.222656 45.828125 27.996094 C 46.050781 27.839844 46.265625 27.695312 46.382812 27.515625 C 46.558594 27.230469 46.523438 26.828125 46.484375 26.363281 C 46.453125 26.003906 46.414062 25.632812 46.476562 25.246094 C 46.582031 24.535156 47.039062 23.867188 47.695312 23.457031 C 48.265625 23.101562 48.984375 22.9375 49.71875 22.992188 C 50.898438 23.078125 51.980469 23.734375 52.542969 24.695312 C 52.832031 25.183594 52.96875 25.71875 53.109375 26.230469 C 53.183594 26.523438 53.261719 26.8125 53.363281 27.074219 C 53.578125 27.648438 54.050781 28.246094 54.597656 28.207031 L 54.660156 29.214844 C 53.53125 29.28125 52.753906 28.296875 52.421875 27.429688 C 52.304688 27.113281 52.21875 26.796875 52.136719 26.484375 C 52.011719 26.019531 51.894531 25.578125 51.679688 25.207031 C 51.277344 24.527344 50.507812 24.070312 49.648438 24 C 49.125 23.960938 48.621094 24.070312 48.226562 24.316406 C 47.820312 24.574219 47.539062 24.976562 47.472656 25.402344 C 47.433594 25.65625 47.457031 25.953125 47.488281 26.261719 C 47.539062 26.828125 47.601562 27.476562 47.230469 28.050781 C 47.007812 28.398438 46.683594 28.625 46.398438 28.816406 C 46.144531 28.996094 45.917969 29.152344 45.828125 29.34375 C 45.820312 29.359375 45.820312 29.382812 45.820312 29.390625 C 45.820312 29.359375 45.773438 29.273438 45.679688 29.242188 Z M 45.316406 30.195312 " fill-opacity="1" fill-rule="nonzero"/><g clip-path="url(#id6)"><path fill="#fbde1b" d="M 44.914062 27.097656 C 43.503906 27.460938 42.082031 27.828125 40.753906 28.429688 C 39.625 28.941406 38.578125 29.617188 37.574219 30.34375 C 37.039062 30.722656 36.507812 31.132812 36.152344 31.675781 C 35.875 32.09375 35.710938 32.582031 35.566406 33.0625 C 35.0625 34.691406 34.667969 36.363281 34.675781 38.066406 C 34.683594 39.773438 35.109375 41.507812 36.113281 42.871094 C 36.554688 43.464844 37.101562 44 37.417969 44.675781 C 37.664062 45.21875 37.75 45.8125 37.941406 46.378906 C 38.136719 46.945312 38.5 47.496094 39.0625 47.679688 C 39.757812 47.90625 40.46875 47.503906 41.15625 47.253906 C 42.929688 46.621094 44.96875 47.039062 46.722656 46.316406 C 48.4375 45.613281 49.5625 43.945312 50.359375 42.265625 C 51.191406 40.484375 51.773438 38.5625 51.871094 36.59375 C 51.972656 34.628906 51.554688 32.613281 50.535156 30.933594 C 50.210938 30.40625 49.84375 29.917969 49.464844 29.429688 C 49.09375 28.941406 48.699219 28.445312 48.160156 28.160156 C 47.886719 28.011719 47.59375 27.925781 47.332031 27.765625 C 46.90625 27.5 46.945312 27.066406 46.445312 26.949219 C 45.941406 26.820312 45.386719 26.972656 44.914062 27.097656 Z M 44.914062 27.097656 " fill-opacity="1" fill-rule="nonzero"/></g><g clip-path="url(#id7)"><path fill="#ecb81d" d="M 51.15625 31.878906 C 52.167969 33.792969 51.917969 36.101562 51.648438 38.246094 C 51.5625 38.917969 51.480469 39.601562 51.308594 40.265625 C 50.914062 41.824219 50.089844 43.234375 49.171875 44.542969 C 48.90625 44.914062 48.636719 45.289062 48.289062 45.582031 C 47.941406 45.875 47.535156 46.09375 47.117188 46.269531 C 46.113281 46.695312 45.023438 46.945312 43.933594 46.984375 C 43.210938 47.015625 42.46875 46.953125 41.757812 47.09375 C 41.132812 47.214844 40.554688 47.496094 39.925781 47.640625 C 39.828125 47.664062 39.726562 47.679688 39.632812 47.640625 C 39.472656 47.574219 39.433594 47.347656 39.503906 47.183594 C 39.574219 47.023438 39.726562 46.914062 39.875 46.820312 C 41.519531 45.730469 43.519531 45.25 45.125 44.101562 C 45.65625 43.722656 46.144531 43.265625 46.621094 42.816406 C 47.03125 42.429688 47.457031 42.035156 47.695312 41.523438 C 47.828125 41.234375 47.902344 40.917969 47.964844 40.609375 C 48.199219 39.539062 48.382812 38.453125 48.738281 37.417969 C 48.898438 36.945312 49.101562 36.480469 49.230469 35.992188 C 49.617188 34.597656 49.480469 33.132812 49.496094 31.707031 C 49.503906 31.304688 49.386719 29.933594 49.902344 30.15625 C 50.375 30.382812 50.929688 31.445312 51.15625 31.878906 Z M 51.15625 31.878906 " fill-opacity="1" fill-rule="nonzero"/></g><path fill="#f7e5ba" d="M 38.460938 30.171875 C 38.160156 30.289062 37.84375 30.421875 37.617188 30.660156 C 37.355469 30.949219 37.265625 31.34375 37.109375 31.707031 C 36.808594 32.40625 36.246094 33.03125 36.273438 33.785156 C 36.824219 33.503906 37.300781 33.09375 37.679688 32.605469 C 37.996094 32.1875 38.238281 31.714844 38.546875 31.289062 C 38.886719 30.816406 39.324219 30.421875 39.8125 30.113281 C 40.144531 29.902344 40.910156 29.746094 41.046875 29.359375 C 40.183594 29.460938 39.269531 29.863281 38.460938 30.171875 Z M 38.460938 30.171875 " fill-opacity="1" fill-rule="nonzero"/><g clip-path="url(#id8)"><path fill="#427638" d="M 45.875 23.21875 C 45.269531 23.007812 44.722656 22.652344 44.097656 22.511719 C 43.664062 22.410156 43.21875 22.417969 42.785156 22.332031 C 42.429688 22.265625 42.089844 22.140625 41.742188 22.046875 C 41.195312 21.898438 40.628906 21.832031 40.066406 21.792969 C 38.476562 21.683594 36.878906 21.816406 35.324219 22.195312 C 34.738281 22.332031 34.160156 22.511719 33.625 22.804688 C 32.730469 23.285156 32.027344 24.078125 31.140625 24.589844 C 30.699219 24.84375 30.214844 25.023438 29.78125 25.300781 C 29.203125 25.671875 28.746094 26.199219 28.300781 26.71875 C 29.582031 26.941406 30.863281 27.167969 32.144531 27.398438 C 32.453125 27.453125 32.777344 27.507812 33.085938 27.460938 C 33.472656 27.398438 33.8125 27.199219 34.167969 27.027344 C 35.265625 26.507812 36.5 26.378906 37.601562 25.898438 C 38.128906 25.671875 38.613281 25.371094 39.140625 25.160156 C 39.519531 25.015625 39.90625 24.914062 40.296875 24.820312 C 40.722656 24.710938 41.148438 24.613281 41.585938 24.589844 C 41.917969 24.574219 42.257812 24.605469 42.582031 24.679688 C 42.839844 24.742188 43.085938 24.835938 43.347656 24.882812 C 43.59375 24.921875 43.84375 24.914062 44.089844 24.90625 C 45.148438 24.875 46.453125 24.921875 47.441406 24.488281 C 48.636719 23.953125 46.242188 23.339844 45.875 23.21875 Z M 45.875 23.21875 " fill-opacity="1" fill-rule="nonzero"/></g><g clip-path="url(#id9)"><path fill="#427638" d="M 50.375 29.707031 C 50.460938 30.273438 50.507812 30.839844 50.589844 31.40625 C 50.691406 32.03125 50.847656 32.652344 50.96875 33.28125 C 51.199219 34.449219 51.339844 35.636719 51.378906 36.820312 C 51.402344 37.710938 51.378906 38.609375 51.617188 39.46875 C 52.066406 41.082031 53.363281 42.273438 54.3125 43.644531 C 54.84375 44.410156 55.277344 45.257812 55.640625 46.117188 C 55.78125 46.449219 55.972656 46.835938 56.328125 46.875 C 56.800781 46.269531 56.460938 45.402344 56.296875 44.660156 C 56.195312 44.210938 56.164062 43.746094 56.121094 43.28125 C 55.910156 40.871094 55.5 38.476562 54.890625 36.136719 C 54.699219 35.410156 54.492188 34.675781 54.167969 33.992188 C 53.925781 33.488281 53.625 33.007812 53.410156 32.496094 C 53.164062 31.925781 53.023438 31.304688 52.824219 30.714844 C 52.320312 29.214844 51.457031 27.871094 50.597656 26.554688 C 50.152344 25.867188 49.703125 25.175781 49.195312 24.527344 C 48.96875 24.238281 48.660156 23.757812 48.3125 23.652344 C 48.199219 23.992188 48.492188 24.425781 48.628906 24.71875 C 48.890625 25.261719 49.148438 25.804688 49.378906 26.363281 C 49.828125 27.4375 50.195312 28.554688 50.375 29.707031 Z M 50.375 29.707031 " fill-opacity="1" fill-rule="nonzero"/></g><path fill="#f6ce79" d="M 29.75 26.410156 C 31.945312 25.578125 34.152344 24.757812 36.429688 24.183594 C 37.558594 23.90625 38.691406 23.683594 39.851562 23.566406 C 41.023438 23.449219 42.207031 23.441406 43.378906 23.542969 C 44.722656 23.660156 46.050781 23.914062 47.363281 24.246094 C 47.511719 24.285156 47.570312 24.0625 47.425781 24.023438 C 45.09375 23.425781 42.691406 23.101562 40.289062 23.285156 C 37.949219 23.472656 35.664062 24.078125 33.441406 24.820312 C 32.167969 25.246094 30.925781 25.71875 29.6875 26.183594 C 29.550781 26.238281 29.613281 26.460938 29.75 26.410156 Z M 29.75 26.410156 " fill-opacity="1" fill-rule="nonzero"/><path fill="#f6ce79" d="M 50.113281 26.585938 C 50.390625 27.089844 50.558594 27.632812 50.730469 28.175781 C 50.90625 28.761719 51.085938 29.34375 51.261719 29.933594 C 51.617188 31.101562 51.972656 32.28125 52.328125 33.449219 C 52.5 34.015625 52.675781 34.582031 52.875 35.140625 C 53.078125 35.695312 53.308594 36.238281 53.515625 36.789062 C 53.933594 37.898438 54.152344 39.066406 54.382812 40.230469 C 54.652344 41.585938 54.921875 42.933594 55.199219 44.289062 C 55.230469 44.433594 55.457031 44.371094 55.425781 44.226562 C 55.183594 43.015625 54.9375 41.808594 54.699219 40.601562 C 54.46875 39.429688 54.265625 38.238281 53.878906 37.105469 C 53.6875 36.550781 53.457031 36.007812 53.238281 35.457031 C 53.023438 34.898438 52.839844 34.324219 52.660156 33.761719 C 52.296875 32.589844 51.941406 31.414062 51.585938 30.234375 C 51.386719 29.570312 51.1875 28.910156 50.984375 28.246094 C 50.800781 27.640625 50.613281 27.027344 50.304688 26.46875 C 50.234375 26.339844 50.035156 26.457031 50.113281 26.585938 Z M 50.113281 26.585938 " fill-opacity="1" fill-rule="nonzero"/><path fill="#f6ce79" d="M 53.078125 37.515625 C 52.992188 38.253906 52.890625 38.980469 52.792969 39.71875 C 52.777344 39.816406 52.921875 39.855469 52.9375 39.757812 C 53.046875 39.011719 53.148438 38.261719 53.230469 37.515625 C 53.246094 37.417969 53.09375 37.425781 53.078125 37.515625 Z M 53.078125 37.515625 " fill-opacity="1" fill-rule="nonzero"/><path fill="#f6ce79" d="M 53.410156 38.230469 C 53.355469 38.886719 53.292969 39.546875 53.207031 40.207031 C 53.191406 40.304688 53.347656 40.304688 53.363281 40.207031 C 53.441406 39.546875 53.507812 38.886719 53.5625 38.230469 C 53.570312 38.128906 53.417969 38.136719 53.410156 38.230469 Z M 53.410156 38.230469 " fill-opacity="1" fill-rule="nonzero"/><path fill="#f6ce79" d="M 51.894531 33.777344 C 51.734375 34.605469 51.59375 35.441406 51.480469 36.285156 C 51.464844 36.386719 51.617188 36.425781 51.625 36.324219 C 51.742188 35.480469 51.878906 34.644531 52.042969 33.8125 C 52.058594 33.722656 51.910156 33.683594 51.894531 33.777344 Z M 51.894531 33.777344 " fill-opacity="1" fill-rule="nonzero"/><path fill="#f6ce79" d="M 54.414062 36.230469 C 53.980469 35.664062 53.640625 35.03125 53.417969 34.347656 C 53.386719 34.257812 53.238281 34.292969 53.269531 34.386719 C 53.503906 35.09375 53.855469 35.75 54.304688 36.339844 C 54.367188 36.425781 54.476562 36.308594 54.414062 36.230469 Z M 54.414062 36.230469 " fill-opacity="1" fill-rule="nonzero"/><path fill="#f6ce79" d="M 34.375 25.015625 C 33.882812 25.527344 33.703125 26.253906 33.203125 26.75 C 33.132812 26.820312 33.242188 26.925781 33.308594 26.859375 C 33.820312 26.363281 33.988281 25.632812 34.484375 25.121094 C 34.554688 25.054688 34.445312 24.945312 34.375 25.015625 Z M 34.375 25.015625 " fill-opacity="1" fill-rule="nonzero"/><path fill="#f6ce79" d="M 35.9375 23.316406 C 35.609375 23.511719 35.210938 23.433594 34.855469 23.410156 C 34.429688 23.386719 34.003906 23.378906 33.582031 23.394531 C 33.480469 23.394531 33.480469 23.550781 33.582031 23.550781 C 34.027344 23.535156 34.484375 23.542969 34.933594 23.574219 C 35.292969 23.597656 35.6875 23.652344 36.011719 23.457031 C 36.097656 23.402344 36.019531 23.261719 35.9375 23.316406 Z M 35.9375 23.316406 " fill-opacity="1" fill-rule="nonzero"/><path fill="#f6ce79" d="M 37.519531 22.785156 C 37.125 22.714844 36.714844 22.683594 36.3125 22.699219 C 36.214844 22.699219 36.214844 22.851562 36.3125 22.851562 C 36.699219 22.835938 37.09375 22.859375 37.472656 22.929688 C 37.574219 22.953125 37.617188 22.804688 37.519531 22.785156 Z M 37.519531 22.785156 " fill-opacity="1" fill-rule="nonzero"/><path fill="#f7e5ba" d="M 47.238281 29.671875 C 47.222656 29.46875 47.238281 29.265625 47.285156 29.066406 L 47.664062 29.144531 C 47.632812 29.304688 47.617188 29.476562 47.625 29.648438 Z M 47.238281 29.671875 " fill-opacity="1" fill-rule="nonzero"/><path fill="#f7e5ba" d="M 47.929688 30.390625 L 48.125 30.191406 L 48.398438 30.464844 L 48.203125 30.664062 Z M 47.929688 30.390625 " fill-opacity="1" fill-rule="nonzero"/><path fill="#f7e5ba" d="M 48.34375 29.910156 C 48.21875 29.753906 48.167969 29.554688 48.191406 29.359375 L 48.566406 29.414062 C 48.550781 29.5 48.582031 29.59375 48.636719 29.664062 Z M 48.34375 29.910156 " fill-opacity="1" fill-rule="nonzero"/><path fill="#f7e5ba" d="M 45.867188 29.019531 L 46.03125 28.671875 L 46.378906 28.835938 L 46.214844 29.1875 Z M 45.867188 29.019531 " fill-opacity="1" fill-rule="nonzero"/><path fill="#f7e5ba" d="M 46.460938 30.332031 L 46.816406 30.179688 L 46.9375 30.457031 L 46.582031 30.609375 Z M 46.460938 30.332031 " fill-opacity="1" fill-rule="nonzero"/><path fill="#f7e5ba" d="M 44.996094 29.046875 L 45.152344 28.804688 L 45.476562 29.011719 L 45.320312 29.253906 Z M 44.996094 29.046875 " fill-opacity="1" fill-rule="nonzero"/><path fill="#f7e5ba" d="M 46.195312 28.097656 L 46.46875 27.824219 L 46.664062 28.019531 L 46.390625 28.292969 Z M 46.195312 28.097656 " fill-opacity="1" fill-rule="nonzero"/><path fill="#f7e5ba" d="M 48.976562 31.296875 C 48.921875 31.179688 48.890625 31.050781 48.898438 30.925781 L 49.285156 30.933594 C 49.285156 31.003906 49.300781 31.0625 49.324219 31.125 Z M 48.976562 31.296875 " fill-opacity="1" fill-rule="nonzero"/><path fill="#f7e5ba" d="M 47.394531 28.882812 L 47.558594 28.53125 L 47.796875 28.644531 L 47.628906 28.996094 Z M 47.394531 28.882812 " fill-opacity="1" fill-rule="nonzero"/><path fill="#f7e5ba" d="M 49.917969 31.832031 C 49.773438 31.730469 49.703125 31.542969 49.726562 31.375 L 50.105469 31.429688 C 50.097656 31.460938 50.121094 31.5 50.144531 31.519531 Z M 49.917969 31.832031 " fill-opacity="1" fill-rule="nonzero"/><path fill="#f7e5ba" d="M 48.136719 31.90625 L 48.390625 31.613281 L 48.664062 31.851562 L 48.40625 32.144531 Z M 48.136719 31.90625 " fill-opacity="1" fill-rule="nonzero"/><path fill="#f7e5ba" d="M 48.929688 30.140625 L 49.164062 29.828125 L 49.324219 29.949219 L 49.089844 30.261719 Z M 48.929688 30.140625 " fill-opacity="1" fill-rule="nonzero"/><path fill="#f7e5ba" d="M 49.441406 33.179688 C 49.363281 33.070312 49.308594 32.9375 49.292969 32.808594 L 49.679688 32.761719 C 49.6875 32.832031 49.710938 32.890625 49.757812 32.953125 Z M 49.441406 33.179688 " fill-opacity="1" fill-rule="nonzero"/><path fill="#f7e5ba" d="M 44.796875 30.890625 L 45.074219 30.691406 L 45.296875 31.007812 L 45.023438 31.207031 Z M 44.796875 30.890625 " fill-opacity="1" fill-rule="nonzero"/><path fill="#f7e5ba" d="M 46.066406 32.089844 L 46.433594 31.976562 L 46.542969 32.332031 L 46.175781 32.445312 Z M 46.066406 32.089844 " fill-opacity="1" fill-rule="nonzero"/><path fill="#f7e5ba" d="M 47.164062 32.167969 L 47.203125 31.890625 L 47.585938 31.945312 L 47.546875 32.222656 Z M 47.164062 32.167969 " fill-opacity="1" fill-rule="nonzero"/><path fill="#f7e5ba" d="M 44.597656 30.039062 L 44.875 29.921875 L 45.027344 30.277344 L 44.75 30.394531 Z M 44.597656 30.039062 " fill-opacity="1" fill-rule="nonzero"/><path fill="#f7e5ba" d="M 43.652344 29.234375 L 43.847656 29.195312 L 43.925781 29.578125 L 43.726562 29.617188 Z M 43.652344 29.234375 " fill-opacity="1" fill-rule="nonzero"/><path fill="#f7e5ba" d="M 44.523438 32.15625 L 44.90625 32.15625 L 44.90625 32.398438 L 44.523438 32.398438 Z M 44.523438 32.15625 " fill-opacity="1" fill-rule="nonzero"/><path fill="#f7e5ba" d="M 47.742188 33.644531 L 48.066406 33.4375 L 48.222656 33.675781 L 47.898438 33.886719 Z M 47.742188 33.644531 " fill-opacity="1" fill-rule="nonzero"/><path fill="#f7e5ba" d="M 48.769531 33.753906 L 48.941406 33.40625 L 49.101562 33.488281 L 48.929688 33.832031 Z M 48.769531 33.753906 " fill-opacity="1" fill-rule="nonzero"/><path fill="#f7e5ba" d="M 46.476562 33.480469 L 46.792969 33.324219 L 46.964844 33.667969 L 46.648438 33.828125 Z M 46.476562 33.480469 " fill-opacity="1" fill-rule="nonzero"/><path fill="#f7e5ba" d="M 50.226562 33.394531 C 50.144531 33.242188 50.089844 33.054688 50.082031 32.878906 L 50.46875 32.863281 C 50.476562 32.984375 50.507812 33.101562 50.566406 33.210938 Z M 50.226562 33.394531 " fill-opacity="1" fill-rule="nonzero"/><path fill="#f7e5ba" d="M 49.253906 34.636719 L 49.335938 34.320312 L 49.710938 34.417969 L 49.628906 34.734375 Z M 49.253906 34.636719 " fill-opacity="1" fill-rule="nonzero"/><path fill="#f7e5ba" d="M 50.28125 35.050781 L 50.65625 34.957031 L 50.734375 35.273438 L 50.359375 35.367188 Z M 50.28125 35.050781 " fill-opacity="1" fill-rule="nonzero"/><path fill="#f7e5ba" d="M 50.046875 36.410156 L 50.429688 36.363281 L 50.472656 36.675781 L 50.089844 36.726562 Z M 50.046875 36.410156 " fill-opacity="1" fill-rule="nonzero"/><path fill="#f7e5ba" d="M 48.171875 34.707031 L 48.503906 34.507812 L 48.625 34.707031 L 48.292969 34.90625 Z M 48.171875 34.707031 " fill-opacity="1" fill-rule="nonzero"/><path fill="#f7e5ba" d="M 49.160156 35.535156 L 49.492188 35.335938 L 49.609375 35.535156 L 49.28125 35.734375 Z M 49.160156 35.535156 " fill-opacity="1" fill-rule="nonzero"/><path fill="#f7e5ba" d="M 48.738281 37.332031 L 49.125 37.332031 L 49.125 37.570312 L 48.738281 37.570312 Z M 48.738281 37.332031 " fill-opacity="1" fill-rule="nonzero"/><path fill="#f7e5ba" d="M 50.476562 37.648438 L 50.859375 37.648438 L 50.859375 37.929688 L 50.476562 37.929688 Z M 50.476562 37.648438 " fill-opacity="1" fill-rule="nonzero"/><path fill="#f7e5ba" d="M 47.859375 36.171875 L 48.015625 35.894531 L 48.351562 36.089844 L 48.195312 36.363281 Z M 47.859375 36.171875 " fill-opacity="1" fill-rule="nonzero"/><path fill="#f7e5ba" d="M 46.683594 35.128906 L 46.882812 34.96875 L 47.125 35.269531 L 46.925781 35.429688 Z M 46.683594 35.128906 " fill-opacity="1" fill-rule="nonzero"/><path fill="#f7e5ba" d="M 38.886719 46.195312 L 39.269531 46.195312 L 39.269531 46.472656 L 38.886719 46.472656 Z M 38.886719 46.195312 " fill-opacity="1" fill-rule="nonzero"/><path fill="#f7e5ba" d="M 39.214844 45.039062 L 39.570312 44.898438 L 39.648438 45.089844 L 39.292969 45.234375 Z M 39.214844 45.039062 " fill-opacity="1" fill-rule="nonzero"/><path fill="#f7e5ba" d="M 38.304688 44 L 38.578125 43.726562 L 38.738281 43.882812 L 38.464844 44.15625 Z M 38.304688 44 " fill-opacity="1" fill-rule="nonzero"/><path fill="#f7e5ba" d="M 38.167969 45.054688 L 38.40625 45.054688 L 38.40625 45.441406 L 38.167969 45.441406 Z M 38.167969 45.054688 " fill-opacity="1" fill-rule="nonzero"/><path fill="#f7e5ba" d="M 39.796875 46.109375 L 39.859375 45.726562 L 40.09375 45.765625 L 40.03125 46.148438 Z M 39.796875 46.109375 " fill-opacity="1" fill-rule="nonzero"/><path fill="#f7e5ba" d="M 41.285156 45.566406 L 41.488281 45.566406 L 41.488281 45.953125 L 41.285156 45.953125 Z M 41.285156 45.566406 " fill-opacity="1" fill-rule="nonzero"/><path fill="#f7e5ba" d="M 39.980469 44.496094 L 40.097656 44.496094 L 40.097656 44.882812 L 39.980469 44.882812 Z M 39.980469 44.496094 " fill-opacity="1" fill-rule="nonzero"/><path fill="#f7e5ba" d="M 37.140625 43.351562 L 37.378906 43.351562 L 37.378906 43.738281 L 37.140625 43.738281 Z M 37.140625 43.351562 " fill-opacity="1" fill-rule="nonzero"/><path fill="#f7e5ba" d="M 40.652344 46.480469 L 40.96875 46.480469 L 40.96875 46.867188 L 40.652344 46.867188 Z M 40.652344 46.480469 " fill-opacity="1" fill-rule="nonzero"/><path fill="#f7e5ba" d="M 41.039062 45.472656 L 40.886719 45.433594 L 40.976562 45.054688 L 41.132812 45.101562 Z M 41.039062 45.472656 " fill-opacity="1" fill-rule="nonzero"/><path fill="#f7e5ba" d="M 43.179688 45.644531 L 43.417969 45.644531 L 43.417969 46.03125 L 43.179688 46.03125 Z M 43.179688 45.644531 " fill-opacity="1" fill-rule="nonzero"/><path fill="#f7e5ba" d="M 41.910156 46.433594 L 42.113281 46.433594 L 42.113281 46.820312 L 41.910156 46.820312 Z M 41.910156 46.433594 " fill-opacity="1" fill-rule="nonzero"/><path fill="#f7e5ba" d="M 42.46875 46.203125 L 42.707031 46.203125 L 42.707031 46.589844 L 42.46875 46.589844 Z M 42.46875 46.203125 " fill-opacity="1" fill-rule="nonzero"/><path fill="#f7e5ba" d="M 44.507812 46.339844 L 44.664062 46.261719 L 44.839844 46.605469 L 44.679688 46.6875 Z M 44.507812 46.339844 " fill-opacity="1" fill-rule="nonzero"/><path fill="#f7e5ba" d="M 43.59375 46.296875 L 43.667969 46.21875 L 43.941406 46.492188 L 43.867188 46.570312 Z M 43.59375 46.296875 " fill-opacity="1" fill-rule="nonzero"/><path fill="#f7e5ba" d="M 42.453125 44.746094 L 42.726562 44.667969 L 42.832031 45.039062 L 42.558594 45.117188 Z M 42.453125 44.746094 " fill-opacity="1" fill-rule="nonzero"/><path fill="#f7e5ba" d="M 43.925781 45.054688 L 44.042969 45.054688 L 44.042969 45.441406 L 43.925781 45.441406 Z M 43.925781 45.054688 " fill-opacity="1" fill-rule="nonzero"/><path fill="#f7e5ba" d="M 45.148438 45.566406 L 45.425781 45.566406 L 45.425781 45.953125 L 45.148438 45.953125 Z M 45.148438 45.566406 " fill-opacity="1" fill-rule="nonzero"/><path fill="#f7e5ba" d="M 41.289062 44.765625 L 41.355469 44.382812 L 41.589844 44.421875 L 41.527344 44.804688 Z M 41.289062 44.765625 " fill-opacity="1" fill-rule="nonzero"/><path fill="#f7e5ba" d="M 41.664062 43.625 L 42.09375 43.585938 L 42.128906 43.972656 L 41.699219 44.011719 Z M 41.664062 43.625 " fill-opacity="1" fill-rule="nonzero"/><path fill="#f7e5ba" d="M 40.453125 43.628906 L 40.730469 43.628906 L 40.730469 44.015625 L 40.453125 44.015625 Z M 40.453125 43.628906 " fill-opacity="1" fill-rule="nonzero"/><path fill="#f7e5ba" d="M 43.273438 43.953125 L 43.625 43.835938 L 43.746094 44.203125 L 43.394531 44.320312 Z M 43.273438 43.953125 " fill-opacity="1" fill-rule="nonzero"/><path fill="#f7e5ba" d="M 44.722656 44.84375 L 45.007812 44.792969 L 45.078125 45.171875 L 44.789062 45.226562 Z M 44.722656 44.84375 " fill-opacity="1" fill-rule="nonzero"/><path fill="#f7e5ba" d="M 46.175781 45.527344 C 46.066406 45.464844 45.972656 45.371094 45.902344 45.265625 L 46.226562 45.0625 C 46.257812 45.117188 46.304688 45.164062 46.359375 45.195312 Z M 46.175781 45.527344 " fill-opacity="1" fill-rule="nonzero"/><path fill="#f7e5ba" d="M 46.46875 46.152344 L 46.515625 45.765625 L 46.722656 45.792969 L 46.675781 46.179688 Z M 46.46875 46.152344 " fill-opacity="1" fill-rule="nonzero"/><path fill="#f7e5ba" d="M 44.945312 44.410156 C 44.832031 44.386719 44.714844 44.34375 44.613281 44.273438 L 44.832031 43.953125 C 44.886719 43.992188 44.953125 44.023438 45.023438 44.03125 Z M 44.945312 44.410156 " fill-opacity="1" fill-rule="nonzero"/><path fill="#f7e5ba" d="M 45.726562 44.394531 L 45.882812 44.394531 L 45.882812 44.785156 L 45.726562 44.785156 Z M 45.726562 44.394531 " fill-opacity="1" fill-rule="nonzero"/><path fill="#f7e5ba" d="M 39.464844 43.914062 C 39.433594 43.816406 39.410156 43.714844 39.410156 43.613281 L 39.796875 43.613281 C 39.796875 43.675781 39.804688 43.738281 39.828125 43.792969 Z M 39.464844 43.914062 " fill-opacity="1" fill-rule="nonzero"/><path fill="#f7e5ba" d="M 40.726562 42.816406 L 41.058594 42.617188 L 41.140625 42.75 L 40.808594 42.949219 Z M 40.726562 42.816406 " fill-opacity="1" fill-rule="nonzero"/><path fill="#f7e5ba" d="M 42.527344 43.527344 L 42.820312 43.277344 L 42.976562 43.460938 L 42.679688 43.710938 Z M 42.527344 43.527344 " fill-opacity="1" fill-rule="nonzero"/><path fill="#f7e5ba" d="M 44.273438 43.824219 C 44.175781 43.753906 44.105469 43.644531 44.066406 43.527344 L 44.4375 43.429688 C 44.445312 43.457031 44.46875 43.488281 44.492188 43.503906 Z M 44.273438 43.824219 " fill-opacity="1" fill-rule="nonzero"/><path fill="#f7e5ba" d="M 46.527344 44.710938 L 46.820312 44.460938 L 46.976562 44.644531 L 46.683594 44.894531 Z M 46.527344 44.710938 " fill-opacity="1" fill-rule="nonzero"/><path fill="#f7e5ba" d="M 47.183594 45.597656 L 47.375 45.261719 L 47.554688 45.367188 L 47.363281 45.703125 Z M 47.183594 45.597656 " fill-opacity="1" fill-rule="nonzero"/><path fill="#f7e5ba" d="M 38.367188 46.734375 L 38.675781 46.503906 L 38.753906 46.609375 L 38.445312 46.839844 Z M 38.367188 46.734375 " fill-opacity="1" fill-rule="nonzero"/><g clip-path="url(#id10)"><path fill="#f7e5ba" d="M 38.738281 47.332031 L 38.839844 46.957031 L 39.046875 47.011719 L 38.949219 47.386719 Z M 38.738281 47.332031 " fill-opacity="1" fill-rule="nonzero"/></g><path fill="#f7e5ba" d="M 46.945312 43.992188 L 46.878906 43.675781 C 46.96875 43.660156 47.0625 43.675781 47.140625 43.738281 C 47.214844 43.792969 47.261719 43.878906 47.269531 43.96875 Z M 46.945312 43.992188 " fill-opacity="1" fill-rule="nonzero"/><path fill="#f7e5ba" d="M 47.300781 44.667969 L 47.484375 44.328125 L 47.640625 44.410156 L 47.457031 44.753906 Z M 47.300781 44.667969 " fill-opacity="1" fill-rule="nonzero"/><path fill="#f7e5ba" d="M 45.707031 43.769531 L 45.851562 43.410156 L 46.050781 43.492188 L 45.910156 43.851562 Z M 45.707031 43.769531 " fill-opacity="1" fill-rule="nonzero"/><path fill="#f7e5ba" d="M 44.847656 43.21875 L 44.96875 42.851562 L 45.320312 42.96875 L 45.199219 43.335938 Z M 44.847656 43.21875 " fill-opacity="1" fill-rule="nonzero"/><g fill="#dc3c4d" fill-opacity="0.302"><g transform="translate(6.7415, 72.141161)"><g><path d="M 0.953125 2.820312 C 1.113281 2.917969 1.261719 2.945312 1.449219 2.894531 C 1.542969 2.878906 1.636719 2.867188 1.726562 2.804688 C 2 2.695312 2.414062 2.371094 2.992188 1.828125 C 3.65625 1.226562 4.566406 0.640625 5.722656 0.0898438 C 6.855469 -0.457031 8.617188 -1.1875 11.007812 -2.082031 C 13.863281 -3.136719 15.691406 -3.902344 16.539062 -4.410156 C 16.921875 -4.609375 17.113281 -4.78125 17.097656 -4.898438 C 17.082031 -5.015625 16.785156 -5.070312 16.203125 -5.0625 C 16.0625 -5.042969 15.871094 -5.015625 15.632812 -4.984375 C 15.351562 -4.917969 15.046875 -4.851562 14.695312 -4.777344 C 13.992188 -4.605469 13.199219 -4.398438 12.265625 -4.171875 C 11.308594 -3.914062 10.375 -3.664062 9.464844 -3.414062 C 8.535156 -3.136719 7.679688 -2.871094 6.914062 -2.644531 C 6.125 -2.386719 5.59375 -2.214844 5.273438 -2.074219 C 4.886719 -1.898438 4.589844 -1.785156 4.398438 -1.757812 C 4.1875 -1.703125 4.089844 -1.714844 4.082031 -1.785156 C 4.050781 -1.828125 4.125 -2.152344 4.285156 -2.734375 C 4.445312 -3.3125 4.640625 -3.992188 4.898438 -4.753906 C 5.023438 -5.234375 5.242188 -5.917969 5.5 -6.824219 C 5.742188 -7.679688 5.996094 -8.636719 6.285156 -9.667969 C 6.429688 -10.199219 6.570312 -10.75 6.734375 -11.304688 C 6.851562 -11.855469 6.992188 -12.382812 7.136719 -12.910156 C 7.261719 -13.414062 7.402344 -13.941406 7.542969 -14.492188 C 7.6875 -15.023438 7.832031 -15.550781 7.953125 -16.050781 C 8.207031 -17.007812 8.425781 -17.859375 8.628906 -18.640625 C 8.839844 -19.394531 9 -19.972656 9.089844 -20.351562 C 9.316406 -21.15625 9.453125 -21.730469 9.480469 -22.050781 C 9.511719 -22.34375 9.457031 -22.554688 9.339844 -22.707031 C 9.230469 -22.789062 9.125 -22.871094 9.023438 -22.90625 C 8.925781 -22.914062 8.851562 -22.929688 8.777344 -22.917969 C 8.730469 -22.914062 8.710938 -22.886719 8.6875 -22.882812 C 8.484375 -22.78125 8.066406 -21.777344 7.417969 -19.847656 C 6.773438 -17.894531 5.980469 -15.289062 5.078125 -12.066406 C 4.59375 -10.351562 4.101562 -8.683594 3.625 -7.09375 C 3.125 -5.472656 2.648438 -4.050781 2.242188 -2.808594 C 2.003906 -2.097656 1.800781 -1.488281 1.609375 -0.953125 C 1.398438 -0.390625 1.199219 0.0976562 1.054688 0.457031 C 0.730469 1.226562 0.566406 1.785156 0.5625 2.097656 C 0.546875 2.171875 0.554688 2.222656 0.5625 2.269531 C 0.59375 2.503906 0.71875 2.707031 0.953125 2.820312 Z M 0.953125 2.820312 "/></g></g><g transform="translate(24.729627, 69.609894)"><g><path d="M 4.136719 -8.445312 C 4.429688 -8.949219 4.464844 -9.363281 4.222656 -9.71875 C 3.984375 -10.023438 3.578125 -10.183594 3.046875 -10.15625 L 2.882812 -10.132812 L 2.644531 -10.101562 C 2.503906 -10.058594 2.367188 -10.011719 2.226562 -9.96875 C 1.539062 -9.703125 0.875 -9.269531 0.28125 -8.65625 C -0.332031 -8.035156 -0.792969 -7.367188 -1.109375 -6.691406 C -1.300781 -6.328125 -1.421875 -5.972656 -1.46875 -5.625 C -1.523438 -5.328125 -1.539062 -5.082031 -1.503906 -4.847656 L -1.480469 -4.679688 C -1.378906 -4.285156 -1.179688 -3.921875 -0.851562 -3.632812 C -0.5625 -3.308594 -0.191406 -3.070312 0.265625 -2.941406 C 0.746094 -2.765625 1.433594 -2.71875 2.292969 -2.792969 L 2.578125 -2.832031 C 3.335938 -2.9375 4.175781 -3.175781 5.039062 -3.566406 C 5.496094 -3.773438 5.992188 -4.015625 6.507812 -4.328125 C 6.996094 -4.636719 7.507812 -4.953125 7.988281 -5.3125 C 8.871094 -5.917969 9.628906 -6.558594 10.265625 -7.203125 C 10.902344 -7.828125 11.203125 -8.257812 11.191406 -8.519531 L 11.183594 -8.566406 C 11.179688 -8.617188 11.144531 -8.683594 11.136719 -8.730469 C 11.109375 -8.773438 11.078125 -8.820312 11.078125 -8.820312 C 11.03125 -8.8125 10.671875 -8.617188 10 -8.230469 C 9.300781 -7.84375 8.5 -7.367188 7.589844 -6.78125 C 5.707031 -5.546875 4.214844 -4.78125 3.089844 -4.523438 C 1.96875 -4.246094 1.027344 -4.234375 0.285156 -4.515625 C -0.0273438 -4.667969 -0.203125 -4.882812 -0.265625 -5.164062 C -0.351562 -5.421875 -0.304688 -5.765625 -0.121094 -6.203125 C -0.0546875 -6.40625 0.0664062 -6.566406 0.246094 -6.691406 C 0.402344 -6.785156 0.679688 -6.871094 1.078125 -6.953125 C 1.785156 -7.101562 2.433594 -7.3125 3.023438 -7.589844 C 3.589844 -7.863281 3.960938 -8.132812 4.136719 -8.445312 Z M 1.90625 -8.640625 C 2.148438 -8.796875 2.355469 -8.898438 2.539062 -8.949219 C 2.683594 -8.96875 2.773438 -9.007812 2.871094 -9.019531 L 2.941406 -9.03125 C 3.015625 -9.015625 3.066406 -9 3.074219 -8.949219 C 3.078125 -8.902344 3.0625 -8.851562 3.023438 -8.773438 C 2.90625 -8.589844 2.804688 -8.453125 2.671875 -8.363281 C 2.273438 -8.089844 1.933594 -7.917969 1.699219 -7.863281 C 1.492188 -7.808594 1.347656 -7.789062 1.253906 -7.777344 L 1.183594 -7.765625 C 1.109375 -7.753906 1.082031 -7.777344 1.078125 -7.824219 C 1.070312 -7.871094 1.109375 -7.925781 1.214844 -8.035156 C 1.382812 -8.230469 1.621094 -8.433594 1.90625 -8.640625 Z M 1.90625 -8.640625 "/></g></g><g transform="translate(36.405299, 67.966909)"><g><path d="M -1.46875 -1.148438 C -1.335938 -1.070312 -1.191406 -1.066406 -1.046875 -1.085938 C -0.859375 -1.113281 -0.632812 -1.21875 -0.417969 -1.417969 C -0.0546875 -1.757812 0.496094 -2.488281 1.253906 -3.636719 C 2.050781 -4.863281 2.617188 -5.644531 2.949219 -6.03125 C 3.261719 -6.386719 3.511719 -6.519531 3.667969 -6.445312 C 3.722656 -6.40625 3.78125 -6.316406 3.847656 -6.179688 C 3.898438 -6.019531 3.921875 -5.851562 3.941406 -5.683594 C 3.9375 -5.371094 4.082031 -5.050781 4.367188 -4.730469 C 4.632812 -4.402344 4.871094 -4.242188 5.113281 -4.253906 C 5.355469 -4.261719 5.734375 -4.484375 6.230469 -4.917969 C 6.703125 -5.347656 7.503906 -6.1875 8.636719 -7.410156 C 9.289062 -8.109375 9.882812 -8.699219 10.394531 -9.207031 C 10.90625 -9.691406 11.210938 -9.925781 11.285156 -9.914062 C 11.363281 -9.875 11.433594 -9.738281 11.515625 -9.484375 C 11.578125 -9.203125 11.628906 -8.847656 11.691406 -8.421875 C 11.769531 -7.511719 11.910156 -6.855469 12.164062 -6.429688 C 12.421875 -5.984375 12.777344 -5.695312 13.277344 -5.570312 C 13.78125 -5.425781 14.359375 -5.433594 14.96875 -5.589844 C 15.550781 -5.746094 16.347656 -6.101562 17.335938 -6.652344 C 17.738281 -6.875 18.183594 -7.15625 18.621094 -7.484375 C 19.0625 -7.789062 19.503906 -8.09375 19.917969 -8.417969 C 20.683594 -9.007812 21.285156 -9.554688 21.746094 -10.054688 C 22.019531 -10.335938 22.160156 -10.546875 22.144531 -10.667969 C 22.113281 -10.710938 22.035156 -10.75 21.9375 -10.757812 C 21.867188 -10.75 21.550781 -10.582031 20.960938 -10.304688 C 20.371094 -10.03125 19.695312 -9.667969 18.953125 -9.273438 C 16.859375 -8.15625 15.449219 -7.5 14.734375 -7.253906 C 14.019531 -7.007812 13.578125 -7.042969 13.429688 -7.40625 C 13.394531 -7.5 13.363281 -7.710938 13.3125 -8.070312 C 13.265625 -8.402344 13.210938 -8.78125 13.207031 -9.167969 C 13.152344 -10.078125 13.035156 -10.714844 12.835938 -11.101562 C 12.617188 -11.457031 12.300781 -11.652344 11.859375 -11.6875 C 11.328125 -11.6875 10.796875 -11.492188 10.25 -11.097656 C 9.703125 -10.683594 8.847656 -9.859375 7.714844 -8.636719 C 6.875 -7.71875 6.28125 -7.128906 5.980469 -6.867188 C 5.679688 -6.582031 5.472656 -6.503906 5.382812 -6.636719 C 5.320312 -6.726562 5.261719 -6.816406 5.242188 -6.957031 C 5.175781 -7.070312 5.164062 -7.164062 5.148438 -7.257812 C 5.117188 -7.496094 4.960938 -7.742188 4.6875 -7.96875 C 4.390625 -8.167969 4.085938 -8.269531 3.796875 -8.277344 C 3.4375 -8.253906 3.007812 -8.023438 2.535156 -7.617188 C 2.039062 -7.183594 1.519531 -6.578125 0.949219 -5.796875 C 0.683594 -5.46875 0.453125 -5.195312 0.289062 -5 C 0.0742188 -4.800781 -0.0390625 -4.738281 -0.046875 -4.808594 C -0.0859375 -4.902344 -0.0390625 -5.269531 0.0859375 -5.917969 C 0.191406 -6.539062 0.359375 -7.261719 0.53125 -8.085938 C 0.613281 -8.53125 0.71875 -8.984375 0.851562 -9.4375 C 0.957031 -9.886719 1.070312 -10.289062 1.207031 -10.695312 C 1.429688 -11.503906 1.523438 -12.046875 1.480469 -12.355469 C 1.449219 -12.570312 1.339844 -12.675781 1.148438 -12.648438 C 1.078125 -12.640625 1.007812 -12.605469 0.964844 -12.574219 C 0.851562 -12.535156 0.628906 -12.042969 0.296875 -11.125 C -0.03125 -10.183594 -0.371094 -9.167969 -0.699219 -8.058594 C -0.878906 -7.453125 -1.039062 -6.871094 -1.199219 -6.292969 C -1.359375 -5.714844 -1.507812 -5.207031 -1.589844 -4.761719 C -1.808594 -3.738281 -1.914062 -2.925781 -1.871094 -2.300781 C -1.875 -2.15625 -1.855469 -2.011719 -1.839844 -1.894531 C -1.78125 -1.492188 -1.675781 -1.242188 -1.46875 -1.148438 Z M -1.46875 -1.148438 "/></g></g><g transform="translate(58.949786, 64.794477)"><g><path d="M 1.617188 -8.964844 C 1.304688 -9.136719 1.027344 -9.21875 0.789062 -9.1875 L 0.742188 -9.179688 C 0.503906 -9.144531 0.277344 -9.042969 0.078125 -8.894531 C -0.3125 -8.59375 -0.636719 -8.140625 -0.867188 -7.527344 C -1.117188 -6.910156 -1.289062 -6.402344 -1.371094 -5.953125 C -1.441406 -5.605469 -1.441406 -5.242188 -1.394531 -4.910156 C -1.363281 -4.695312 -1.335938 -4.507812 -1.261719 -4.324219 C -1.085938 -3.769531 -0.84375 -3.414062 -0.5 -3.222656 C -0.238281 -3.0625 0.0351562 -3.007812 0.34375 -3.050781 C 0.464844 -3.066406 0.601562 -3.109375 0.738281 -3.175781 C 1.175781 -3.335938 1.585938 -3.683594 1.976562 -4.175781 C 2.101562 -4.335938 2.242188 -4.527344 2.351562 -4.785156 C 2.46875 -4.992188 2.5625 -5.175781 2.640625 -5.308594 C 2.796875 -5.234375 3.226562 -5.269531 3.886719 -5.386719 C 4.550781 -5.503906 5.253906 -5.652344 5.976562 -5.851562 C 6.351562 -5.953125 6.699219 -6.050781 7.070312 -6.171875 C 7.417969 -6.269531 7.71875 -6.386719 7.992188 -6.496094 C 8.589844 -6.726562 9.179688 -7.003906 9.765625 -7.304688 C 10.351562 -7.605469 10.84375 -7.890625 11.199219 -8.132812 C 11.375 -8.253906 11.507812 -8.347656 11.613281 -8.457031 C 11.699219 -8.519531 11.738281 -8.597656 11.730469 -8.644531 L 11.726562 -8.667969 C 11.671875 -8.710938 11.269531 -8.652344 10.46875 -8.492188 C 9.671875 -8.308594 8.714844 -8.074219 7.640625 -7.777344 C 6.5 -7.472656 5.496094 -7.210938 4.648438 -7.042969 C 3.757812 -6.820312 3.167969 -6.738281 2.871094 -6.769531 C 2.855469 -7.058594 2.804688 -7.414062 2.722656 -7.835938 C 2.613281 -8.257812 2.25 -8.617188 1.617188 -8.964844 Z M 0.554688 -8.089844 L 0.628906 -8.097656 C 0.652344 -8.101562 0.671875 -8.128906 0.695312 -8.132812 L 0.835938 -8.152344 C 1.121094 -8.191406 1.402344 -8.085938 1.625 -7.875 C 1.765625 -7.75 1.859375 -7.59375 1.878906 -7.453125 C 1.898438 -7.308594 1.871094 -7.160156 1.796875 -7.003906 C 1.574219 -7.046875 1.335938 -7.183594 1.0625 -7.410156 C 0.792969 -7.613281 0.613281 -7.855469 0.554688 -8.089844 Z M -0.0390625 -4.398438 C -0.195312 -4.472656 -0.273438 -4.703125 -0.324219 -5.0625 C -0.339844 -5.179688 -0.363281 -5.320312 -0.363281 -5.515625 C -0.375 -6.117188 -0.269531 -6.570312 -0.0703125 -6.863281 C 0.144531 -6.53125 0.398438 -6.277344 0.71875 -6.078125 C 1.011719 -5.878906 1.25 -5.742188 1.402344 -5.691406 C 1.410156 -5.621094 1.378906 -5.519531 1.300781 -5.363281 C 1.203125 -5.203125 1.128906 -5.046875 1.046875 -4.9375 C 0.886719 -4.699219 0.71875 -4.53125 0.515625 -4.429688 C 0.425781 -4.367188 0.332031 -4.355469 0.261719 -4.34375 C 0.140625 -4.328125 0.0429688 -4.339844 -0.0390625 -4.398438 Z M -0.0390625 -4.398438 "/></g></g><g transform="translate(71.028885, 63.094722)"><g><path d="M -1.023438 -3.316406 C -0.882812 -3.191406 -0.710938 -3.167969 -0.523438 -3.195312 C -0.378906 -3.214844 -0.21875 -3.285156 -0.0429688 -3.40625 C 0.332031 -3.652344 0.769531 -4.171875 1.292969 -4.925781 C 2.519531 -6.695312 3.46875 -8.015625 4.164062 -8.933594 C 4.859375 -9.832031 5.238281 -10.246094 5.316406 -10.210938 C 5.371094 -10.167969 5.394531 -9.980469 5.394531 -9.640625 C 5.394531 -9.300781 5.378906 -8.886719 5.34375 -8.449219 C 5.246094 -7.273438 5.238281 -6.449219 5.359375 -5.933594 C 5.433594 -5.410156 5.683594 -5.011719 6.0625 -4.726562 C 6.5 -4.375 7.109375 -4.339844 7.847656 -4.589844 C 8.5625 -4.835938 9.464844 -5.324219 10.570312 -6.0625 C 11.71875 -6.851562 12.78125 -7.558594 13.707031 -8.195312 C 14.636719 -8.8125 15.183594 -9.226562 15.328125 -9.394531 C 14.851562 -9.351562 14.359375 -9.234375 13.851562 -9.039062 C 13.328125 -8.820312 12.804688 -8.578125 12.261719 -8.308594 C 11.273438 -7.78125 10.3125 -7.210938 9.375 -6.644531 C 8.4375 -6.074219 7.683594 -5.777344 7.101562 -5.765625 C 6.855469 -5.804688 6.695312 -6.074219 6.621094 -6.59375 C 6.554688 -7.070312 6.558594 -7.746094 6.675781 -8.613281 C 6.726562 -8.957031 6.742188 -9.371094 6.75 -9.808594 C 6.738281 -10.242188 6.738281 -10.582031 6.699219 -10.863281 C 6.644531 -11.246094 6.558594 -11.523438 6.488281 -11.683594 C 6.394531 -11.816406 6.238281 -11.914062 5.984375 -12 C 5.859375 -12.03125 5.734375 -12.035156 5.59375 -12.015625 C 5.261719 -11.96875 4.90625 -11.75 4.542969 -11.410156 C 3.988281 -10.871094 3.105469 -9.753906 1.910156 -8.085938 C 1 -6.820312 0.3125 -5.875 -0.132812 -5.234375 C -0.144531 -5.835938 -0.160156 -6.292969 -0.15625 -6.609375 C -0.195312 -7.765625 -0.222656 -8.464844 -0.257812 -8.722656 C -0.320312 -8.980469 -0.433594 -9.109375 -0.601562 -9.085938 C -0.742188 -9.066406 -0.875 -8.808594 -0.980469 -8.355469 C -1.109375 -7.878906 -1.175781 -7.335938 -1.238281 -6.746094 C -1.324219 -5.984375 -1.34375 -5.257812 -1.296875 -4.5625 C -1.308594 -4.316406 -1.277344 -4.105469 -1.257812 -3.9375 C -1.210938 -3.605469 -1.132812 -3.398438 -1.023438 -3.316406 Z M -1.023438 -3.316406 "/></g></g></g><g fill="#dc3c4d" fill-opacity="0.502"><g transform="translate(7.334102, 71.607391)"><g><path d="M 0.953125 2.820312 C 1.113281 2.917969 1.261719 2.945312 1.449219 2.894531 C 1.542969 2.878906 1.636719 2.867188 1.726562 2.804688 C 2 2.695312 2.414062 2.371094 2.992188 1.828125 C 3.65625 1.226562 4.566406 0.640625 5.722656 0.0898438 C 6.855469 -0.457031 8.617188 -1.1875 11.007812 -2.082031 C 13.863281 -3.136719 15.691406 -3.902344 16.539062 -4.410156 C 16.921875 -4.609375 17.113281 -4.78125 17.097656 -4.898438 C 17.082031 -5.015625 16.785156 -5.070312 16.203125 -5.0625 C 16.0625 -5.042969 15.871094 -5.015625 15.632812 -4.984375 C 15.351562 -4.917969 15.046875 -4.851562 14.695312 -4.777344 C 13.992188 -4.605469 13.199219 -4.398438 12.265625 -4.171875 C 11.308594 -3.914062 10.375 -3.664062 9.464844 -3.414062 C 8.535156 -3.136719 7.679688 -2.871094 6.914062 -2.644531 C 6.125 -2.386719 5.59375 -2.214844 5.273438 -2.074219 C 4.886719 -1.898438 4.589844 -1.785156 4.398438 -1.757812 C 4.1875 -1.703125 4.089844 -1.714844 4.082031 -1.785156 C 4.050781 -1.828125 4.125 -2.152344 4.285156 -2.734375 C 4.445312 -3.3125 4.640625 -3.992188 4.898438 -4.753906 C 5.023438 -5.234375 5.242188 -5.917969 5.5 -6.824219 C 5.742188 -7.679688 5.996094 -8.636719 6.285156 -9.667969 C 6.429688 -10.199219 6.570312 -10.75 6.734375 -11.304688 C 6.851562 -11.855469 6.992188 -12.382812 7.136719 -12.910156 C 7.261719 -13.414062 7.402344 -13.941406 7.542969 -14.492188 C 7.6875 -15.023438 7.832031 -15.550781 7.953125 -16.050781 C 8.207031 -17.007812 8.425781 -17.859375 8.628906 -18.640625 C 8.839844 -19.394531 9 -19.972656 9.089844 -20.351562 C 9.316406 -21.15625 9.453125 -21.730469 9.480469 -22.050781 C 9.511719 -22.34375 9.457031 -22.554688 9.339844 -22.707031 C 9.230469 -22.789062 9.125 -22.871094 9.023438 -22.90625 C 8.925781 -22.914062 8.851562 -22.929688 8.777344 -22.917969 C 8.730469 -22.914062 8.710938 -22.886719 8.6875 -22.882812 C 8.484375 -22.78125 8.066406 -21.777344 7.417969 -19.847656 C 6.773438 -17.894531 5.980469 -15.289062 5.078125 -12.066406 C 4.59375 -10.351562 4.101562 -8.683594 3.625 -7.09375 C 3.125 -5.472656 2.648438 -4.050781 2.242188 -2.808594 C 2.003906 -2.097656 1.800781 -1.488281 1.609375 -0.953125 C 1.398438 -0.390625 1.199219 0.0976562 1.054688 0.457031 C 0.730469 1.226562 0.566406 1.785156 0.5625 2.097656 C 0.546875 2.171875 0.554688 2.222656 0.5625 2.269531 C 0.59375 2.503906 0.71875 2.707031 0.953125 2.820312 Z M 0.953125 2.820312 "/></g></g><g transform="translate(25.322229, 69.076125)"><g><path d="M 4.136719 -8.445312 C 4.429688 -8.949219 4.464844 -9.363281 4.222656 -9.71875 C 3.984375 -10.023438 3.578125 -10.183594 3.046875 -10.15625 L 2.882812 -10.132812 L 2.644531 -10.101562 C 2.503906 -10.058594 2.367188 -10.011719 2.226562 -9.96875 C 1.539062 -9.703125 0.875 -9.269531 0.28125 -8.65625 C -0.332031 -8.035156 -0.792969 -7.367188 -1.109375 -6.691406 C -1.300781 -6.328125 -1.421875 -5.972656 -1.46875 -5.625 C -1.523438 -5.328125 -1.539062 -5.082031 -1.503906 -4.847656 L -1.480469 -4.679688 C -1.378906 -4.285156 -1.179688 -3.921875 -0.851562 -3.632812 C -0.5625 -3.308594 -0.191406 -3.070312 0.265625 -2.941406 C 0.746094 -2.765625 1.433594 -2.71875 2.292969 -2.792969 L 2.578125 -2.832031 C 3.335938 -2.9375 4.175781 -3.175781 5.039062 -3.566406 C 5.496094 -3.773438 5.992188 -4.015625 6.507812 -4.328125 C 6.996094 -4.636719 7.507812 -4.953125 7.988281 -5.3125 C 8.871094 -5.917969 9.628906 -6.558594 10.265625 -7.203125 C 10.902344 -7.828125 11.203125 -8.257812 11.191406 -8.519531 L 11.183594 -8.566406 C 11.179688 -8.617188 11.144531 -8.683594 11.136719 -8.730469 C 11.109375 -8.773438 11.078125 -8.820312 11.078125 -8.820312 C 11.03125 -8.8125 10.671875 -8.617188 10 -8.230469 C 9.300781 -7.84375 8.5 -7.367188 7.589844 -6.78125 C 5.707031 -5.546875 4.214844 -4.78125 3.089844 -4.523438 C 1.96875 -4.246094 1.027344 -4.234375 0.285156 -4.515625 C -0.0273438 -4.667969 -0.203125 -4.882812 -0.265625 -5.164062 C -0.351562 -5.421875 -0.304688 -5.765625 -0.121094 -6.203125 C -0.0546875 -6.40625 0.0664062 -6.566406 0.246094 -6.691406 C 0.402344 -6.785156 0.679688 -6.871094 1.078125 -6.953125 C 1.785156 -7.101562 2.433594 -7.3125 3.023438 -7.589844 C 3.589844 -7.863281 3.960938 -8.132812 4.136719 -8.445312 Z M 1.90625 -8.640625 C 2.148438 -8.796875 2.355469 -8.898438 2.539062 -8.949219 C 2.683594 -8.96875 2.773438 -9.007812 2.871094 -9.019531 L 2.941406 -9.03125 C 3.015625 -9.015625 3.066406 -9 3.074219 -8.949219 C 3.078125 -8.902344 3.0625 -8.851562 3.023438 -8.773438 C 2.90625 -8.589844 2.804688 -8.453125 2.671875 -8.363281 C 2.273438 -8.089844 1.933594 -7.917969 1.699219 -7.863281 C 1.492188 -7.808594 1.347656 -7.789062 1.253906 -7.777344 L 1.183594 -7.765625 C 1.109375 -7.753906 1.082031 -7.777344 1.078125 -7.824219 C 1.070312 -7.871094 1.109375 -7.925781 1.214844 -8.035156 C 1.382812 -8.230469 1.621094 -8.433594 1.90625 -8.640625 Z M 1.90625 -8.640625 "/></g></g><g transform="translate(36.997901, 67.433139)"><g><path d="M -1.46875 -1.148438 C -1.335938 -1.070312 -1.191406 -1.066406 -1.046875 -1.085938 C -0.859375 -1.113281 -0.632812 -1.21875 -0.417969 -1.417969 C -0.0546875 -1.757812 0.496094 -2.488281 1.253906 -3.636719 C 2.050781 -4.863281 2.617188 -5.644531 2.949219 -6.03125 C 3.261719 -6.386719 3.511719 -6.519531 3.667969 -6.445312 C 3.722656 -6.40625 3.78125 -6.316406 3.847656 -6.179688 C 3.898438 -6.019531 3.921875 -5.851562 3.941406 -5.683594 C 3.9375 -5.371094 4.082031 -5.050781 4.367188 -4.730469 C 4.632812 -4.402344 4.871094 -4.242188 5.113281 -4.253906 C 5.355469 -4.261719 5.734375 -4.484375 6.230469 -4.917969 C 6.703125 -5.347656 7.503906 -6.1875 8.636719 -7.410156 C 9.289062 -8.109375 9.882812 -8.699219 10.394531 -9.207031 C 10.90625 -9.691406 11.210938 -9.925781 11.285156 -9.914062 C 11.363281 -9.875 11.433594 -9.738281 11.515625 -9.484375 C 11.578125 -9.203125 11.628906 -8.847656 11.691406 -8.421875 C 11.769531 -7.511719 11.910156 -6.855469 12.164062 -6.429688 C 12.421875 -5.984375 12.777344 -5.695312 13.277344 -5.570312 C 13.78125 -5.425781 14.359375 -5.433594 14.96875 -5.589844 C 15.550781 -5.746094 16.347656 -6.101562 17.335938 -6.652344 C 17.738281 -6.875 18.183594 -7.15625 18.621094 -7.484375 C 19.0625 -7.789062 19.503906 -8.09375 19.917969 -8.417969 C 20.683594 -9.007812 21.285156 -9.554688 21.746094 -10.054688 C 22.019531 -10.335938 22.160156 -10.546875 22.144531 -10.667969 C 22.113281 -10.710938 22.035156 -10.75 21.9375 -10.757812 C 21.867188 -10.75 21.550781 -10.582031 20.960938 -10.304688 C 20.371094 -10.03125 19.695312 -9.667969 18.953125 -9.273438 C 16.859375 -8.15625 15.449219 -7.5 14.734375 -7.253906 C 14.019531 -7.007812 13.578125 -7.042969 13.429688 -7.40625 C 13.394531 -7.5 13.363281 -7.710938 13.3125 -8.070312 C 13.265625 -8.402344 13.210938 -8.78125 13.207031 -9.167969 C 13.152344 -10.078125 13.035156 -10.714844 12.835938 -11.101562 C 12.617188 -11.457031 12.300781 -11.652344 11.859375 -11.6875 C 11.328125 -11.6875 10.796875 -11.492188 10.25 -11.097656 C 9.703125 -10.683594 8.847656 -9.859375 7.714844 -8.636719 C 6.875 -7.71875 6.28125 -7.128906 5.980469 -6.867188 C 5.679688 -6.582031 5.472656 -6.503906 5.382812 -6.636719 C 5.320312 -6.726562 5.261719 -6.816406 5.242188 -6.957031 C 5.175781 -7.070312 5.164062 -7.164062 5.148438 -7.257812 C 5.117188 -7.496094 4.960938 -7.742188 4.6875 -7.96875 C 4.390625 -8.167969 4.085938 -8.269531 3.796875 -8.277344 C 3.4375 -8.253906 3.007812 -8.023438 2.535156 -7.617188 C 2.039062 -7.183594 1.519531 -6.578125 0.949219 -5.796875 C 0.683594 -5.46875 0.453125 -5.195312 0.289062 -5 C 0.0742188 -4.800781 -0.0390625 -4.738281 -0.046875 -4.808594 C -0.0859375 -4.902344 -0.0390625 -5.269531 0.0859375 -5.917969 C 0.191406 -6.539062 0.359375 -7.261719 0.53125 -8.085938 C 0.613281 -8.53125 0.71875 -8.984375 0.851562 -9.4375 C 0.957031 -9.886719 1.070312 -10.289062 1.207031 -10.695312 C 1.429688 -11.503906 1.523438 -12.046875 1.480469 -12.355469 C 1.449219 -12.570312 1.339844 -12.675781 1.148438 -12.648438 C 1.078125 -12.640625 1.007812 -12.605469 0.964844 -12.574219 C 0.851562 -12.535156 0.628906 -12.042969 0.296875 -11.125 C -0.03125 -10.183594 -0.371094 -9.167969 -0.699219 -8.058594 C -0.878906 -7.453125 -1.039062 -6.871094 -1.199219 -6.292969 C -1.359375 -5.714844 -1.507812 -5.207031 -1.589844 -4.761719 C -1.808594 -3.738281 -1.914062 -2.925781 -1.871094 -2.300781 C -1.875 -2.15625 -1.855469 -2.011719 -1.839844 -1.894531 C -1.78125 -1.492188 -1.675781 -1.242188 -1.46875 -1.148438 Z M -1.46875 -1.148438 "/></g></g><g transform="translate(59.542388, 64.260708)"><g><path d="M 1.617188 -8.964844 C 1.304688 -9.136719 1.027344 -9.21875 0.789062 -9.1875 L 0.742188 -9.179688 C 0.503906 -9.144531 0.277344 -9.042969 0.078125 -8.894531 C -0.3125 -8.59375 -0.636719 -8.140625 -0.867188 -7.527344 C -1.117188 -6.910156 -1.289062 -6.402344 -1.371094 -5.953125 C -1.441406 -5.605469 -1.441406 -5.242188 -1.394531 -4.910156 C -1.363281 -4.695312 -1.335938 -4.507812 -1.261719 -4.324219 C -1.085938 -3.769531 -0.84375 -3.414062 -0.5 -3.222656 C -0.238281 -3.0625 0.0351562 -3.007812 0.34375 -3.050781 C 0.464844 -3.066406 0.601562 -3.109375 0.738281 -3.175781 C 1.175781 -3.335938 1.585938 -3.683594 1.976562 -4.175781 C 2.101562 -4.335938 2.242188 -4.527344 2.351562 -4.785156 C 2.46875 -4.992188 2.5625 -5.175781 2.640625 -5.308594 C 2.796875 -5.234375 3.226562 -5.269531 3.886719 -5.386719 C 4.550781 -5.503906 5.253906 -5.652344 5.976562 -5.851562 C 6.351562 -5.953125 6.699219 -6.050781 7.070312 -6.171875 C 7.417969 -6.269531 7.71875 -6.386719 7.992188 -6.496094 C 8.589844 -6.726562 9.179688 -7.003906 9.765625 -7.304688 C 10.351562 -7.605469 10.84375 -7.890625 11.199219 -8.132812 C 11.375 -8.253906 11.507812 -8.347656 11.613281 -8.457031 C 11.699219 -8.519531 11.738281 -8.597656 11.730469 -8.644531 L 11.726562 -8.667969 C 11.671875 -8.710938 11.269531 -8.652344 10.46875 -8.492188 C 9.671875 -8.308594 8.714844 -8.074219 7.640625 -7.777344 C 6.5 -7.472656 5.496094 -7.210938 4.648438 -7.042969 C 3.757812 -6.820312 3.167969 -6.738281 2.871094 -6.769531 C 2.855469 -7.058594 2.804688 -7.414062 2.722656 -7.835938 C 2.613281 -8.257812 2.25 -8.617188 1.617188 -8.964844 Z M 0.554688 -8.089844 L 0.628906 -8.097656 C 0.652344 -8.101562 0.671875 -8.128906 0.695312 -8.132812 L 0.835938 -8.152344 C 1.121094 -8.191406 1.402344 -8.085938 1.625 -7.875 C 1.765625 -7.75 1.859375 -7.59375 1.878906 -7.453125 C 1.898438 -7.308594 1.871094 -7.160156 1.796875 -7.003906 C 1.574219 -7.046875 1.335938 -7.183594 1.0625 -7.410156 C 0.792969 -7.613281 0.613281 -7.855469 0.554688 -8.089844 Z M -0.0390625 -4.398438 C -0.195312 -4.472656 -0.273438 -4.703125 -0.324219 -5.0625 C -0.339844 -5.179688 -0.363281 -5.320312 -0.363281 -5.515625 C -0.375 -6.117188 -0.269531 -6.570312 -0.0703125 -6.863281 C 0.144531 -6.53125 0.398438 -6.277344 0.71875 -6.078125 C 1.011719 -5.878906 1.25 -5.742188 1.402344 -5.691406 C 1.410156 -5.621094 1.378906 -5.519531 1.300781 -5.363281 C 1.203125 -5.203125 1.128906 -5.046875 1.046875 -4.9375 C 0.886719 -4.699219 0.71875 -4.53125 0.515625 -4.429688 C 0.425781 -4.367188 0.332031 -4.355469 0.261719 -4.34375 C 0.140625 -4.328125 0.0429688 -4.339844 -0.0390625 -4.398438 Z M -0.0390625 -4.398438 "/></g></g><g transform="translate(71.621487, 62.560953)"><g><path d="M -1.023438 -3.316406 C -0.882812 -3.191406 -0.710938 -3.167969 -0.523438 -3.195312 C -0.378906 -3.214844 -0.21875 -3.285156 -0.0429688 -3.40625 C 0.332031 -3.652344 0.769531 -4.171875 1.292969 -4.925781 C 2.519531 -6.695312 3.46875 -8.015625 4.164062 -8.933594 C 4.859375 -9.832031 5.238281 -10.246094 5.316406 -10.210938 C 5.371094 -10.167969 5.394531 -9.980469 5.394531 -9.640625 C 5.394531 -9.300781 5.378906 -8.886719 5.34375 -8.449219 C 5.246094 -7.273438 5.238281 -6.449219 5.359375 -5.933594 C 5.433594 -5.410156 5.683594 -5.011719 6.0625 -4.726562 C 6.5 -4.375 7.109375 -4.339844 7.847656 -4.589844 C 8.5625 -4.835938 9.464844 -5.324219 10.570312 -6.0625 C 11.71875 -6.851562 12.78125 -7.558594 13.707031 -8.195312 C 14.636719 -8.8125 15.183594 -9.226562 15.328125 -9.394531 C 14.851562 -9.351562 14.359375 -9.234375 13.851562 -9.039062 C 13.328125 -8.820312 12.804688 -8.578125 12.261719 -8.308594 C 11.273438 -7.78125 10.3125 -7.210938 9.375 -6.644531 C 8.4375 -6.074219 7.683594 -5.777344 7.101562 -5.765625 C 6.855469 -5.804688 6.695312 -6.074219 6.621094 -6.59375 C 6.554688 -7.070312 6.558594 -7.746094 6.675781 -8.613281 C 6.726562 -8.957031 6.742188 -9.371094 6.75 -9.808594 C 6.738281 -10.242188 6.738281 -10.582031 6.699219 -10.863281 C 6.644531 -11.246094 6.558594 -11.523438 6.488281 -11.683594 C 6.394531 -11.816406 6.238281 -11.914062 5.984375 -12 C 5.859375 -12.03125 5.734375 -12.035156 5.59375 -12.015625 C 5.261719 -11.96875 4.90625 -11.75 4.542969 -11.410156 C 3.988281 -10.871094 3.105469 -9.753906 1.910156 -8.085938 C 1 -6.820312 0.3125 -5.875 -0.132812 -5.234375 C -0.144531 -5.835938 -0.160156 -6.292969 -0.15625 -6.609375 C -0.195312 -7.765625 -0.222656 -8.464844 -0.257812 -8.722656 C -0.320312 -8.980469 -0.433594 -9.109375 -0.601562 -9.085938 C -0.742188 -9.066406 -0.875 -8.808594 -0.980469 -8.355469 C -1.109375 -7.878906 -1.175781 -7.335938 -1.238281 -6.746094 C -1.324219 -5.984375 -1.34375 -5.257812 -1.296875 -4.5625 C -1.308594 -4.316406 -1.277344 -4.105469 -1.257812 -3.9375 C -1.210938 -3.605469 -1.132812 -3.398438 -1.023438 -3.316406 Z M -1.023438 -3.316406 "/></g></g></g><g fill="#ffda26" fill-opacity="1"><g transform="translate(7.926704, 71.073624)"><g><path d="M 0.953125 2.820312 C 1.113281 2.917969 1.261719 2.945312 1.449219 2.894531 C 1.542969 2.878906 1.636719 2.867188 1.726562 2.804688 C 2 2.695312 2.414062 2.371094 2.992188 1.828125 C 3.65625 1.226562 4.566406 0.640625 5.722656 0.0898438 C 6.855469 -0.457031 8.617188 -1.1875 11.007812 -2.082031 C 13.863281 -3.136719 15.691406 -3.902344 16.539062 -4.410156 C 16.921875 -4.609375 17.113281 -4.78125 17.097656 -4.898438 C 17.082031 -5.015625 16.785156 -5.070312 16.203125 -5.0625 C 16.0625 -5.042969 15.871094 -5.015625 15.632812 -4.984375 C 15.351562 -4.917969 15.046875 -4.851562 14.695312 -4.777344 C 13.992188 -4.605469 13.199219 -4.398438 12.265625 -4.171875 C 11.308594 -3.914062 10.375 -3.664062 9.464844 -3.414062 C 8.535156 -3.136719 7.679688 -2.871094 6.914062 -2.644531 C 6.125 -2.386719 5.59375 -2.214844 5.273438 -2.074219 C 4.886719 -1.898438 4.589844 -1.785156 4.398438 -1.757812 C 4.1875 -1.703125 4.089844 -1.714844 4.082031 -1.785156 C 4.050781 -1.828125 4.125 -2.152344 4.285156 -2.734375 C 4.445312 -3.3125 4.640625 -3.992188 4.898438 -4.753906 C 5.023438 -5.234375 5.242188 -5.917969 5.5 -6.824219 C 5.742188 -7.679688 5.996094 -8.636719 6.285156 -9.667969 C 6.429688 -10.199219 6.570312 -10.75 6.734375 -11.304688 C 6.851562 -11.855469 6.992188 -12.382812 7.136719 -12.910156 C 7.261719 -13.414062 7.402344 -13.941406 7.542969 -14.492188 C 7.6875 -15.023438 7.832031 -15.550781 7.953125 -16.050781 C 8.207031 -17.007812 8.425781 -17.859375 8.628906 -18.640625 C 8.839844 -19.394531 9 -19.972656 9.089844 -20.351562 C 9.316406 -21.15625 9.453125 -21.730469 9.480469 -22.050781 C 9.511719 -22.34375 9.457031 -22.554688 9.339844 -22.707031 C 9.230469 -22.789062 9.125 -22.871094 9.023438 -22.90625 C 8.925781 -22.914062 8.851562 -22.929688 8.777344 -22.917969 C 8.730469 -22.914062 8.710938 -22.886719 8.6875 -22.882812 C 8.484375 -22.78125 8.066406 -21.777344 7.417969 -19.847656 C 6.773438 -17.894531 5.980469 -15.289062 5.078125 -12.066406 C 4.59375 -10.351562 4.101562 -8.683594 3.625 -7.09375 C 3.125 -5.472656 2.648438 -4.050781 2.242188 -2.808594 C 2.003906 -2.097656 1.800781 -1.488281 1.609375 -0.953125 C 1.398438 -0.390625 1.199219 0.0976562 1.054688 0.457031 C 0.730469 1.226562 0.566406 1.785156 0.5625 2.097656 C 0.546875 2.171875 0.554688 2.222656 0.5625 2.269531 C 0.59375 2.503906 0.71875 2.707031 0.953125 2.820312 Z M 0.953125 2.820312 "/></g></g><g transform="translate(25.914831, 68.542358)"><g><path d="M 4.136719 -8.445312 C 4.429688 -8.949219 4.464844 -9.363281 4.222656 -9.71875 C 3.984375 -10.023438 3.578125 -10.183594 3.046875 -10.15625 L 2.882812 -10.132812 L 2.644531 -10.101562 C 2.503906 -10.058594 2.367188 -10.011719 2.226562 -9.96875 C 1.539062 -9.703125 0.875 -9.269531 0.28125 -8.65625 C -0.332031 -8.035156 -0.792969 -7.367188 -1.109375 -6.691406 C -1.300781 -6.328125 -1.421875 -5.972656 -1.46875 -5.625 C -1.523438 -5.328125 -1.539062 -5.082031 -1.503906 -4.847656 L -1.480469 -4.679688 C -1.378906 -4.285156 -1.179688 -3.921875 -0.851562 -3.632812 C -0.5625 -3.308594 -0.191406 -3.070312 0.265625 -2.941406 C 0.746094 -2.765625 1.433594 -2.71875 2.292969 -2.792969 L 2.578125 -2.832031 C 3.335938 -2.9375 4.175781 -3.175781 5.039062 -3.566406 C 5.496094 -3.773438 5.992188 -4.015625 6.507812 -4.328125 C 6.996094 -4.636719 7.507812 -4.953125 7.988281 -5.3125 C 8.871094 -5.917969 9.628906 -6.558594 10.265625 -7.203125 C 10.902344 -7.828125 11.203125 -8.257812 11.191406 -8.519531 L 11.183594 -8.566406 C 11.179688 -8.617188 11.144531 -8.683594 11.136719 -8.730469 C 11.109375 -8.773438 11.078125 -8.820312 11.078125 -8.820312 C 11.03125 -8.8125 10.671875 -8.617188 10 -8.230469 C 9.300781 -7.84375 8.5 -7.367188 7.589844 -6.78125 C 5.707031 -5.546875 4.214844 -4.78125 3.089844 -4.523438 C 1.96875 -4.246094 1.027344 -4.234375 0.285156 -4.515625 C -0.0273438 -4.667969 -0.203125 -4.882812 -0.265625 -5.164062 C -0.351562 -5.421875 -0.304688 -5.765625 -0.121094 -6.203125 C -0.0546875 -6.40625 0.0664062 -6.566406 0.246094 -6.691406 C 0.402344 -6.785156 0.679688 -6.871094 1.078125 -6.953125 C 1.785156 -7.101562 2.433594 -7.3125 3.023438 -7.589844 C 3.589844 -7.863281 3.960938 -8.132812 4.136719 -8.445312 Z M 1.90625 -8.640625 C 2.148438 -8.796875 2.355469 -8.898438 2.539062 -8.949219 C 2.683594 -8.96875 2.773438 -9.007812 2.871094 -9.019531 L 2.941406 -9.03125 C 3.015625 -9.015625 3.066406 -9 3.074219 -8.949219 C 3.078125 -8.902344 3.0625 -8.851562 3.023438 -8.773438 C 2.90625 -8.589844 2.804688 -8.453125 2.671875 -8.363281 C 2.273438 -8.089844 1.933594 -7.917969 1.699219 -7.863281 C 1.492188 -7.808594 1.347656 -7.789062 1.253906 -7.777344 L 1.183594 -7.765625 C 1.109375 -7.753906 1.082031 -7.777344 1.078125 -7.824219 C 1.070312 -7.871094 1.109375 -7.925781 1.214844 -8.035156 C 1.382812 -8.230469 1.621094 -8.433594 1.90625 -8.640625 Z M 1.90625 -8.640625 "/></g></g><g transform="translate(37.590503, 66.899372)"><g><path d="M -1.46875 -1.148438 C -1.335938 -1.070312 -1.191406 -1.066406 -1.046875 -1.085938 C -0.859375 -1.113281 -0.632812 -1.21875 -0.417969 -1.417969 C -0.0546875 -1.757812 0.496094 -2.488281 1.253906 -3.636719 C 2.050781 -4.863281 2.617188 -5.644531 2.949219 -6.03125 C 3.261719 -6.386719 3.511719 -6.519531 3.667969 -6.445312 C 3.722656 -6.40625 3.78125 -6.316406 3.847656 -6.179688 C 3.898438 -6.019531 3.921875 -5.851562 3.941406 -5.683594 C 3.9375 -5.371094 4.082031 -5.050781 4.367188 -4.730469 C 4.632812 -4.402344 4.871094 -4.242188 5.113281 -4.253906 C 5.355469 -4.261719 5.734375 -4.484375 6.230469 -4.917969 C 6.703125 -5.347656 7.503906 -6.1875 8.636719 -7.410156 C 9.289062 -8.109375 9.882812 -8.699219 10.394531 -9.207031 C 10.90625 -9.691406 11.210938 -9.925781 11.285156 -9.914062 C 11.363281 -9.875 11.433594 -9.738281 11.515625 -9.484375 C 11.578125 -9.203125 11.628906 -8.847656 11.691406 -8.421875 C 11.769531 -7.511719 11.910156 -6.855469 12.164062 -6.429688 C 12.421875 -5.984375 12.777344 -5.695312 13.277344 -5.570312 C 13.78125 -5.425781 14.359375 -5.433594 14.96875 -5.589844 C 15.550781 -5.746094 16.347656 -6.101562 17.335938 -6.652344 C 17.738281 -6.875 18.183594 -7.15625 18.621094 -7.484375 C 19.0625 -7.789062 19.503906 -8.09375 19.917969 -8.417969 C 20.683594 -9.007812 21.285156 -9.554688 21.746094 -10.054688 C 22.019531 -10.335938 22.160156 -10.546875 22.144531 -10.667969 C 22.113281 -10.710938 22.035156 -10.75 21.9375 -10.757812 C 21.867188 -10.75 21.550781 -10.582031 20.960938 -10.304688 C 20.371094 -10.03125 19.695312 -9.667969 18.953125 -9.273438 C 16.859375 -8.15625 15.449219 -7.5 14.734375 -7.253906 C 14.019531 -7.007812 13.578125 -7.042969 13.429688 -7.40625 C 13.394531 -7.5 13.363281 -7.710938 13.3125 -8.070312 C 13.265625 -8.402344 13.210938 -8.78125 13.207031 -9.167969 C 13.152344 -10.078125 13.035156 -10.714844 12.835938 -11.101562 C 12.617188 -11.457031 12.300781 -11.652344 11.859375 -11.6875 C 11.328125 -11.6875 10.796875 -11.492188 10.25 -11.097656 C 9.703125 -10.683594 8.847656 -9.859375 7.714844 -8.636719 C 6.875 -7.71875 6.28125 -7.128906 5.980469 -6.867188 C 5.679688 -6.582031 5.472656 -6.503906 5.382812 -6.636719 C 5.320312 -6.726562 5.261719 -6.816406 5.242188 -6.957031 C 5.175781 -7.070312 5.164062 -7.164062 5.148438 -7.257812 C 5.117188 -7.496094 4.960938 -7.742188 4.6875 -7.96875 C 4.390625 -8.167969 4.085938 -8.269531 3.796875 -8.277344 C 3.4375 -8.253906 3.007812 -8.023438 2.535156 -7.617188 C 2.039062 -7.183594 1.519531 -6.578125 0.949219 -5.796875 C 0.683594 -5.46875 0.453125 -5.195312 0.289062 -5 C 0.0742188 -4.800781 -0.0390625 -4.738281 -0.046875 -4.808594 C -0.0859375 -4.902344 -0.0390625 -5.269531 0.0859375 -5.917969 C 0.191406 -6.539062 0.359375 -7.261719 0.53125 -8.085938 C 0.613281 -8.53125 0.71875 -8.984375 0.851562 -9.4375 C 0.957031 -9.886719 1.070312 -10.289062 1.207031 -10.695312 C 1.429688 -11.503906 1.523438 -12.046875 1.480469 -12.355469 C 1.449219 -12.570312 1.339844 -12.675781 1.148438 -12.648438 C 1.078125 -12.640625 1.007812 -12.605469 0.964844 -12.574219 C 0.851562 -12.535156 0.628906 -12.042969 0.296875 -11.125 C -0.03125 -10.183594 -0.371094 -9.167969 -0.699219 -8.058594 C -0.878906 -7.453125 -1.039062 -6.871094 -1.199219 -6.292969 C -1.359375 -5.714844 -1.507812 -5.207031 -1.589844 -4.761719 C -1.808594 -3.738281 -1.914062 -2.925781 -1.871094 -2.300781 C -1.875 -2.15625 -1.855469 -2.011719 -1.839844 -1.894531 C -1.78125 -1.492188 -1.675781 -1.242188 -1.46875 -1.148438 Z M -1.46875 -1.148438 "/></g></g><g transform="translate(60.13499, 63.726941)"><g><path d="M 1.617188 -8.964844 C 1.304688 -9.136719 1.027344 -9.21875 0.789062 -9.1875 L 0.742188 -9.179688 C 0.503906 -9.144531 0.277344 -9.042969 0.078125 -8.894531 C -0.3125 -8.59375 -0.636719 -8.140625 -0.867188 -7.527344 C -1.117188 -6.910156 -1.289062 -6.402344 -1.371094 -5.953125 C -1.441406 -5.605469 -1.441406 -5.242188 -1.394531 -4.910156 C -1.363281 -4.695312 -1.335938 -4.507812 -1.261719 -4.324219 C -1.085938 -3.769531 -0.84375 -3.414062 -0.5 -3.222656 C -0.238281 -3.0625 0.0351562 -3.007812 0.34375 -3.050781 C 0.464844 -3.066406 0.601562 -3.109375 0.738281 -3.175781 C 1.175781 -3.335938 1.585938 -3.683594 1.976562 -4.175781 C 2.101562 -4.335938 2.242188 -4.527344 2.351562 -4.785156 C 2.46875 -4.992188 2.5625 -5.175781 2.640625 -5.308594 C 2.796875 -5.234375 3.226562 -5.269531 3.886719 -5.386719 C 4.550781 -5.503906 5.253906 -5.652344 5.976562 -5.851562 C 6.351562 -5.953125 6.699219 -6.050781 7.070312 -6.171875 C 7.417969 -6.269531 7.71875 -6.386719 7.992188 -6.496094 C 8.589844 -6.726562 9.179688 -7.003906 9.765625 -7.304688 C 10.351562 -7.605469 10.84375 -7.890625 11.199219 -8.132812 C 11.375 -8.253906 11.507812 -8.347656 11.613281 -8.457031 C 11.699219 -8.519531 11.738281 -8.597656 11.730469 -8.644531 L 11.726562 -8.667969 C 11.671875 -8.710938 11.269531 -8.652344 10.46875 -8.492188 C 9.671875 -8.308594 8.714844 -8.074219 7.640625 -7.777344 C 6.5 -7.472656 5.496094 -7.210938 4.648438 -7.042969 C 3.757812 -6.820312 3.167969 -6.738281 2.871094 -6.769531 C 2.855469 -7.058594 2.804688 -7.414062 2.722656 -7.835938 C 2.613281 -8.257812 2.25 -8.617188 1.617188 -8.964844 Z M 0.554688 -8.089844 L 0.628906 -8.097656 C 0.652344 -8.101562 0.671875 -8.128906 0.695312 -8.132812 L 0.835938 -8.152344 C 1.121094 -8.191406 1.402344 -8.085938 1.625 -7.875 C 1.765625 -7.75 1.859375 -7.59375 1.878906 -7.453125 C 1.898438 -7.308594 1.871094 -7.160156 1.796875 -7.003906 C 1.574219 -7.046875 1.335938 -7.183594 1.0625 -7.410156 C 0.792969 -7.613281 0.613281 -7.855469 0.554688 -8.089844 Z M -0.0390625 -4.398438 C -0.195312 -4.472656 -0.273438 -4.703125 -0.324219 -5.0625 C -0.339844 -5.179688 -0.363281 -5.320312 -0.363281 -5.515625 C -0.375 -6.117188 -0.269531 -6.570312 -0.0703125 -6.863281 C 0.144531 -6.53125 0.398438 -6.277344 0.71875 -6.078125 C 1.011719 -5.878906 1.25 -5.742188 1.402344 -5.691406 C 1.410156 -5.621094 1.378906 -5.519531 1.300781 -5.363281 C 1.203125 -5.203125 1.128906 -5.046875 1.046875 -4.9375 C 0.886719 -4.699219 0.71875 -4.53125 0.515625 -4.429688 C 0.425781 -4.367188 0.332031 -4.355469 0.261719 -4.34375 C 0.140625 -4.328125 0.0429688 -4.339844 -0.0390625 -4.398438 Z M -0.0390625 -4.398438 "/></g></g><g transform="translate(72.214089, 62.027186)"><g><path d="M -1.023438 -3.316406 C -0.882812 -3.191406 -0.710938 -3.167969 -0.523438 -3.195312 C -0.378906 -3.214844 -0.21875 -3.285156 -0.0429688 -3.40625 C 0.332031 -3.652344 0.769531 -4.171875 1.292969 -4.925781 C 2.519531 -6.695312 3.46875 -8.015625 4.164062 -8.933594 C 4.859375 -9.832031 5.238281 -10.246094 5.316406 -10.210938 C 5.371094 -10.167969 5.394531 -9.980469 5.394531 -9.640625 C 5.394531 -9.300781 5.378906 -8.886719 5.34375 -8.449219 C 5.246094 -7.273438 5.238281 -6.449219 5.359375 -5.933594 C 5.433594 -5.410156 5.683594 -5.011719 6.0625 -4.726562 C 6.5 -4.375 7.109375 -4.339844 7.847656 -4.589844 C 8.5625 -4.835938 9.464844 -5.324219 10.570312 -6.0625 C 11.71875 -6.851562 12.78125 -7.558594 13.707031 -8.195312 C 14.636719 -8.8125 15.183594 -9.226562 15.328125 -9.394531 C 14.851562 -9.351562 14.359375 -9.234375 13.851562 -9.039062 C 13.328125 -8.820312 12.804688 -8.578125 12.261719 -8.308594 C 11.273438 -7.78125 10.3125 -7.210938 9.375 -6.644531 C 8.4375 -6.074219 7.683594 -5.777344 7.101562 -5.765625 C 6.855469 -5.804688 6.695312 -6.074219 6.621094 -6.59375 C 6.554688 -7.070312 6.558594 -7.746094 6.675781 -8.613281 C 6.726562 -8.957031 6.742188 -9.371094 6.75 -9.808594 C 6.738281 -10.242188 6.738281 -10.582031 6.699219 -10.863281 C 6.644531 -11.246094 6.558594 -11.523438 6.488281 -11.683594 C 6.394531 -11.816406 6.238281 -11.914062 5.984375 -12 C 5.859375 -12.03125 5.734375 -12.035156 5.59375 -12.015625 C 5.261719 -11.96875 4.90625 -11.75 4.542969 -11.410156 C 3.988281 -10.871094 3.105469 -9.753906 1.910156 -8.085938 C 1 -6.820312 0.3125 -5.875 -0.132812 -5.234375 C -0.144531 -5.835938 -0.160156 -6.292969 -0.15625 -6.609375 C -0.195312 -7.765625 -0.222656 -8.464844 -0.257812 -8.722656 C -0.320312 -8.980469 -0.433594 -9.109375 -0.601562 -9.085938 C -0.742188 -9.066406 -0.875 -8.808594 -0.980469 -8.355469 C -1.109375 -7.878906 -1.175781 -7.335938 -1.238281 -6.746094 C -1.324219 -5.984375 -1.34375 -5.257812 -1.296875 -4.5625 C -1.308594 -4.316406 -1.277344 -4.105469 -1.257812 -3.9375 C -1.210938 -3.605469 -1.132812 -3.398438 -1.023438 -3.316406 Z M -1.023438 -3.316406 "/></g></g></g></svg>