<svg xmlns="http://www.w3.org/2000/svg" xmlns:xlink="http://www.w3.org/1999/xlink" width="125" zoomAndPan="magnify" viewBox="0 0 93.75 93.749997" height="125" preserveAspectRatio="xMidYMid meet" version="1.0"><defs><g/><clipPath id="id1"><path d="M 38 29 L 57 29 L 57 50.902344 L 38 50.902344 Z M 38 29 " clip-rule="nonzero"/></clipPath><clipPath id="id2"><path d="M 43 33 L 57 33 L 57 50.902344 L 43 50.902344 Z M 43 33 " clip-rule="nonzero"/></clipPath><clipPath id="id3"><path d="M 32.570312 24.652344 L 53 24.652344 L 53 31 L 32.570312 31 Z M 32.570312 24.652344 " clip-rule="nonzero"/></clipPath><clipPath id="id4"><path d="M 43 49 L 44 49 L 44 50.902344 L 43 50.902344 Z M 43 49 " clip-rule="nonzero"/></clipPath></defs><path fill="#427638" d="M 49.589844 33.179688 C 49.386719 33.101562 49.234375 32.945312 49.148438 32.738281 C 49.046875 32.488281 49.0625 32.171875 49.1875 31.898438 C 49.394531 31.457031 49.765625 31.203125 50.097656 30.976562 C 50.320312 30.824219 50.539062 30.675781 50.652344 30.496094 C 50.832031 30.210938 50.792969 29.808594 50.753906 29.34375 C 50.722656 28.988281 50.683594 28.613281 50.746094 28.226562 C 50.855469 27.515625 51.308594 26.847656 51.964844 26.4375 C 52.539062 26.082031 53.253906 25.917969 53.988281 25.972656 C 55.171875 26.058594 56.25 26.71875 56.816406 27.679688 C 57.101562 28.164062 57.238281 28.699219 57.378906 29.210938 C 57.457031 29.507812 57.535156 29.792969 57.632812 30.054688 C 57.851562 30.628906 58.320312 31.226562 58.871094 31.1875 L 58.929688 32.195312 C 57.804688 32.265625 57.023438 31.28125 56.691406 30.414062 C 56.574219 30.09375 56.492188 29.777344 56.40625 29.46875 C 56.28125 29.003906 56.167969 28.5625 55.949219 28.1875 C 55.550781 27.507812 54.777344 27.050781 53.917969 26.980469 C 53.394531 26.941406 52.894531 27.050781 52.5 27.296875 C 52.089844 27.554688 51.8125 27.957031 51.742188 28.382812 C 51.703125 28.636719 51.726562 28.933594 51.757812 29.242188 C 51.8125 29.808594 51.875 30.457031 51.503906 31.03125 C 51.277344 31.378906 50.953125 31.605469 50.667969 31.800781 C 50.414062 31.976562 50.191406 32.132812 50.097656 32.324219 C 50.089844 32.339844 50.089844 32.363281 50.089844 32.371094 C 50.089844 32.339844 50.042969 32.257812 49.949219 32.226562 Z M 49.589844 33.179688 " fill-opacity="1" fill-rule="nonzero"/><g clip-path="url(#id1)"><path fill="#fbde1b" d="M 49.1875 30.078125 C 47.773438 30.445312 46.351562 30.808594 45.023438 31.410156 C 43.898438 31.921875 42.847656 32.597656 41.84375 33.324219 C 41.3125 33.703125 40.777344 34.117188 40.421875 34.65625 C 40.144531 35.074219 39.984375 35.5625 39.835938 36.042969 C 39.335938 37.671875 38.941406 39.34375 38.949219 41.046875 C 38.957031 42.753906 39.378906 44.488281 40.382812 45.851562 C 40.824219 46.449219 41.371094 46.980469 41.6875 47.65625 C 41.9375 48.199219 42.019531 48.796875 42.214844 49.359375 C 42.40625 49.925781 42.769531 50.476562 43.332031 50.660156 C 44.027344 50.886719 44.738281 50.484375 45.425781 50.234375 C 47.203125 49.601562 49.242188 50.019531 50.992188 49.296875 C 52.707031 48.59375 53.835938 46.929688 54.628906 45.246094 C 55.464844 43.464844 56.042969 41.542969 56.144531 39.578125 C 56.242188 37.609375 55.828125 35.59375 54.808594 33.914062 C 54.484375 33.386719 54.113281 32.898438 53.734375 32.410156 C 53.363281 31.921875 52.96875 31.425781 52.429688 31.140625 C 52.160156 30.992188 51.867188 30.90625 51.601562 30.746094 C 51.179688 30.480469 51.21875 30.046875 50.714844 29.933594 C 50.214844 29.800781 49.65625 29.957031 49.1875 30.078125 Z M 49.1875 30.078125 " fill-opacity="1" fill-rule="nonzero"/></g><g clip-path="url(#id2)"><path fill="#ecb81d" d="M 55.425781 34.859375 C 56.4375 36.773438 56.191406 39.082031 55.917969 41.226562 C 55.835938 41.902344 55.75 42.582031 55.578125 43.25 C 55.1875 44.804688 54.359375 46.214844 53.441406 47.523438 C 53.179688 47.894531 52.910156 48.269531 52.5625 48.5625 C 52.214844 48.855469 51.804688 49.074219 51.386719 49.253906 C 50.382812 49.679688 49.292969 49.925781 48.207031 49.964844 C 47.480469 49.996094 46.738281 49.933594 46.027344 50.074219 C 45.402344 50.195312 44.824219 50.476562 44.199219 50.625 C 44.097656 50.648438 43.996094 50.660156 43.90625 50.625 C 43.742188 50.554688 43.703125 50.328125 43.773438 50.167969 C 43.84375 50.003906 43.996094 49.894531 44.144531 49.800781 C 45.789062 48.710938 47.789062 48.230469 49.394531 47.082031 C 49.929688 46.703125 50.414062 46.246094 50.894531 45.796875 C 51.300781 45.410156 51.726562 45.015625 51.964844 44.503906 C 52.097656 44.21875 52.175781 43.898438 52.238281 43.589844 C 52.46875 42.519531 52.652344 41.4375 53.007812 40.398438 C 53.171875 39.925781 53.371094 39.460938 53.503906 38.972656 C 53.890625 37.578125 53.75 36.113281 53.765625 34.6875 C 53.773438 34.285156 53.65625 32.914062 54.175781 33.140625 C 54.644531 33.363281 55.203125 34.425781 55.425781 34.859375 Z M 55.425781 34.859375 " fill-opacity="1" fill-rule="nonzero"/></g><path fill="#f7e5ba" d="M 42.730469 33.15625 C 42.429688 33.269531 42.113281 33.402344 41.890625 33.644531 C 41.628906 33.929688 41.535156 34.324219 41.378906 34.6875 C 41.078125 35.386719 40.515625 36.011719 40.546875 36.765625 C 41.09375 36.484375 41.574219 36.074219 41.953125 35.585938 C 42.269531 35.167969 42.507812 34.695312 42.816406 34.269531 C 43.15625 33.796875 43.597656 33.402344 44.082031 33.09375 C 44.414062 32.882812 45.179688 32.730469 45.316406 32.339844 C 44.453125 32.441406 43.542969 32.84375 42.730469 33.15625 Z M 42.730469 33.15625 " fill-opacity="1" fill-rule="nonzero"/><g clip-path="url(#id3)"><path fill="#427638" d="M 50.144531 26.199219 C 49.542969 25.988281 48.992188 25.632812 48.367188 25.492188 C 47.9375 25.394531 47.488281 25.398438 47.054688 25.316406 C 46.699219 25.246094 46.359375 25.121094 46.011719 25.027344 C 45.464844 24.882812 44.902344 24.8125 44.335938 24.773438 C 42.746094 24.664062 41.148438 24.796875 39.597656 25.175781 C 39.007812 25.316406 38.429688 25.492188 37.898438 25.789062 C 37.003906 26.269531 36.300781 27.058594 35.410156 27.570312 C 34.972656 27.824219 34.484375 28.003906 34.050781 28.28125 C 33.472656 28.652344 33.019531 29.179688 32.570312 29.699219 C 33.851562 29.925781 35.132812 30.148438 36.414062 30.382812 C 36.722656 30.4375 37.046875 30.488281 37.355469 30.445312 C 37.742188 30.382812 38.082031 30.179688 38.4375 30.007812 C 39.535156 29.492188 40.769531 29.359375 41.875 28.878906 C 42.398438 28.652344 42.886719 28.351562 43.410156 28.144531 C 43.789062 27.996094 44.175781 27.894531 44.570312 27.800781 C 44.992188 27.691406 45.417969 27.59375 45.859375 27.570312 C 46.191406 27.554688 46.53125 27.585938 46.855469 27.664062 C 47.109375 27.722656 47.355469 27.816406 47.621094 27.863281 C 47.867188 27.902344 48.113281 27.894531 48.359375 27.886719 C 49.417969 27.855469 50.722656 27.902344 51.710938 27.46875 C 52.910156 26.933594 50.515625 26.320312 50.144531 26.199219 Z M 50.144531 26.199219 " fill-opacity="1" fill-rule="nonzero"/></g><path fill="#427638" d="M 54.644531 32.691406 C 54.730469 33.253906 54.777344 33.820312 54.863281 34.386719 C 54.960938 35.015625 55.117188 35.632812 55.242188 36.261719 C 55.472656 37.429688 55.609375 38.617188 55.648438 39.800781 C 55.671875 40.691406 55.648438 41.589844 55.890625 42.449219 C 56.335938 44.0625 57.632812 45.253906 58.582031 46.625 C 59.117188 47.394531 59.550781 48.238281 59.910156 49.097656 C 60.050781 49.429688 60.242188 49.816406 60.597656 49.855469 C 61.070312 49.253906 60.730469 48.382812 60.566406 47.640625 C 60.46875 47.191406 60.4375 46.726562 60.390625 46.261719 C 60.183594 43.851562 59.773438 41.460938 59.164062 39.121094 C 58.96875 38.390625 58.761719 37.65625 58.4375 36.972656 C 58.199219 36.46875 57.894531 35.988281 57.679688 35.480469 C 57.433594 34.90625 57.292969 34.285156 57.09375 33.695312 C 56.589844 32.195312 55.726562 30.855469 54.871094 29.535156 C 54.421875 28.847656 53.972656 28.15625 53.464844 27.507812 C 53.242188 27.222656 52.929688 26.742188 52.585938 26.632812 C 52.46875 26.972656 52.761719 27.40625 52.902344 27.699219 C 53.164062 28.242188 53.417969 28.785156 53.648438 29.34375 C 54.097656 30.421875 54.46875 31.535156 54.644531 32.691406 Z M 54.644531 32.691406 " fill-opacity="1" fill-rule="nonzero"/><path fill="#f6ce79" d="M 34.023438 29.390625 C 36.214844 28.5625 38.421875 27.738281 40.699219 27.167969 C 41.828125 26.886719 42.964844 26.664062 44.121094 26.546875 C 45.296875 26.429688 46.476562 26.421875 47.648438 26.523438 C 48.992188 26.640625 50.320312 26.894531 51.632812 27.230469 C 51.78125 27.265625 51.84375 27.042969 51.695312 27.003906 C 49.363281 26.40625 46.960938 26.082031 44.5625 26.269531 C 42.222656 26.453125 39.9375 27.058594 37.710938 27.800781 C 36.4375 28.226562 35.195312 28.699219 33.960938 29.164062 C 33.820312 29.21875 33.882812 29.445312 34.023438 29.390625 Z M 34.023438 29.390625 " fill-opacity="1" fill-rule="nonzero"/><path fill="#f6ce79" d="M 54.382812 29.566406 C 54.660156 30.070312 54.832031 30.613281 55 31.15625 C 55.179688 31.746094 55.355469 32.324219 55.535156 32.914062 C 55.890625 34.085938 56.242188 35.261719 56.597656 36.429688 C 56.769531 36.996094 56.945312 37.5625 57.148438 38.121094 C 57.347656 38.679688 57.578125 39.21875 57.789062 39.769531 C 58.207031 40.878906 58.421875 42.046875 58.652344 43.210938 C 58.921875 44.566406 59.195312 45.914062 59.472656 47.269531 C 59.503906 47.417969 59.726562 47.355469 59.695312 47.207031 C 59.457031 46 59.210938 44.789062 58.96875 43.582031 C 58.738281 42.410156 58.539062 41.21875 58.152344 40.089844 C 57.957031 39.53125 57.726562 38.988281 57.511719 38.4375 C 57.292969 37.878906 57.109375 37.308594 56.929688 36.742188 C 56.566406 35.570312 56.214844 34.394531 55.859375 33.214844 C 55.65625 32.550781 55.457031 31.890625 55.253906 31.226562 C 55.070312 30.621094 54.886719 30.007812 54.578125 29.453125 C 54.507812 29.320312 54.304688 29.4375 54.382812 29.566406 Z M 54.382812 29.566406 " fill-opacity="1" fill-rule="nonzero"/><path fill="#f6ce79" d="M 57.347656 40.5 C 57.261719 41.234375 57.164062 41.960938 57.0625 42.699219 C 57.046875 42.800781 57.195312 42.839844 57.210938 42.738281 C 57.316406 41.992188 57.417969 41.242188 57.503906 40.5 C 57.519531 40.398438 57.363281 40.40625 57.347656 40.5 Z M 57.347656 40.5 " fill-opacity="1" fill-rule="nonzero"/><path fill="#f6ce79" d="M 57.679688 41.210938 C 57.625 41.871094 57.5625 42.527344 57.480469 43.1875 C 57.464844 43.289062 57.617188 43.289062 57.632812 43.1875 C 57.710938 42.527344 57.78125 41.871094 57.835938 41.210938 C 57.84375 41.109375 57.6875 41.117188 57.679688 41.210938 Z M 57.679688 41.210938 " fill-opacity="1" fill-rule="nonzero"/><path fill="#f6ce79" d="M 56.167969 36.757812 C 56.003906 37.585938 55.867188 38.421875 55.75 39.265625 C 55.734375 39.367188 55.890625 39.40625 55.898438 39.304688 C 56.011719 38.460938 56.152344 37.625 56.3125 36.796875 C 56.328125 36.703125 56.183594 36.664062 56.167969 36.757812 Z M 56.167969 36.757812 " fill-opacity="1" fill-rule="nonzero"/><path fill="#f6ce79" d="M 58.683594 39.210938 C 58.25 38.648438 57.910156 38.011719 57.6875 37.332031 C 57.65625 37.238281 57.511719 37.277344 57.542969 37.367188 C 57.773438 38.074219 58.128906 38.730469 58.574219 39.320312 C 58.636719 39.40625 58.746094 39.289062 58.683594 39.210938 Z M 58.683594 39.210938 " fill-opacity="1" fill-rule="nonzero"/><path fill="#f6ce79" d="M 38.648438 27.996094 C 38.152344 28.507812 37.976562 29.234375 37.472656 29.730469 C 37.402344 29.800781 37.511719 29.910156 37.582031 29.839844 C 38.089844 29.34375 38.261719 28.613281 38.753906 28.105469 C 38.824219 28.035156 38.714844 27.925781 38.648438 27.996094 Z M 38.648438 27.996094 " fill-opacity="1" fill-rule="nonzero"/><path fill="#f6ce79" d="M 40.207031 26.300781 C 39.882812 26.492188 39.480469 26.414062 39.125 26.390625 C 38.699219 26.367188 38.277344 26.359375 37.851562 26.375 C 37.75 26.375 37.75 26.53125 37.851562 26.53125 C 38.300781 26.515625 38.753906 26.523438 39.203125 26.554688 C 39.566406 26.578125 39.960938 26.632812 40.285156 26.4375 C 40.367188 26.382812 40.292969 26.246094 40.207031 26.300781 Z M 40.207031 26.300781 " fill-opacity="1" fill-rule="nonzero"/><path fill="#f6ce79" d="M 41.789062 25.765625 C 41.394531 25.695312 40.988281 25.664062 40.585938 25.679688 C 40.484375 25.679688 40.484375 25.835938 40.585938 25.835938 C 40.972656 25.820312 41.363281 25.84375 41.742188 25.910156 C 41.84375 25.933594 41.890625 25.789062 41.789062 25.765625 Z M 41.789062 25.765625 " fill-opacity="1" fill-rule="nonzero"/><path fill="#f7e5ba" d="M 51.511719 32.652344 C 51.496094 32.449219 51.511719 32.25 51.558594 32.046875 L 51.933594 32.125 C 51.90625 32.285156 51.890625 32.457031 51.898438 32.628906 Z M 51.511719 32.652344 " fill-opacity="1" fill-rule="nonzero"/><path fill="#f7e5ba" d="M 52.199219 33.371094 L 52.394531 33.175781 L 52.667969 33.449219 L 52.472656 33.644531 Z M 52.199219 33.371094 " fill-opacity="1" fill-rule="nonzero"/><path fill="#f7e5ba" d="M 52.613281 32.890625 C 52.492188 32.738281 52.4375 32.535156 52.460938 32.339844 L 52.839844 32.394531 C 52.824219 32.480469 52.855469 32.574219 52.910156 32.644531 Z M 52.613281 32.890625 " fill-opacity="1" fill-rule="nonzero"/><path fill="#f7e5ba" d="M 50.136719 32 L 50.300781 31.652344 L 50.652344 31.816406 L 50.484375 32.167969 Z M 50.136719 32 " fill-opacity="1" fill-rule="nonzero"/><path fill="#f7e5ba" d="M 50.734375 33.3125 L 51.089844 33.160156 L 51.207031 33.441406 L 50.851562 33.589844 Z M 50.734375 33.3125 " fill-opacity="1" fill-rule="nonzero"/><path fill="#f7e5ba" d="M 49.269531 32.027344 L 49.421875 31.785156 L 49.746094 31.996094 L 49.59375 32.234375 Z M 49.269531 32.027344 " fill-opacity="1" fill-rule="nonzero"/><path fill="#f7e5ba" d="M 50.464844 31.078125 L 50.738281 30.804688 L 50.933594 31.003906 L 50.660156 31.277344 Z M 50.464844 31.078125 " fill-opacity="1" fill-rule="nonzero"/><path fill="#f7e5ba" d="M 53.25 34.277344 C 53.195312 34.160156 53.164062 34.03125 53.171875 33.90625 L 53.558594 33.914062 C 53.558594 33.984375 53.574219 34.046875 53.59375 34.109375 Z M 53.25 34.277344 " fill-opacity="1" fill-rule="nonzero"/><path fill="#f7e5ba" d="M 51.664062 31.863281 L 51.832031 31.511719 L 52.066406 31.625 L 51.902344 31.976562 Z M 51.664062 31.863281 " fill-opacity="1" fill-rule="nonzero"/><path fill="#f7e5ba" d="M 54.191406 34.8125 C 54.042969 34.710938 53.972656 34.527344 53.996094 34.355469 L 54.375 34.410156 C 54.367188 34.441406 54.390625 34.480469 54.414062 34.503906 Z M 54.191406 34.8125 " fill-opacity="1" fill-rule="nonzero"/><path fill="#f7e5ba" d="M 52.40625 34.886719 L 52.660156 34.59375 L 52.933594 34.835938 L 52.679688 35.125 Z M 52.40625 34.886719 " fill-opacity="1" fill-rule="nonzero"/><path fill="#f7e5ba" d="M 53.203125 33.121094 L 53.433594 32.8125 L 53.59375 32.933594 L 53.363281 33.242188 Z M 53.203125 33.121094 " fill-opacity="1" fill-rule="nonzero"/><path fill="#f7e5ba" d="M 53.710938 36.160156 C 53.632812 36.050781 53.582031 35.921875 53.566406 35.789062 L 53.949219 35.742188 C 53.957031 35.8125 53.980469 35.875 54.027344 35.9375 Z M 53.710938 36.160156 " fill-opacity="1" fill-rule="nonzero"/><path fill="#f7e5ba" d="M 49.070312 33.871094 L 49.34375 33.671875 L 49.570312 33.988281 L 49.292969 34.1875 Z M 49.070312 33.871094 " fill-opacity="1" fill-rule="nonzero"/><path fill="#f7e5ba" d="M 50.335938 35.070312 L 50.707031 34.957031 L 50.8125 35.3125 L 50.445312 35.425781 Z M 50.335938 35.070312 " fill-opacity="1" fill-rule="nonzero"/><path fill="#f7e5ba" d="M 51.4375 35.148438 L 51.476562 34.875 L 51.859375 34.929688 L 51.816406 35.203125 Z M 51.4375 35.148438 " fill-opacity="1" fill-rule="nonzero"/><path fill="#f7e5ba" d="M 48.867188 33.019531 L 49.144531 32.902344 L 49.296875 33.257812 L 49.019531 33.378906 Z M 48.867188 33.019531 " fill-opacity="1" fill-rule="nonzero"/><path fill="#f7e5ba" d="M 47.921875 32.21875 L 48.121094 32.175781 L 48.195312 32.558594 L 48 32.597656 Z M 47.921875 32.21875 " fill-opacity="1" fill-rule="nonzero"/><path fill="#f7e5ba" d="M 48.792969 35.136719 L 49.179688 35.136719 L 49.179688 35.378906 L 48.792969 35.378906 Z M 48.792969 35.136719 " fill-opacity="1" fill-rule="nonzero"/><path fill="#f7e5ba" d="M 52.015625 36.625 L 52.339844 36.417969 L 52.492188 36.660156 L 52.167969 36.867188 Z M 52.015625 36.625 " fill-opacity="1" fill-rule="nonzero"/><path fill="#f7e5ba" d="M 53.039062 36.734375 L 53.214844 36.386719 L 53.371094 36.46875 L 53.199219 36.8125 Z M 53.039062 36.734375 " fill-opacity="1" fill-rule="nonzero"/><path fill="#f7e5ba" d="M 50.746094 36.464844 L 51.066406 36.304688 L 51.238281 36.652344 L 50.917969 36.808594 Z M 50.746094 36.464844 " fill-opacity="1" fill-rule="nonzero"/><path fill="#f7e5ba" d="M 54.5 36.378906 C 54.414062 36.222656 54.359375 36.035156 54.351562 35.859375 L 54.738281 35.84375 C 54.746094 35.964844 54.777344 36.082031 54.839844 36.191406 Z M 54.5 36.378906 " fill-opacity="1" fill-rule="nonzero"/><path fill="#f7e5ba" d="M 53.523438 37.617188 L 53.605469 37.300781 L 53.980469 37.398438 L 53.898438 37.714844 Z M 53.523438 37.617188 " fill-opacity="1" fill-rule="nonzero"/><path fill="#f7e5ba" d="M 54.550781 38.03125 L 54.925781 37.9375 L 55.003906 38.253906 L 54.628906 38.347656 Z M 54.550781 38.03125 " fill-opacity="1" fill-rule="nonzero"/><path fill="#f7e5ba" d="M 54.316406 39.394531 L 54.703125 39.34375 L 54.742188 39.65625 L 54.359375 39.707031 Z M 54.316406 39.394531 " fill-opacity="1" fill-rule="nonzero"/><path fill="#f7e5ba" d="M 52.445312 37.6875 L 52.777344 37.488281 L 52.894531 37.6875 L 52.5625 37.886719 Z M 52.445312 37.6875 " fill-opacity="1" fill-rule="nonzero"/><path fill="#f7e5ba" d="M 53.433594 38.515625 L 53.761719 38.316406 L 53.882812 38.515625 L 53.550781 38.714844 Z M 53.433594 38.515625 " fill-opacity="1" fill-rule="nonzero"/><path fill="#f7e5ba" d="M 53.007812 40.3125 L 53.394531 40.3125 L 53.394531 40.550781 L 53.007812 40.550781 Z M 53.007812 40.3125 " fill-opacity="1" fill-rule="nonzero"/><path fill="#f7e5ba" d="M 54.746094 40.628906 L 55.132812 40.628906 L 55.132812 40.910156 L 54.746094 40.910156 Z M 54.746094 40.628906 " fill-opacity="1" fill-rule="nonzero"/><path fill="#f7e5ba" d="M 52.128906 39.152344 L 52.289062 38.878906 L 52.621094 39.070312 L 52.464844 39.34375 Z M 52.128906 39.152344 " fill-opacity="1" fill-rule="nonzero"/><path fill="#f7e5ba" d="M 50.957031 38.109375 L 51.15625 37.949219 L 51.394531 38.253906 L 51.195312 38.410156 Z M 50.957031 38.109375 " fill-opacity="1" fill-rule="nonzero"/><path fill="#f7e5ba" d="M 43.15625 49.175781 L 43.542969 49.175781 L 43.542969 49.453125 L 43.15625 49.453125 Z M 43.15625 49.175781 " fill-opacity="1" fill-rule="nonzero"/><path fill="#f7e5ba" d="M 43.484375 48.023438 L 43.84375 47.878906 L 43.921875 48.074219 L 43.5625 48.214844 Z M 43.484375 48.023438 " fill-opacity="1" fill-rule="nonzero"/><path fill="#f7e5ba" d="M 42.578125 46.980469 L 42.847656 46.707031 L 43.007812 46.863281 L 42.734375 47.140625 Z M 42.578125 46.980469 " fill-opacity="1" fill-rule="nonzero"/><path fill="#f7e5ba" d="M 42.4375 48.035156 L 42.675781 48.035156 L 42.675781 48.421875 L 42.4375 48.421875 Z M 42.4375 48.035156 " fill-opacity="1" fill-rule="nonzero"/><path fill="#f7e5ba" d="M 44.066406 49.089844 L 44.128906 48.707031 L 44.367188 48.746094 L 44.300781 49.128906 Z M 44.066406 49.089844 " fill-opacity="1" fill-rule="nonzero"/><path fill="#f7e5ba" d="M 45.558594 48.546875 L 45.757812 48.546875 L 45.757812 48.933594 L 45.558594 48.933594 Z M 45.558594 48.546875 " fill-opacity="1" fill-rule="nonzero"/><path fill="#f7e5ba" d="M 44.253906 47.476562 L 44.367188 47.476562 L 44.367188 47.867188 L 44.253906 47.867188 Z M 44.253906 47.476562 " fill-opacity="1" fill-rule="nonzero"/><path fill="#f7e5ba" d="M 41.410156 46.332031 L 41.652344 46.332031 L 41.652344 46.71875 L 41.410156 46.71875 Z M 41.410156 46.332031 " fill-opacity="1" fill-rule="nonzero"/><path fill="#f7e5ba" d="M 44.925781 49.460938 L 45.242188 49.460938 L 45.242188 49.847656 L 44.925781 49.847656 Z M 44.925781 49.460938 " fill-opacity="1" fill-rule="nonzero"/><path fill="#f7e5ba" d="M 45.308594 48.453125 L 45.15625 48.414062 L 45.25 48.035156 L 45.402344 48.082031 Z M 45.308594 48.453125 " fill-opacity="1" fill-rule="nonzero"/><path fill="#f7e5ba" d="M 47.449219 48.625 L 47.6875 48.625 L 47.6875 49.011719 L 47.449219 49.011719 Z M 47.449219 48.625 " fill-opacity="1" fill-rule="nonzero"/><path fill="#f7e5ba" d="M 46.183594 49.414062 L 46.382812 49.414062 L 46.382812 49.800781 L 46.183594 49.800781 Z M 46.183594 49.414062 " fill-opacity="1" fill-rule="nonzero"/><path fill="#f7e5ba" d="M 46.738281 49.183594 L 46.976562 49.183594 L 46.976562 49.570312 L 46.738281 49.570312 Z M 46.738281 49.183594 " fill-opacity="1" fill-rule="nonzero"/><path fill="#f7e5ba" d="M 48.777344 49.320312 L 48.9375 49.242188 L 49.109375 49.589844 L 48.949219 49.667969 Z M 48.777344 49.320312 " fill-opacity="1" fill-rule="nonzero"/><path fill="#f7e5ba" d="M 47.863281 49.277344 L 47.9375 49.199219 L 48.210938 49.476562 L 48.136719 49.550781 Z M 47.863281 49.277344 " fill-opacity="1" fill-rule="nonzero"/><path fill="#f7e5ba" d="M 46.722656 47.726562 L 46.996094 47.648438 L 47.101562 48.019531 L 46.828125 48.101562 Z M 46.722656 47.726562 " fill-opacity="1" fill-rule="nonzero"/><path fill="#f7e5ba" d="M 48.199219 48.035156 L 48.3125 48.035156 L 48.3125 48.421875 L 48.199219 48.421875 Z M 48.199219 48.035156 " fill-opacity="1" fill-rule="nonzero"/><path fill="#f7e5ba" d="M 49.417969 48.546875 L 49.695312 48.546875 L 49.695312 48.933594 L 49.417969 48.933594 Z M 49.417969 48.546875 " fill-opacity="1" fill-rule="nonzero"/><path fill="#f7e5ba" d="M 45.5625 47.746094 L 45.625 47.363281 L 45.863281 47.402344 L 45.796875 47.785156 Z M 45.5625 47.746094 " fill-opacity="1" fill-rule="nonzero"/><path fill="#f7e5ba" d="M 45.933594 46.609375 L 46.363281 46.566406 L 46.398438 46.953125 L 45.96875 46.992188 Z M 45.933594 46.609375 " fill-opacity="1" fill-rule="nonzero"/><path fill="#f7e5ba" d="M 44.722656 46.609375 L 45 46.609375 L 45 46.996094 L 44.722656 46.996094 Z M 44.722656 46.609375 " fill-opacity="1" fill-rule="nonzero"/><path fill="#f7e5ba" d="M 47.542969 46.933594 L 47.894531 46.816406 L 48.015625 47.1875 L 47.664062 47.300781 Z M 47.542969 46.933594 " fill-opacity="1" fill-rule="nonzero"/><path fill="#f7e5ba" d="M 48.992188 47.824219 L 49.28125 47.773438 L 49.347656 48.152344 L 49.0625 48.207031 Z M 48.992188 47.824219 " fill-opacity="1" fill-rule="nonzero"/><path fill="#f7e5ba" d="M 50.445312 48.507812 C 50.335938 48.445312 50.246094 48.355469 50.175781 48.246094 L 50.5 48.042969 C 50.53125 48.097656 50.578125 48.144531 50.628906 48.175781 Z M 50.445312 48.507812 " fill-opacity="1" fill-rule="nonzero"/><path fill="#f7e5ba" d="M 50.738281 49.132812 L 50.785156 48.75 L 50.992188 48.773438 L 50.945312 49.160156 Z M 50.738281 49.132812 " fill-opacity="1" fill-rule="nonzero"/><path fill="#f7e5ba" d="M 49.21875 47.394531 C 49.101562 47.371094 48.984375 47.324219 48.886719 47.253906 L 49.101562 46.9375 C 49.15625 46.976562 49.226562 47.003906 49.292969 47.011719 Z M 49.21875 47.394531 " fill-opacity="1" fill-rule="nonzero"/><path fill="#f7e5ba" d="M 49.996094 47.378906 L 50.152344 47.378906 L 50.152344 47.765625 L 49.996094 47.765625 Z M 49.996094 47.378906 " fill-opacity="1" fill-rule="nonzero"/><path fill="#f7e5ba" d="M 43.734375 46.898438 C 43.703125 46.796875 43.679688 46.695312 43.679688 46.59375 L 44.066406 46.59375 C 44.066406 46.65625 44.074219 46.71875 44.097656 46.773438 Z M 43.734375 46.898438 " fill-opacity="1" fill-rule="nonzero"/><path fill="#f7e5ba" d="M 45 45.796875 L 45.332031 45.597656 L 45.410156 45.730469 L 45.078125 45.929688 Z M 45 45.796875 " fill-opacity="1" fill-rule="nonzero"/><path fill="#f7e5ba" d="M 46.796875 46.507812 L 47.09375 46.257812 L 47.246094 46.441406 L 46.949219 46.691406 Z M 46.796875 46.507812 " fill-opacity="1" fill-rule="nonzero"/><path fill="#f7e5ba" d="M 48.546875 46.804688 C 48.445312 46.734375 48.375 46.625 48.335938 46.511719 L 48.707031 46.410156 C 48.714844 46.441406 48.738281 46.472656 48.761719 46.488281 Z M 48.546875 46.804688 " fill-opacity="1" fill-rule="nonzero"/><path fill="#f7e5ba" d="M 50.796875 47.695312 L 51.09375 47.441406 L 51.246094 47.625 L 50.953125 47.875 Z M 50.796875 47.695312 " fill-opacity="1" fill-rule="nonzero"/><path fill="#f7e5ba" d="M 51.453125 48.578125 L 51.644531 48.242188 L 51.828125 48.347656 L 51.636719 48.683594 Z M 51.453125 48.578125 " fill-opacity="1" fill-rule="nonzero"/><path fill="#f7e5ba" d="M 42.636719 49.714844 L 42.945312 49.484375 L 43.023438 49.589844 L 42.714844 49.820312 Z M 42.636719 49.714844 " fill-opacity="1" fill-rule="nonzero"/><g clip-path="url(#id4)"><path fill="#f7e5ba" d="M 43.011719 50.316406 L 43.109375 49.941406 L 43.316406 49.996094 L 43.21875 50.371094 Z M 43.011719 50.316406 " fill-opacity="1" fill-rule="nonzero"/></g><path fill="#f7e5ba" d="M 51.21875 46.976562 L 51.148438 46.65625 C 51.242188 46.640625 51.332031 46.65625 51.410156 46.71875 C 51.488281 46.773438 51.535156 46.859375 51.542969 46.953125 Z M 51.21875 46.976562 " fill-opacity="1" fill-rule="nonzero"/><path fill="#f7e5ba" d="M 51.574219 47.648438 L 51.753906 47.308594 L 51.914062 47.394531 L 51.730469 47.734375 Z M 51.574219 47.648438 " fill-opacity="1" fill-rule="nonzero"/><path fill="#f7e5ba" d="M 49.980469 46.75 L 50.121094 46.390625 L 50.324219 46.472656 L 50.179688 46.832031 Z M 49.980469 46.75 " fill-opacity="1" fill-rule="nonzero"/><path fill="#f7e5ba" d="M 49.117188 46.199219 L 49.242188 45.832031 L 49.59375 45.949219 L 49.46875 46.316406 Z M 49.117188 46.199219 " fill-opacity="1" fill-rule="nonzero"/><g fill="#dc3c4d" fill-opacity="0.302"><g transform="translate(6.7415, 72.141161)"><g><path d="M 0.953125 2.820312 C 1.113281 2.917969 1.261719 2.945312 1.449219 2.894531 C 1.542969 2.878906 1.636719 2.867188 1.726562 2.804688 C 2 2.695312 2.414062 2.371094 2.992188 1.828125 C 3.65625 1.226562 4.566406 0.640625 5.722656 0.0898438 C 6.855469 -0.457031 8.617188 -1.1875 11.007812 -2.082031 C 13.863281 -3.136719 15.691406 -3.902344 16.539062 -4.410156 C 16.921875 -4.609375 17.113281 -4.78125 17.097656 -4.898438 C 17.082031 -5.015625 16.785156 -5.070312 16.203125 -5.0625 C 16.0625 -5.042969 15.871094 -5.015625 15.632812 -4.984375 C 15.351562 -4.917969 15.046875 -4.851562 14.695312 -4.777344 C 13.992188 -4.605469 13.199219 -4.398438 12.265625 -4.171875 C 11.308594 -3.914062 10.375 -3.664062 9.464844 -3.414062 C 8.535156 -3.136719 7.679688 -2.871094 6.914062 -2.644531 C 6.125 -2.386719 5.59375 -2.214844 5.273438 -2.074219 C 4.886719 -1.898438 4.589844 -1.785156 4.398438 -1.757812 C 4.1875 -1.703125 4.089844 -1.714844 4.082031 -1.785156 C 4.050781 -1.828125 4.125 -2.152344 4.285156 -2.734375 C 4.445312 -3.3125 4.640625 -3.992188 4.898438 -4.753906 C 5.023438 -5.234375 5.242188 -5.917969 5.5 -6.824219 C 5.742188 -7.679688 5.996094 -8.636719 6.285156 -9.667969 C 6.429688 -10.199219 6.570312 -10.75 6.734375 -11.304688 C 6.851562 -11.855469 6.992188 -12.382812 7.136719 -12.910156 C 7.261719 -13.414062 7.402344 -13.941406 7.542969 -14.492188 C 7.6875 -15.023438 7.832031 -15.550781 7.953125 -16.050781 C 8.207031 -17.007812 8.425781 -17.859375 8.628906 -18.640625 C 8.839844 -19.394531 9 -19.972656 9.089844 -20.351562 C 9.316406 -21.15625 9.453125 -21.730469 9.480469 -22.050781 C 9.511719 -22.34375 9.457031 -22.554688 9.339844 -22.707031 C 9.230469 -22.789062 9.125 -22.871094 9.023438 -22.90625 C 8.925781 -22.914062 8.851562 -22.929688 8.777344 -22.917969 C 8.730469 -22.914062 8.710938 -22.886719 8.6875 -22.882812 C 8.484375 -22.78125 8.066406 -21.777344 7.417969 -19.847656 C 6.773438 -17.894531 5.980469 -15.289062 5.078125 -12.066406 C 4.59375 -10.351562 4.101562 -8.683594 3.625 -7.09375 C 3.125 -5.472656 2.648438 -4.050781 2.242188 -2.808594 C 2.003906 -2.097656 1.800781 -1.488281 1.609375 -0.953125 C 1.398438 -0.390625 1.199219 0.0976562 1.054688 0.457031 C 0.730469 1.226562 0.566406 1.785156 0.5625 2.097656 C 0.546875 2.171875 0.554688 2.222656 0.5625 2.269531 C 0.59375 2.503906 0.71875 2.707031 0.953125 2.820312 Z M 0.953125 2.820312 "/></g></g><g transform="translate(24.729627, 69.609894)"><g><path d="M 4.136719 -8.445312 C 4.429688 -8.949219 4.464844 -9.363281 4.222656 -9.71875 C 3.984375 -10.023438 3.578125 -10.183594 3.046875 -10.15625 L 2.882812 -10.132812 L 2.644531 -10.101562 C 2.503906 -10.058594 2.367188 -10.011719 2.226562 -9.96875 C 1.539062 -9.703125 0.875 -9.269531 0.28125 -8.65625 C -0.332031 -8.035156 -0.792969 -7.367188 -1.109375 -6.691406 C -1.300781 -6.328125 -1.421875 -5.972656 -1.46875 -5.625 C -1.523438 -5.328125 -1.539062 -5.082031 -1.503906 -4.847656 L -1.480469 -4.679688 C -1.378906 -4.285156 -1.179688 -3.921875 -0.851562 -3.632812 C -0.5625 -3.308594 -0.191406 -3.070312 0.265625 -2.941406 C 0.746094 -2.765625 1.433594 -2.71875 2.292969 -2.792969 L 2.578125 -2.832031 C 3.335938 -2.9375 4.175781 -3.175781 5.039062 -3.566406 C 5.496094 -3.773438 5.992188 -4.015625 6.507812 -4.328125 C 6.996094 -4.636719 7.507812 -4.953125 7.988281 -5.3125 C 8.871094 -5.917969 9.628906 -6.558594 10.265625 -7.203125 C 10.902344 -7.828125 11.203125 -8.257812 11.191406 -8.519531 L 11.183594 -8.566406 C 11.179688 -8.617188 11.144531 -8.683594 11.136719 -8.730469 C 11.109375 -8.773438 11.078125 -8.820312 11.078125 -8.820312 C 11.03125 -8.8125 10.671875 -8.617188 10 -8.230469 C 9.300781 -7.84375 8.5 -7.367188 7.589844 -6.78125 C 5.707031 -5.546875 4.214844 -4.78125 3.089844 -4.523438 C 1.96875 -4.246094 1.027344 -4.234375 0.285156 -4.515625 C -0.0273438 -4.667969 -0.203125 -4.882812 -0.265625 -5.164062 C -0.351562 -5.421875 -0.304688 -5.765625 -0.121094 -6.203125 C -0.0546875 -6.40625 0.0664062 -6.566406 0.246094 -6.691406 C 0.402344 -6.785156 0.679688 -6.871094 1.078125 -6.953125 C 1.785156 -7.101562 2.433594 -7.3125 3.023438 -7.589844 C 3.589844 -7.863281 3.960938 -8.132812 4.136719 -8.445312 Z M 1.90625 -8.640625 C 2.148438 -8.796875 2.355469 -8.898438 2.539062 -8.949219 C 2.683594 -8.96875 2.773438 -9.007812 2.871094 -9.019531 L 2.941406 -9.03125 C 3.015625 -9.015625 3.066406 -9 3.074219 -8.949219 C 3.078125 -8.902344 3.0625 -8.851562 3.023438 -8.773438 C 2.90625 -8.589844 2.804688 -8.453125 2.671875 -8.363281 C 2.273438 -8.089844 1.933594 -7.917969 1.699219 -7.863281 C 1.492188 -7.808594 1.347656 -7.789062 1.253906 -7.777344 L 1.183594 -7.765625 C 1.109375 -7.753906 1.082031 -7.777344 1.078125 -7.824219 C 1.070312 -7.871094 1.109375 -7.925781 1.214844 -8.035156 C 1.382812 -8.230469 1.621094 -8.433594 1.90625 -8.640625 Z M 1.90625 -8.640625 "/></g></g><g transform="translate(36.405299, 67.966909)"><g><path d="M -1.46875 -1.148438 C -1.335938 -1.070312 -1.191406 -1.066406 -1.046875 -1.085938 C -0.859375 -1.113281 -0.632812 -1.21875 -0.417969 -1.417969 C -0.0546875 -1.757812 0.496094 -2.488281 1.253906 -3.636719 C 2.050781 -4.863281 2.617188 -5.644531 2.949219 -6.03125 C 3.261719 -6.386719 3.511719 -6.519531 3.667969 -6.445312 C 3.722656 -6.40625 3.78125 -6.316406 3.847656 -6.179688 C 3.898438 -6.019531 3.921875 -5.851562 3.941406 -5.683594 C 3.9375 -5.371094 4.082031 -5.050781 4.367188 -4.730469 C 4.632812 -4.402344 4.871094 -4.242188 5.113281 -4.253906 C 5.355469 -4.261719 5.734375 -4.484375 6.230469 -4.917969 C 6.703125 -5.347656 7.503906 -6.1875 8.636719 -7.410156 C 9.289062 -8.109375 9.882812 -8.699219 10.394531 -9.207031 C 10.90625 -9.691406 11.210938 -9.925781 11.285156 -9.914062 C 11.363281 -9.875 11.433594 -9.738281 11.515625 -9.484375 C 11.578125 -9.203125 11.628906 -8.847656 11.691406 -8.421875 C 11.769531 -7.511719 11.910156 -6.855469 12.164062 -6.429688 C 12.421875 -5.984375 12.777344 -5.695312 13.277344 -5.570312 C 13.78125 -5.425781 14.359375 -5.433594 14.96875 -5.589844 C 15.550781 -5.746094 16.347656 -6.101562 17.335938 -6.652344 C 17.738281 -6.875 18.183594 -7.15625 18.621094 -7.484375 C 19.0625 -7.789062 19.503906 -8.09375 19.917969 -8.417969 C 20.683594 -9.007812 21.285156 -9.554688 21.746094 -10.054688 C 22.019531 -10.335938 22.160156 -10.546875 22.144531 -10.667969 C 22.113281 -10.710938 22.035156 -10.75 21.9375 -10.757812 C 21.867188 -10.75 21.550781 -10.582031 20.960938 -10.304688 C 20.371094 -10.03125 19.695312 -9.667969 18.953125 -9.273438 C 16.859375 -8.15625 15.449219 -7.5 14.734375 -7.253906 C 14.019531 -7.007812 13.578125 -7.042969 13.429688 -7.40625 C 13.394531 -7.5 13.363281 -7.710938 13.3125 -8.070312 C 13.265625 -8.402344 13.210938 -8.78125 13.207031 -9.167969 C 13.152344 -10.078125 13.035156 -10.714844 12.835938 -11.101562 C 12.617188 -11.457031 12.300781 -11.652344 11.859375 -11.6875 C 11.328125 -11.6875 10.796875 -11.492188 10.25 -11.097656 C 9.703125 -10.683594 8.847656 -9.859375 7.714844 -8.636719 C 6.875 -7.71875 6.28125 -7.128906 5.980469 -6.867188 C 5.679688 -6.582031 5.472656 -6.503906 5.382812 -6.636719 C 5.320312 -6.726562 5.261719 -6.816406 5.242188 -6.957031 C 5.175781 -7.070312 5.164062 -7.164062 5.148438 -7.257812 C 5.117188 -7.496094 4.960938 -7.742188 4.6875 -7.96875 C 4.390625 -8.167969 4.085938 -8.269531 3.796875 -8.277344 C 3.4375 -8.253906 3.007812 -8.023438 2.535156 -7.617188 C 2.039062 -7.183594 1.519531 -6.578125 0.949219 -5.796875 C 0.683594 -5.46875 0.453125 -5.195312 0.289062 -5 C 0.0742188 -4.800781 -0.0390625 -4.738281 -0.046875 -4.808594 C -0.0859375 -4.902344 -0.0390625 -5.269531 0.0859375 -5.917969 C 0.191406 -6.539062 0.359375 -7.261719 0.53125 -8.085938 C 0.613281 -8.53125 0.71875 -8.984375 0.851562 -9.4375 C 0.957031 -9.886719 1.070312 -10.289062 1.207031 -10.695312 C 1.429688 -11.503906 1.523438 -12.046875 1.480469 -12.355469 C 1.449219 -12.570312 1.339844 -12.675781 1.148438 -12.648438 C 1.078125 -12.640625 1.007812 -12.605469 0.964844 -12.574219 C 0.851562 -12.535156 0.628906 -12.042969 0.296875 -11.125 C -0.03125 -10.183594 -0.371094 -9.167969 -0.699219 -8.058594 C -0.878906 -7.453125 -1.039062 -6.871094 -1.199219 -6.292969 C -1.359375 -5.714844 -1.507812 -5.207031 -1.589844 -4.761719 C -1.808594 -3.738281 -1.914062 -2.925781 -1.871094 -2.300781 C -1.875 -2.15625 -1.855469 -2.011719 -1.839844 -1.894531 C -1.78125 -1.492188 -1.675781 -1.242188 -1.46875 -1.148438 Z M -1.46875 -1.148438 "/></g></g><g transform="translate(58.949786, 64.794477)"><g><path d="M 1.617188 -8.964844 C 1.304688 -9.136719 1.027344 -9.21875 0.789062 -9.1875 L 0.742188 -9.179688 C 0.503906 -9.144531 0.277344 -9.042969 0.078125 -8.894531 C -0.3125 -8.59375 -0.636719 -8.140625 -0.867188 -7.527344 C -1.117188 -6.910156 -1.289062 -6.402344 -1.371094 -5.953125 C -1.441406 -5.605469 -1.441406 -5.242188 -1.394531 -4.910156 C -1.363281 -4.695312 -1.335938 -4.507812 -1.261719 -4.324219 C -1.085938 -3.769531 -0.84375 -3.414062 -0.5 -3.222656 C -0.238281 -3.0625 0.0351562 -3.007812 0.34375 -3.050781 C 0.464844 -3.066406 0.601562 -3.109375 0.738281 -3.175781 C 1.175781 -3.335938 1.585938 -3.683594 1.976562 -4.175781 C 2.101562 -4.335938 2.242188 -4.527344 2.351562 -4.785156 C 2.46875 -4.992188 2.5625 -5.175781 2.640625 -5.308594 C 2.796875 -5.234375 3.226562 -5.269531 3.886719 -5.386719 C 4.550781 -5.503906 5.253906 -5.652344 5.976562 -5.851562 C 6.351562 -5.953125 6.699219 -6.050781 7.070312 -6.171875 C 7.417969 -6.269531 7.71875 -6.386719 7.992188 -6.496094 C 8.589844 -6.726562 9.179688 -7.003906 9.765625 -7.304688 C 10.351562 -7.605469 10.84375 -7.890625 11.199219 -8.132812 C 11.375 -8.253906 11.507812 -8.347656 11.613281 -8.457031 C 11.699219 -8.519531 11.738281 -8.597656 11.730469 -8.644531 L 11.726562 -8.667969 C 11.671875 -8.710938 11.269531 -8.652344 10.46875 -8.492188 C 9.671875 -8.308594 8.714844 -8.074219 7.640625 -7.777344 C 6.5 -7.472656 5.496094 -7.210938 4.648438 -7.042969 C 3.757812 -6.820312 3.167969 -6.738281 2.871094 -6.769531 C 2.855469 -7.058594 2.804688 -7.414062 2.722656 -7.835938 C 2.613281 -8.257812 2.25 -8.617188 1.617188 -8.964844 Z M 0.554688 -8.089844 L 0.628906 -8.097656 C 0.652344 -8.101562 0.671875 -8.128906 0.695312 -8.132812 L 0.835938 -8.152344 C 1.121094 -8.191406 1.402344 -8.085938 1.625 -7.875 C 1.765625 -7.75 1.859375 -7.59375 1.878906 -7.453125 C 1.898438 -7.308594 1.871094 -7.160156 1.796875 -7.003906 C 1.574219 -7.046875 1.335938 -7.183594 1.0625 -7.410156 C 0.792969 -7.613281 0.613281 -7.855469 0.554688 -8.089844 Z M -0.0390625 -4.398438 C -0.195312 -4.472656 -0.273438 -4.703125 -0.324219 -5.0625 C -0.339844 -5.179688 -0.363281 -5.320312 -0.363281 -5.515625 C -0.375 -6.117188 -0.269531 -6.570312 -0.0703125 -6.863281 C 0.144531 -6.53125 0.398438 -6.277344 0.71875 -6.078125 C 1.011719 -5.878906 1.25 -5.742188 1.402344 -5.691406 C 1.410156 -5.621094 1.378906 -5.519531 1.300781 -5.363281 C 1.203125 -5.203125 1.128906 -5.046875 1.046875 -4.9375 C 0.886719 -4.699219 0.71875 -4.53125 0.515625 -4.429688 C 0.425781 -4.367188 0.332031 -4.355469 0.261719 -4.34375 C 0.140625 -4.328125 0.0429688 -4.339844 -0.0390625 -4.398438 Z M -0.0390625 -4.398438 "/></g></g><g transform="translate(71.028885, 63.094722)"><g><path d="M -1.023438 -3.316406 C -0.882812 -3.191406 -0.710938 -3.167969 -0.523438 -3.195312 C -0.378906 -3.214844 -0.21875 -3.285156 -0.0429688 -3.40625 C 0.332031 -3.652344 0.769531 -4.171875 1.292969 -4.925781 C 2.519531 -6.695312 3.46875 -8.015625 4.164062 -8.933594 C 4.859375 -9.832031 5.238281 -10.246094 5.316406 -10.210938 C 5.371094 -10.167969 5.394531 -9.980469 5.394531 -9.640625 C 5.394531 -9.300781 5.378906 -8.886719 5.34375 -8.449219 C 5.246094 -7.273438 5.238281 -6.449219 5.359375 -5.933594 C 5.433594 -5.410156 5.683594 -5.011719 6.0625 -4.726562 C 6.5 -4.375 7.109375 -4.339844 7.847656 -4.589844 C 8.5625 -4.835938 9.464844 -5.324219 10.570312 -6.0625 C 11.71875 -6.851562 12.78125 -7.558594 13.707031 -8.195312 C 14.636719 -8.8125 15.183594 -9.226562 15.328125 -9.394531 C 14.851562 -9.351562 14.359375 -9.234375 13.851562 -9.039062 C 13.328125 -8.820312 12.804688 -8.578125 12.261719 -8.308594 C 11.273438 -7.78125 10.3125 -7.210938 9.375 -6.644531 C 8.4375 -6.074219 7.683594 -5.777344 7.101562 -5.765625 C 6.855469 -5.804688 6.695312 -6.074219 6.621094 -6.59375 C 6.554688 -7.070312 6.558594 -7.746094 6.675781 -8.613281 C 6.726562 -8.957031 6.742188 -9.371094 6.75 -9.808594 C 6.738281 -10.242188 6.738281 -10.582031 6.699219 -10.863281 C 6.644531 -11.246094 6.558594 -11.523438 6.488281 -11.683594 C 6.394531 -11.816406 6.238281 -11.914062 5.984375 -12 C 5.859375 -12.03125 5.734375 -12.035156 5.59375 -12.015625 C 5.261719 -11.96875 4.90625 -11.75 4.542969 -11.410156 C 3.988281 -10.871094 3.105469 -9.753906 1.910156 -8.085938 C 1 -6.820312 0.3125 -5.875 -0.132812 -5.234375 C -0.144531 -5.835938 -0.160156 -6.292969 -0.15625 -6.609375 C -0.195312 -7.765625 -0.222656 -8.464844 -0.257812 -8.722656 C -0.320312 -8.980469 -0.433594 -9.109375 -0.601562 -9.085938 C -0.742188 -9.066406 -0.875 -8.808594 -0.980469 -8.355469 C -1.109375 -7.878906 -1.175781 -7.335938 -1.238281 -6.746094 C -1.324219 -5.984375 -1.34375 -5.257812 -1.296875 -4.5625 C -1.308594 -4.316406 -1.277344 -4.105469 -1.257812 -3.9375 C -1.210938 -3.605469 -1.132812 -3.398438 -1.023438 -3.316406 Z M -1.023438 -3.316406 "/></g></g></g><g fill="#dc3c4d" fill-opacity="0.502"><g transform="translate(7.334102, 71.607391)"><g><path d="M 0.953125 2.820312 C 1.113281 2.917969 1.261719 2.945312 1.449219 2.894531 C 1.542969 2.878906 1.636719 2.867188 1.726562 2.804688 C 2 2.695312 2.414062 2.371094 2.992188 1.828125 C 3.65625 1.226562 4.566406 0.640625 5.722656 0.0898438 C 6.855469 -0.457031 8.617188 -1.1875 11.007812 -2.082031 C 13.863281 -3.136719 15.691406 -3.902344 16.539062 -4.410156 C 16.921875 -4.609375 17.113281 -4.78125 17.097656 -4.898438 C 17.082031 -5.015625 16.785156 -5.070312 16.203125 -5.0625 C 16.0625 -5.042969 15.871094 -5.015625 15.632812 -4.984375 C 15.351562 -4.917969 15.046875 -4.851562 14.695312 -4.777344 C 13.992188 -4.605469 13.199219 -4.398438 12.265625 -4.171875 C 11.308594 -3.914062 10.375 -3.664062 9.464844 -3.414062 C 8.535156 -3.136719 7.679688 -2.871094 6.914062 -2.644531 C 6.125 -2.386719 5.59375 -2.214844 5.273438 -2.074219 C 4.886719 -1.898438 4.589844 -1.785156 4.398438 -1.757812 C 4.1875 -1.703125 4.089844 -1.714844 4.082031 -1.785156 C 4.050781 -1.828125 4.125 -2.152344 4.285156 -2.734375 C 4.445312 -3.3125 4.640625 -3.992188 4.898438 -4.753906 C 5.023438 -5.234375 5.242188 -5.917969 5.5 -6.824219 C 5.742188 -7.679688 5.996094 -8.636719 6.285156 -9.667969 C 6.429688 -10.199219 6.570312 -10.75 6.734375 -11.304688 C 6.851562 -11.855469 6.992188 -12.382812 7.136719 -12.910156 C 7.261719 -13.414062 7.402344 -13.941406 7.542969 -14.492188 C 7.6875 -15.023438 7.832031 -15.550781 7.953125 -16.050781 C 8.207031 -17.007812 8.425781 -17.859375 8.628906 -18.640625 C 8.839844 -19.394531 9 -19.972656 9.089844 -20.351562 C 9.316406 -21.15625 9.453125 -21.730469 9.480469 -22.050781 C 9.511719 -22.34375 9.457031 -22.554688 9.339844 -22.707031 C 9.230469 -22.789062 9.125 -22.871094 9.023438 -22.90625 C 8.925781 -22.914062 8.851562 -22.929688 8.777344 -22.917969 C 8.730469 -22.914062 8.710938 -22.886719 8.6875 -22.882812 C 8.484375 -22.78125 8.066406 -21.777344 7.417969 -19.847656 C 6.773438 -17.894531 5.980469 -15.289062 5.078125 -12.066406 C 4.59375 -10.351562 4.101562 -8.683594 3.625 -7.09375 C 3.125 -5.472656 2.648438 -4.050781 2.242188 -2.808594 C 2.003906 -2.097656 1.800781 -1.488281 1.609375 -0.953125 C 1.398438 -0.390625 1.199219 0.0976562 1.054688 0.457031 C 0.730469 1.226562 0.566406 1.785156 0.5625 2.097656 C 0.546875 2.171875 0.554688 2.222656 0.5625 2.269531 C 0.59375 2.503906 0.71875 2.707031 0.953125 2.820312 Z M 0.953125 2.820312 "/></g></g><g transform="translate(25.322229, 69.076125)"><g><path d="M 4.136719 -8.445312 C 4.429688 -8.949219 4.464844 -9.363281 4.222656 -9.71875 C 3.984375 -10.023438 3.578125 -10.183594 3.046875 -10.15625 L 2.882812 -10.132812 L 2.644531 -10.101562 C 2.503906 -10.058594 2.367188 -10.011719 2.226562 -9.96875 C 1.539062 -9.703125 0.875 -9.269531 0.28125 -8.65625 C -0.332031 -8.035156 -0.792969 -7.367188 -1.109375 -6.691406 C -1.300781 -6.328125 -1.421875 -5.972656 -1.46875 -5.625 C -1.523438 -5.328125 -1.539062 -5.082031 -1.503906 -4.847656 L -1.480469 -4.679688 C -1.378906 -4.285156 -1.179688 -3.921875 -0.851562 -3.632812 C -0.5625 -3.308594 -0.191406 -3.070312 0.265625 -2.941406 C 0.746094 -2.765625 1.433594 -2.71875 2.292969 -2.792969 L 2.578125 -2.832031 C 3.335938 -2.9375 4.175781 -3.175781 5.039062 -3.566406 C 5.496094 -3.773438 5.992188 -4.015625 6.507812 -4.328125 C 6.996094 -4.636719 7.507812 -4.953125 7.988281 -5.3125 C 8.871094 -5.917969 9.628906 -6.558594 10.265625 -7.203125 C 10.902344 -7.828125 11.203125 -8.257812 11.191406 -8.519531 L 11.183594 -8.566406 C 11.179688 -8.617188 11.144531 -8.683594 11.136719 -8.730469 C 11.109375 -8.773438 11.078125 -8.820312 11.078125 -8.820312 C 11.03125 -8.8125 10.671875 -8.617188 10 -8.230469 C 9.300781 -7.84375 8.5 -7.367188 7.589844 -6.78125 C 5.707031 -5.546875 4.214844 -4.78125 3.089844 -4.523438 C 1.96875 -4.246094 1.027344 -4.234375 0.285156 -4.515625 C -0.0273438 -4.667969 -0.203125 -4.882812 -0.265625 -5.164062 C -0.351562 -5.421875 -0.304688 -5.765625 -0.121094 -6.203125 C -0.0546875 -6.40625 0.0664062 -6.566406 0.246094 -6.691406 C 0.402344 -6.785156 0.679688 -6.871094 1.078125 -6.953125 C 1.785156 -7.101562 2.433594 -7.3125 3.023438 -7.589844 C 3.589844 -7.863281 3.960938 -8.132812 4.136719 -8.445312 Z M 1.90625 -8.640625 C 2.148438 -8.796875 2.355469 -8.898438 2.539062 -8.949219 C 2.683594 -8.96875 2.773438 -9.007812 2.871094 -9.019531 L 2.941406 -9.03125 C 3.015625 -9.015625 3.066406 -9 3.074219 -8.949219 C 3.078125 -8.902344 3.0625 -8.851562 3.023438 -8.773438 C 2.90625 -8.589844 2.804688 -8.453125 2.671875 -8.363281 C 2.273438 -8.089844 1.933594 -7.917969 1.699219 -7.863281 C 1.492188 -7.808594 1.347656 -7.789062 1.253906 -7.777344 L 1.183594 -7.765625 C 1.109375 -7.753906 1.082031 -7.777344 1.078125 -7.824219 C 1.070312 -7.871094 1.109375 -7.925781 1.214844 -8.035156 C 1.382812 -8.230469 1.621094 -8.433594 1.90625 -8.640625 Z M 1.90625 -8.640625 "/></g></g><g transform="translate(36.997901, 67.433139)"><g><path d="M -1.46875 -1.148438 C -1.335938 -1.070312 -1.191406 -1.066406 -1.046875 -1.085938 C -0.859375 -1.113281 -0.632812 -1.21875 -0.417969 -1.417969 C -0.0546875 -1.757812 0.496094 -2.488281 1.253906 -3.636719 C 2.050781 -4.863281 2.617188 -5.644531 2.949219 -6.03125 C 3.261719 -6.386719 3.511719 -6.519531 3.667969 -6.445312 C 3.722656 -6.40625 3.78125 -6.316406 3.847656 -6.179688 C 3.898438 -6.019531 3.921875 -5.851562 3.941406 -5.683594 C 3.9375 -5.371094 4.082031 -5.050781 4.367188 -4.730469 C 4.632812 -4.402344 4.871094 -4.242188 5.113281 -4.253906 C 5.355469 -4.261719 5.734375 -4.484375 6.230469 -4.917969 C 6.703125 -5.347656 7.503906 -6.1875 8.636719 -7.410156 C 9.289062 -8.109375 9.882812 -8.699219 10.394531 -9.207031 C 10.90625 -9.691406 11.210938 -9.925781 11.285156 -9.914062 C 11.363281 -9.875 11.433594 -9.738281 11.515625 -9.484375 C 11.578125 -9.203125 11.628906 -8.847656 11.691406 -8.421875 C 11.769531 -7.511719 11.910156 -6.855469 12.164062 -6.429688 C 12.421875 -5.984375 12.777344 -5.695312 13.277344 -5.570312 C 13.78125 -5.425781 14.359375 -5.433594 14.96875 -5.589844 C 15.550781 -5.746094 16.347656 -6.101562 17.335938 -6.652344 C 17.738281 -6.875 18.183594 -7.15625 18.621094 -7.484375 C 19.0625 -7.789062 19.503906 -8.09375 19.917969 -8.417969 C 20.683594 -9.007812 21.285156 -9.554688 21.746094 -10.054688 C 22.019531 -10.335938 22.160156 -10.546875 22.144531 -10.667969 C 22.113281 -10.710938 22.035156 -10.75 21.9375 -10.757812 C 21.867188 -10.75 21.550781 -10.582031 20.960938 -10.304688 C 20.371094 -10.03125 19.695312 -9.667969 18.953125 -9.273438 C 16.859375 -8.15625 15.449219 -7.5 14.734375 -7.253906 C 14.019531 -7.007812 13.578125 -7.042969 13.429688 -7.40625 C 13.394531 -7.5 13.363281 -7.710938 13.3125 -8.070312 C 13.265625 -8.402344 13.210938 -8.78125 13.207031 -9.167969 C 13.152344 -10.078125 13.035156 -10.714844 12.835938 -11.101562 C 12.617188 -11.457031 12.300781 -11.652344 11.859375 -11.6875 C 11.328125 -11.6875 10.796875 -11.492188 10.25 -11.097656 C 9.703125 -10.683594 8.847656 -9.859375 7.714844 -8.636719 C 6.875 -7.71875 6.28125 -7.128906 5.980469 -6.867188 C 5.679688 -6.582031 5.472656 -6.503906 5.382812 -6.636719 C 5.320312 -6.726562 5.261719 -6.816406 5.242188 -6.957031 C 5.175781 -7.070312 5.164062 -7.164062 5.148438 -7.257812 C 5.117188 -7.496094 4.960938 -7.742188 4.6875 -7.96875 C 4.390625 -8.167969 4.085938 -8.269531 3.796875 -8.277344 C 3.4375 -8.253906 3.007812 -8.023438 2.535156 -7.617188 C 2.039062 -7.183594 1.519531 -6.578125 0.949219 -5.796875 C 0.683594 -5.46875 0.453125 -5.195312 0.289062 -5 C 0.0742188 -4.800781 -0.0390625 -4.738281 -0.046875 -4.808594 C -0.0859375 -4.902344 -0.0390625 -5.269531 0.0859375 -5.917969 C 0.191406 -6.539062 0.359375 -7.261719 0.53125 -8.085938 C 0.613281 -8.53125 0.71875 -8.984375 0.851562 -9.4375 C 0.957031 -9.886719 1.070312 -10.289062 1.207031 -10.695312 C 1.429688 -11.503906 1.523438 -12.046875 1.480469 -12.355469 C 1.449219 -12.570312 1.339844 -12.675781 1.148438 -12.648438 C 1.078125 -12.640625 1.007812 -12.605469 0.964844 -12.574219 C 0.851562 -12.535156 0.628906 -12.042969 0.296875 -11.125 C -0.03125 -10.183594 -0.371094 -9.167969 -0.699219 -8.058594 C -0.878906 -7.453125 -1.039062 -6.871094 -1.199219 -6.292969 C -1.359375 -5.714844 -1.507812 -5.207031 -1.589844 -4.761719 C -1.808594 -3.738281 -1.914062 -2.925781 -1.871094 -2.300781 C -1.875 -2.15625 -1.855469 -2.011719 -1.839844 -1.894531 C -1.78125 -1.492188 -1.675781 -1.242188 -1.46875 -1.148438 Z M -1.46875 -1.148438 "/></g></g><g transform="translate(59.542388, 64.260708)"><g><path d="M 1.617188 -8.964844 C 1.304688 -9.136719 1.027344 -9.21875 0.789062 -9.1875 L 0.742188 -9.179688 C 0.503906 -9.144531 0.277344 -9.042969 0.078125 -8.894531 C -0.3125 -8.59375 -0.636719 -8.140625 -0.867188 -7.527344 C -1.117188 -6.910156 -1.289062 -6.402344 -1.371094 -5.953125 C -1.441406 -5.605469 -1.441406 -5.242188 -1.394531 -4.910156 C -1.363281 -4.695312 -1.335938 -4.507812 -1.261719 -4.324219 C -1.085938 -3.769531 -0.84375 -3.414062 -0.5 -3.222656 C -0.238281 -3.0625 0.0351562 -3.007812 0.34375 -3.050781 C 0.464844 -3.066406 0.601562 -3.109375 0.738281 -3.175781 C 1.175781 -3.335938 1.585938 -3.683594 1.976562 -4.175781 C 2.101562 -4.335938 2.242188 -4.527344 2.351562 -4.785156 C 2.46875 -4.992188 2.5625 -5.175781 2.640625 -5.308594 C 2.796875 -5.234375 3.226562 -5.269531 3.886719 -5.386719 C 4.550781 -5.503906 5.253906 -5.652344 5.976562 -5.851562 C 6.351562 -5.953125 6.699219 -6.050781 7.070312 -6.171875 C 7.417969 -6.269531 7.71875 -6.386719 7.992188 -6.496094 C 8.589844 -6.726562 9.179688 -7.003906 9.765625 -7.304688 C 10.351562 -7.605469 10.84375 -7.890625 11.199219 -8.132812 C 11.375 -8.253906 11.507812 -8.347656 11.613281 -8.457031 C 11.699219 -8.519531 11.738281 -8.597656 11.730469 -8.644531 L 11.726562 -8.667969 C 11.671875 -8.710938 11.269531 -8.652344 10.46875 -8.492188 C 9.671875 -8.308594 8.714844 -8.074219 7.640625 -7.777344 C 6.5 -7.472656 5.496094 -7.210938 4.648438 -7.042969 C 3.757812 -6.820312 3.167969 -6.738281 2.871094 -6.769531 C 2.855469 -7.058594 2.804688 -7.414062 2.722656 -7.835938 C 2.613281 -8.257812 2.25 -8.617188 1.617188 -8.964844 Z M 0.554688 -8.089844 L 0.628906 -8.097656 C 0.652344 -8.101562 0.671875 -8.128906 0.695312 -8.132812 L 0.835938 -8.152344 C 1.121094 -8.191406 1.402344 -8.085938 1.625 -7.875 C 1.765625 -7.75 1.859375 -7.59375 1.878906 -7.453125 C 1.898438 -7.308594 1.871094 -7.160156 1.796875 -7.003906 C 1.574219 -7.046875 1.335938 -7.183594 1.0625 -7.410156 C 0.792969 -7.613281 0.613281 -7.855469 0.554688 -8.089844 Z M -0.0390625 -4.398438 C -0.195312 -4.472656 -0.273438 -4.703125 -0.324219 -5.0625 C -0.339844 -5.179688 -0.363281 -5.320312 -0.363281 -5.515625 C -0.375 -6.117188 -0.269531 -6.570312 -0.0703125 -6.863281 C 0.144531 -6.53125 0.398438 -6.277344 0.71875 -6.078125 C 1.011719 -5.878906 1.25 -5.742188 1.402344 -5.691406 C 1.410156 -5.621094 1.378906 -5.519531 1.300781 -5.363281 C 1.203125 -5.203125 1.128906 -5.046875 1.046875 -4.9375 C 0.886719 -4.699219 0.71875 -4.53125 0.515625 -4.429688 C 0.425781 -4.367188 0.332031 -4.355469 0.261719 -4.34375 C 0.140625 -4.328125 0.0429688 -4.339844 -0.0390625 -4.398438 Z M -0.0390625 -4.398438 "/></g></g><g transform="translate(71.621487, 62.560953)"><g><path d="M -1.023438 -3.316406 C -0.882812 -3.191406 -0.710938 -3.167969 -0.523438 -3.195312 C -0.378906 -3.214844 -0.21875 -3.285156 -0.0429688 -3.40625 C 0.332031 -3.652344 0.769531 -4.171875 1.292969 -4.925781 C 2.519531 -6.695312 3.46875 -8.015625 4.164062 -8.933594 C 4.859375 -9.832031 5.238281 -10.246094 5.316406 -10.210938 C 5.371094 -10.167969 5.394531 -9.980469 5.394531 -9.640625 C 5.394531 -9.300781 5.378906 -8.886719 5.34375 -8.449219 C 5.246094 -7.273438 5.238281 -6.449219 5.359375 -5.933594 C 5.433594 -5.410156 5.683594 -5.011719 6.0625 -4.726562 C 6.5 -4.375 7.109375 -4.339844 7.847656 -4.589844 C 8.5625 -4.835938 9.464844 -5.324219 10.570312 -6.0625 C 11.71875 -6.851562 12.78125 -7.558594 13.707031 -8.195312 C 14.636719 -8.8125 15.183594 -9.226562 15.328125 -9.394531 C 14.851562 -9.351562 14.359375 -9.234375 13.851562 -9.039062 C 13.328125 -8.820312 12.804688 -8.578125 12.261719 -8.308594 C 11.273438 -7.78125 10.3125 -7.210938 9.375 -6.644531 C 8.4375 -6.074219 7.683594 -5.777344 7.101562 -5.765625 C 6.855469 -5.804688 6.695312 -6.074219 6.621094 -6.59375 C 6.554688 -7.070312 6.558594 -7.746094 6.675781 -8.613281 C 6.726562 -8.957031 6.742188 -9.371094 6.75 -9.808594 C 6.738281 -10.242188 6.738281 -10.582031 6.699219 -10.863281 C 6.644531 -11.246094 6.558594 -11.523438 6.488281 -11.683594 C 6.394531 -11.816406 6.238281 -11.914062 5.984375 -12 C 5.859375 -12.03125 5.734375 -12.035156 5.59375 -12.015625 C 5.261719 -11.96875 4.90625 -11.75 4.542969 -11.410156 C 3.988281 -10.871094 3.105469 -9.753906 1.910156 -8.085938 C 1 -6.820312 0.3125 -5.875 -0.132812 -5.234375 C -0.144531 -5.835938 -0.160156 -6.292969 -0.15625 -6.609375 C -0.195312 -7.765625 -0.222656 -8.464844 -0.257812 -8.722656 C -0.320312 -8.980469 -0.433594 -9.109375 -0.601562 -9.085938 C -0.742188 -9.066406 -0.875 -8.808594 -0.980469 -8.355469 C -1.109375 -7.878906 -1.175781 -7.335938 -1.238281 -6.746094 C -1.324219 -5.984375 -1.34375 -5.257812 -1.296875 -4.5625 C -1.308594 -4.316406 -1.277344 -4.105469 -1.257812 -3.9375 C -1.210938 -3.605469 -1.132812 -3.398438 -1.023438 -3.316406 Z M -1.023438 -3.316406 "/></g></g></g><g fill="#ffda26" fill-opacity="1"><g transform="translate(7.926704, 71.073624)"><g><path d="M 0.953125 2.820312 C 1.113281 2.917969 1.261719 2.945312 1.449219 2.894531 C 1.542969 2.878906 1.636719 2.867188 1.726562 2.804688 C 2 2.695312 2.414062 2.371094 2.992188 1.828125 C 3.65625 1.226562 4.566406 0.640625 5.722656 0.0898438 C 6.855469 -0.457031 8.617188 -1.1875 11.007812 -2.082031 C 13.863281 -3.136719 15.691406 -3.902344 16.539062 -4.410156 C 16.921875 -4.609375 17.113281 -4.78125 17.097656 -4.898438 C 17.082031 -5.015625 16.785156 -5.070312 16.203125 -5.0625 C 16.0625 -5.042969 15.871094 -5.015625 15.632812 -4.984375 C 15.351562 -4.917969 15.046875 -4.851562 14.695312 -4.777344 C 13.992188 -4.605469 13.199219 -4.398438 12.265625 -4.171875 C 11.308594 -3.914062 10.375 -3.664062 9.464844 -3.414062 C 8.535156 -3.136719 7.679688 -2.871094 6.914062 -2.644531 C 6.125 -2.386719 5.59375 -2.214844 5.273438 -2.074219 C 4.886719 -1.898438 4.589844 -1.785156 4.398438 -1.757812 C 4.1875 -1.703125 4.089844 -1.714844 4.082031 -1.785156 C 4.050781 -1.828125 4.125 -2.152344 4.285156 -2.734375 C 4.445312 -3.3125 4.640625 -3.992188 4.898438 -4.753906 C 5.023438 -5.234375 5.242188 -5.917969 5.5 -6.824219 C 5.742188 -7.679688 5.996094 -8.636719 6.285156 -9.667969 C 6.429688 -10.199219 6.570312 -10.75 6.734375 -11.304688 C 6.851562 -11.855469 6.992188 -12.382812 7.136719 -12.910156 C 7.261719 -13.414062 7.402344 -13.941406 7.542969 -14.492188 C 7.6875 -15.023438 7.832031 -15.550781 7.953125 -16.050781 C 8.207031 -17.007812 8.425781 -17.859375 8.628906 -18.640625 C 8.839844 -19.394531 9 -19.972656 9.089844 -20.351562 C 9.316406 -21.15625 9.453125 -21.730469 9.480469 -22.050781 C 9.511719 -22.34375 9.457031 -22.554688 9.339844 -22.707031 C 9.230469 -22.789062 9.125 -22.871094 9.023438 -22.90625 C 8.925781 -22.914062 8.851562 -22.929688 8.777344 -22.917969 C 8.730469 -22.914062 8.710938 -22.886719 8.6875 -22.882812 C 8.484375 -22.78125 8.066406 -21.777344 7.417969 -19.847656 C 6.773438 -17.894531 5.980469 -15.289062 5.078125 -12.066406 C 4.59375 -10.351562 4.101562 -8.683594 3.625 -7.09375 C 3.125 -5.472656 2.648438 -4.050781 2.242188 -2.808594 C 2.003906 -2.097656 1.800781 -1.488281 1.609375 -0.953125 C 1.398438 -0.390625 1.199219 0.0976562 1.054688 0.457031 C 0.730469 1.226562 0.566406 1.785156 0.5625 2.097656 C 0.546875 2.171875 0.554688 2.222656 0.5625 2.269531 C 0.59375 2.503906 0.71875 2.707031 0.953125 2.820312 Z M 0.953125 2.820312 "/></g></g><g transform="translate(25.914831, 68.542358)"><g><path d="M 4.136719 -8.445312 C 4.429688 -8.949219 4.464844 -9.363281 4.222656 -9.71875 C 3.984375 -10.023438 3.578125 -10.183594 3.046875 -10.15625 L 2.882812 -10.132812 L 2.644531 -10.101562 C 2.503906 -10.058594 2.367188 -10.011719 2.226562 -9.96875 C 1.539062 -9.703125 0.875 -9.269531 0.28125 -8.65625 C -0.332031 -8.035156 -0.792969 -7.367188 -1.109375 -6.691406 C -1.300781 -6.328125 -1.421875 -5.972656 -1.46875 -5.625 C -1.523438 -5.328125 -1.539062 -5.082031 -1.503906 -4.847656 L -1.480469 -4.679688 C -1.378906 -4.285156 -1.179688 -3.921875 -0.851562 -3.632812 C -0.5625 -3.308594 -0.191406 -3.070312 0.265625 -2.941406 C 0.746094 -2.765625 1.433594 -2.71875 2.292969 -2.792969 L 2.578125 -2.832031 C 3.335938 -2.9375 4.175781 -3.175781 5.039062 -3.566406 C 5.496094 -3.773438 5.992188 -4.015625 6.507812 -4.328125 C 6.996094 -4.636719 7.507812 -4.953125 7.988281 -5.3125 C 8.871094 -5.917969 9.628906 -6.558594 10.265625 -7.203125 C 10.902344 -7.828125 11.203125 -8.257812 11.191406 -8.519531 L 11.183594 -8.566406 C 11.179688 -8.617188 11.144531 -8.683594 11.136719 -8.730469 C 11.109375 -8.773438 11.078125 -8.820312 11.078125 -8.820312 C 11.03125 -8.8125 10.671875 -8.617188 10 -8.230469 C 9.300781 -7.84375 8.5 -7.367188 7.589844 -6.78125 C 5.707031 -5.546875 4.214844 -4.78125 3.089844 -4.523438 C 1.96875 -4.246094 1.027344 -4.234375 0.285156 -4.515625 C -0.0273438 -4.667969 -0.203125 -4.882812 -0.265625 -5.164062 C -0.351562 -5.421875 -0.304688 -5.765625 -0.121094 -6.203125 C -0.0546875 -6.40625 0.0664062 -6.566406 0.246094 -6.691406 C 0.402344 -6.785156 0.679688 -6.871094 1.078125 -6.953125 C 1.785156 -7.101562 2.433594 -7.3125 3.023438 -7.589844 C 3.589844 -7.863281 3.960938 -8.132812 4.136719 -8.445312 Z M 1.90625 -8.640625 C 2.148438 -8.796875 2.355469 -8.898438 2.539062 -8.949219 C 2.683594 -8.96875 2.773438 -9.007812 2.871094 -9.019531 L 2.941406 -9.03125 C 3.015625 -9.015625 3.066406 -9 3.074219 -8.949219 C 3.078125 -8.902344 3.0625 -8.851562 3.023438 -8.773438 C 2.90625 -8.589844 2.804688 -8.453125 2.671875 -8.363281 C 2.273438 -8.089844 1.933594 -7.917969 1.699219 -7.863281 C 1.492188 -7.808594 1.347656 -7.789062 1.253906 -7.777344 L 1.183594 -7.765625 C 1.109375 -7.753906 1.082031 -7.777344 1.078125 -7.824219 C 1.070312 -7.871094 1.109375 -7.925781 1.214844 -8.035156 C 1.382812 -8.230469 1.621094 -8.433594 1.90625 -8.640625 Z M 1.90625 -8.640625 "/></g></g><g transform="translate(37.590503, 66.899372)"><g><path d="M -1.46875 -1.148438 C -1.335938 -1.070312 -1.191406 -1.066406 -1.046875 -1.085938 C -0.859375 -1.113281 -0.632812 -1.21875 -0.417969 -1.417969 C -0.0546875 -1.757812 0.496094 -2.488281 1.253906 -3.636719 C 2.050781 -4.863281 2.617188 -5.644531 2.949219 -6.03125 C 3.261719 -6.386719 3.511719 -6.519531 3.667969 -6.445312 C 3.722656 -6.40625 3.78125 -6.316406 3.847656 -6.179688 C 3.898438 -6.019531 3.921875 -5.851562 3.941406 -5.683594 C 3.9375 -5.371094 4.082031 -5.050781 4.367188 -4.730469 C 4.632812 -4.402344 4.871094 -4.242188 5.113281 -4.253906 C 5.355469 -4.261719 5.734375 -4.484375 6.230469 -4.917969 C 6.703125 -5.347656 7.503906 -6.1875 8.636719 -7.410156 C 9.289062 -8.109375 9.882812 -8.699219 10.394531 -9.207031 C 10.90625 -9.691406 11.210938 -9.925781 11.285156 -9.914062 C 11.363281 -9.875 11.433594 -9.738281 11.515625 -9.484375 C 11.578125 -9.203125 11.628906 -8.847656 11.691406 -8.421875 C 11.769531 -7.511719 11.910156 -6.855469 12.164062 -6.429688 C 12.421875 -5.984375 12.777344 -5.695312 13.277344 -5.570312 C 13.78125 -5.425781 14.359375 -5.433594 14.96875 -5.589844 C 15.550781 -5.746094 16.347656 -6.101562 17.335938 -6.652344 C 17.738281 -6.875 18.183594 -7.15625 18.621094 -7.484375 C 19.0625 -7.789062 19.503906 -8.09375 19.917969 -8.417969 C 20.683594 -9.007812 21.285156 -9.554688 21.746094 -10.054688 C 22.019531 -10.335938 22.160156 -10.546875 22.144531 -10.667969 C 22.113281 -10.710938 22.035156 -10.75 21.9375 -10.757812 C 21.867188 -10.75 21.550781 -10.582031 20.960938 -10.304688 C 20.371094 -10.03125 19.695312 -9.667969 18.953125 -9.273438 C 16.859375 -8.15625 15.449219 -7.5 14.734375 -7.253906 C 14.019531 -7.007812 13.578125 -7.042969 13.429688 -7.40625 C 13.394531 -7.5 13.363281 -7.710938 13.3125 -8.070312 C 13.265625 -8.402344 13.210938 -8.78125 13.207031 -9.167969 C 13.152344 -10.078125 13.035156 -10.714844 12.835938 -11.101562 C 12.617188 -11.457031 12.300781 -11.652344 11.859375 -11.6875 C 11.328125 -11.6875 10.796875 -11.492188 10.25 -11.097656 C 9.703125 -10.683594 8.847656 -9.859375 7.714844 -8.636719 C 6.875 -7.71875 6.28125 -7.128906 5.980469 -6.867188 C 5.679688 -6.582031 5.472656 -6.503906 5.382812 -6.636719 C 5.320312 -6.726562 5.261719 -6.816406 5.242188 -6.957031 C 5.175781 -7.070312 5.164062 -7.164062 5.148438 -7.257812 C 5.117188 -7.496094 4.960938 -7.742188 4.6875 -7.96875 C 4.390625 -8.167969 4.085938 -8.269531 3.796875 -8.277344 C 3.4375 -8.253906 3.007812 -8.023438 2.535156 -7.617188 C 2.039062 -7.183594 1.519531 -6.578125 0.949219 -5.796875 C 0.683594 -5.46875 0.453125 -5.195312 0.289062 -5 C 0.0742188 -4.800781 -0.0390625 -4.738281 -0.046875 -4.808594 C -0.0859375 -4.902344 -0.0390625 -5.269531 0.0859375 -5.917969 C 0.191406 -6.539062 0.359375 -7.261719 0.53125 -8.085938 C 0.613281 -8.53125 0.71875 -8.984375 0.851562 -9.4375 C 0.957031 -9.886719 1.070312 -10.289062 1.207031 -10.695312 C 1.429688 -11.503906 1.523438 -12.046875 1.480469 -12.355469 C 1.449219 -12.570312 1.339844 -12.675781 1.148438 -12.648438 C 1.078125 -12.640625 1.007812 -12.605469 0.964844 -12.574219 C 0.851562 -12.535156 0.628906 -12.042969 0.296875 -11.125 C -0.03125 -10.183594 -0.371094 -9.167969 -0.699219 -8.058594 C -0.878906 -7.453125 -1.039062 -6.871094 -1.199219 -6.292969 C -1.359375 -5.714844 -1.507812 -5.207031 -1.589844 -4.761719 C -1.808594 -3.738281 -1.914062 -2.925781 -1.871094 -2.300781 C -1.875 -2.15625 -1.855469 -2.011719 -1.839844 -1.894531 C -1.78125 -1.492188 -1.675781 -1.242188 -1.46875 -1.148438 Z M -1.46875 -1.148438 "/></g></g><g transform="translate(60.13499, 63.726941)"><g><path d="M 1.617188 -8.964844 C 1.304688 -9.136719 1.027344 -9.21875 0.789062 -9.1875 L 0.742188 -9.179688 C 0.503906 -9.144531 0.277344 -9.042969 0.078125 -8.894531 C -0.3125 -8.59375 -0.636719 -8.140625 -0.867188 -7.527344 C -1.117188 -6.910156 -1.289062 -6.402344 -1.371094 -5.953125 C -1.441406 -5.605469 -1.441406 -5.242188 -1.394531 -4.910156 C -1.363281 -4.695312 -1.335938 -4.507812 -1.261719 -4.324219 C -1.085938 -3.769531 -0.84375 -3.414062 -0.5 -3.222656 C -0.238281 -3.0625 0.0351562 -3.007812 0.34375 -3.050781 C 0.464844 -3.066406 0.601562 -3.109375 0.738281 -3.175781 C 1.175781 -3.335938 1.585938 -3.683594 1.976562 -4.175781 C 2.101562 -4.335938 2.242188 -4.527344 2.351562 -4.785156 C 2.46875 -4.992188 2.5625 -5.175781 2.640625 -5.308594 C 2.796875 -5.234375 3.226562 -5.269531 3.886719 -5.386719 C 4.550781 -5.503906 5.253906 -5.652344 5.976562 -5.851562 C 6.351562 -5.953125 6.699219 -6.050781 7.070312 -6.171875 C 7.417969 -6.269531 7.71875 -6.386719 7.992188 -6.496094 C 8.589844 -6.726562 9.179688 -7.003906 9.765625 -7.304688 C 10.351562 -7.605469 10.84375 -7.890625 11.199219 -8.132812 C 11.375 -8.253906 11.507812 -8.347656 11.613281 -8.457031 C 11.699219 -8.519531 11.738281 -8.597656 11.730469 -8.644531 L 11.726562 -8.667969 C 11.671875 -8.710938 11.269531 -8.652344 10.46875 -8.492188 C 9.671875 -8.308594 8.714844 -8.074219 7.640625 -7.777344 C 6.5 -7.472656 5.496094 -7.210938 4.648438 -7.042969 C 3.757812 -6.820312 3.167969 -6.738281 2.871094 -6.769531 C 2.855469 -7.058594 2.804688 -7.414062 2.722656 -7.835938 C 2.613281 -8.257812 2.25 -8.617188 1.617188 -8.964844 Z M 0.554688 -8.089844 L 0.628906 -8.097656 C 0.652344 -8.101562 0.671875 -8.128906 0.695312 -8.132812 L 0.835938 -8.152344 C 1.121094 -8.191406 1.402344 -8.085938 1.625 -7.875 C 1.765625 -7.75 1.859375 -7.59375 1.878906 -7.453125 C 1.898438 -7.308594 1.871094 -7.160156 1.796875 -7.003906 C 1.574219 -7.046875 1.335938 -7.183594 1.0625 -7.410156 C 0.792969 -7.613281 0.613281 -7.855469 0.554688 -8.089844 Z M -0.0390625 -4.398438 C -0.195312 -4.472656 -0.273438 -4.703125 -0.324219 -5.0625 C -0.339844 -5.179688 -0.363281 -5.320312 -0.363281 -5.515625 C -0.375 -6.117188 -0.269531 -6.570312 -0.0703125 -6.863281 C 0.144531 -6.53125 0.398438 -6.277344 0.71875 -6.078125 C 1.011719 -5.878906 1.25 -5.742188 1.402344 -5.691406 C 1.410156 -5.621094 1.378906 -5.519531 1.300781 -5.363281 C 1.203125 -5.203125 1.128906 -5.046875 1.046875 -4.9375 C 0.886719 -4.699219 0.71875 -4.53125 0.515625 -4.429688 C 0.425781 -4.367188 0.332031 -4.355469 0.261719 -4.34375 C 0.140625 -4.328125 0.0429688 -4.339844 -0.0390625 -4.398438 Z M -0.0390625 -4.398438 "/></g></g><g transform="translate(72.214089, 62.027186)"><g><path d="M -1.023438 -3.316406 C -0.882812 -3.191406 -0.710938 -3.167969 -0.523438 -3.195312 C -0.378906 -3.214844 -0.21875 -3.285156 -0.0429688 -3.40625 C 0.332031 -3.652344 0.769531 -4.171875 1.292969 -4.925781 C 2.519531 -6.695312 3.46875 -8.015625 4.164062 -8.933594 C 4.859375 -9.832031 5.238281 -10.246094 5.316406 -10.210938 C 5.371094 -10.167969 5.394531 -9.980469 5.394531 -9.640625 C 5.394531 -9.300781 5.378906 -8.886719 5.34375 -8.449219 C 5.246094 -7.273438 5.238281 -6.449219 5.359375 -5.933594 C 5.433594 -5.410156 5.683594 -5.011719 6.0625 -4.726562 C 6.5 -4.375 7.109375 -4.339844 7.847656 -4.589844 C 8.5625 -4.835938 9.464844 -5.324219 10.570312 -6.0625 C 11.71875 -6.851562 12.78125 -7.558594 13.707031 -8.195312 C 14.636719 -8.8125 15.183594 -9.226562 15.328125 -9.394531 C 14.851562 -9.351562 14.359375 -9.234375 13.851562 -9.039062 C 13.328125 -8.820312 12.804688 -8.578125 12.261719 -8.308594 C 11.273438 -7.78125 10.3125 -7.210938 9.375 -6.644531 C 8.4375 -6.074219 7.683594 -5.777344 7.101562 -5.765625 C 6.855469 -5.804688 6.695312 -6.074219 6.621094 -6.59375 C 6.554688 -7.070312 6.558594 -7.746094 6.675781 -8.613281 C 6.726562 -8.957031 6.742188 -9.371094 6.75 -9.808594 C 6.738281 -10.242188 6.738281 -10.582031 6.699219 -10.863281 C 6.644531 -11.246094 6.558594 -11.523438 6.488281 -11.683594 C 6.394531 -11.816406 6.238281 -11.914062 5.984375 -12 C 5.859375 -12.03125 5.734375 -12.035156 5.59375 -12.015625 C 5.261719 -11.96875 4.90625 -11.75 4.542969 -11.410156 C 3.988281 -10.871094 3.105469 -9.753906 1.910156 -8.085938 C 1 -6.820312 0.3125 -5.875 -0.132812 -5.234375 C -0.144531 -5.835938 -0.160156 -6.292969 -0.15625 -6.609375 C -0.195312 -7.765625 -0.222656 -8.464844 -0.257812 -8.722656 C -0.320312 -8.980469 -0.433594 -9.109375 -0.601562 -9.085938 C -0.742188 -9.066406 -0.875 -8.808594 -0.980469 -8.355469 C -1.109375 -7.878906 -1.175781 -7.335938 -1.238281 -6.746094 C -1.324219 -5.984375 -1.34375 -5.257812 -1.296875 -4.5625 C -1.308594 -4.316406 -1.277344 -4.105469 -1.257812 -3.9375 C -1.210938 -3.605469 -1.132812 -3.398438 -1.023438 -3.316406 Z M -1.023438 -3.316406 "/></g></g></g></svg>