<svg xmlns="http://www.w3.org/2000/svg" xmlns:xlink="http://www.w3.org/1999/xlink" width="125" zoomAndPan="magnify" viewBox="0 0 93.75 93.749997" height="125" preserveAspectRatio="xMidYMid meet" version="1.0"><defs><clipPath id="id1"><path d="M 15.726562 18.273438 L 59 18.273438 L 59 31 L 15.726562 31 Z M 15.726562 18.273438 " clip-rule="nonzero"/></clipPath><clipPath id="id2"><path d="M 59 22 L 77.976562 22 L 77.976562 74 L 59 74 Z M 59 22 " clip-rule="nonzero"/></clipPath><clipPath id="id3"><path d="M 46.875 59 L 55 59 L 55 67 L 46.875 67 Z M 46.875 59 " clip-rule="nonzero"/></clipPath><clipPath id="id4"><path d="M 51 51.324219 L 63 51.324219 L 63 67 L 51 67 Z M 51 51.324219 " clip-rule="nonzero"/></clipPath><clipPath id="id5"><path d="M 62 60 L 70.125 60 L 70.125 68 L 62 68 Z M 62 60 " clip-rule="nonzero"/></clipPath><clipPath id="id6"><path d="M 54 60 L 66 60 L 66 75.324219 L 54 75.324219 Z M 54 60 " clip-rule="nonzero"/></clipPath></defs><path fill="#427638" d="M 52.898438 36.792969 C 52.457031 36.625 52.121094 36.289062 51.9375 35.832031 C 51.714844 35.296875 51.75 34.605469 52.019531 34.015625 C 52.476562 33.058594 53.285156 32.503906 54.011719 32.015625 C 54.5 31.679688 54.972656 31.359375 55.222656 30.972656 C 55.613281 30.351562 55.527344 29.476562 55.445312 28.464844 C 55.375 27.691406 55.292969 26.886719 55.425781 26.042969 C 55.664062 24.496094 56.65625 23.050781 58.089844 22.160156 C 59.339844 21.386719 60.90625 21.03125 62.511719 21.148438 C 65.089844 21.335938 67.453125 22.765625 68.683594 24.851562 C 69.308594 25.910156 69.609375 27.070312 69.914062 28.179688 C 70.082031 28.820312 70.25 29.441406 70.46875 30.015625 C 70.941406 31.257812 71.972656 32.554688 73.167969 32.46875 L 73.304688 34.65625 C 70.839844 34.808594 69.136719 32.671875 68.414062 30.789062 C 68.160156 30.097656 67.972656 29.410156 67.789062 28.734375 C 67.519531 27.726562 67.265625 26.769531 66.792969 25.960938 C 65.917969 24.480469 64.230469 23.488281 62.359375 23.335938 C 61.210938 23.253906 60.117188 23.488281 59.253906 24.027344 C 58.359375 24.582031 57.753906 25.457031 57.601562 26.382812 C 57.519531 26.9375 57.570312 27.574219 57.636719 28.246094 C 57.753906 29.476562 57.890625 30.886719 57.078125 32.132812 C 56.589844 32.890625 55.882812 33.378906 55.257812 33.796875 C 54.703125 34.183594 54.210938 34.519531 54.011719 34.941406 C 53.992188 34.976562 53.992188 35.027344 53.992188 35.042969 C 53.992188 34.976562 53.890625 34.789062 53.691406 34.722656 Z M 52.898438 36.792969 " fill-opacity="1" fill-rule="nonzero"/><path fill="#fbde1b" d="M 52.019531 30.0625 C 48.933594 30.855469 45.832031 31.644531 42.929688 32.957031 C 40.46875 34.066406 38.171875 35.53125 35.980469 37.113281 C 34.816406 37.9375 33.652344 38.828125 32.878906 40.003906 C 32.269531 40.914062 31.917969 41.972656 31.597656 43.015625 C 30.5 46.546875 29.640625 50.179688 29.65625 53.878906 C 29.671875 57.582031 30.601562 61.347656 32.792969 64.308594 C 33.753906 65.601562 34.953125 66.765625 35.644531 68.226562 C 36.183594 69.40625 36.367188 70.699219 36.789062 71.925781 C 37.210938 73.15625 38.003906 74.347656 39.234375 74.753906 C 40.753906 75.242188 42.304688 74.367188 43.804688 73.828125 C 47.683594 72.449219 52.136719 73.355469 55.964844 71.792969 C 59.710938 70.261719 62.171875 66.644531 63.910156 62.996094 C 65.730469 59.128906 66.996094 54.957031 67.214844 50.683594 C 67.433594 46.414062 66.523438 42.039062 64.296875 38.390625 C 63.589844 37.246094 62.78125 36.1875 61.953125 35.125 C 61.144531 34.066406 60.285156 32.992188 59.101562 32.367188 C 58.511719 32.050781 57.871094 31.863281 57.296875 31.511719 C 56.371094 30.9375 56.457031 29.996094 55.359375 29.746094 C 54.261719 29.457031 53.046875 29.796875 52.019531 30.0625 Z M 52.019531 30.0625 " fill-opacity="1" fill-rule="nonzero"/><path fill="#ecb81d" d="M 65.648438 40.441406 C 67.855469 44.597656 67.316406 49.609375 66.726562 54.265625 C 66.539062 55.730469 66.355469 57.210938 65.984375 58.65625 C 65.125 62.039062 63.320312 65.097656 61.3125 67.941406 C 60.738281 68.75 60.148438 69.554688 59.390625 70.195312 C 58.632812 70.835938 57.738281 71.304688 56.828125 71.691406 C 54.632812 72.617188 52.257812 73.15625 49.878906 73.238281 C 48.292969 73.304688 46.671875 73.171875 45.121094 73.476562 C 43.757812 73.742188 42.492188 74.347656 41.125 74.667969 C 40.90625 74.71875 40.6875 74.753906 40.484375 74.667969 C 40.128906 74.519531 40.046875 74.03125 40.199219 73.675781 C 40.347656 73.324219 40.6875 73.089844 41.007812 72.886719 C 44.597656 70.515625 48.96875 69.472656 52.476562 66.984375 C 53.640625 66.160156 54.703125 65.167969 55.746094 64.191406 C 56.640625 63.351562 57.570312 62.492188 58.089844 61.382812 C 58.378906 60.757812 58.546875 60.070312 58.683594 59.398438 C 59.1875 57.074219 59.59375 54.722656 60.367188 52.46875 C 60.722656 51.441406 61.160156 50.433594 61.449219 49.371094 C 62.289062 46.34375 61.988281 43.167969 62.019531 40.070312 C 62.039062 39.195312 61.785156 36.21875 62.914062 36.707031 C 63.945312 37.195312 65.15625 39.5 65.648438 40.441406 Z M 65.648438 40.441406 " fill-opacity="1" fill-rule="nonzero"/><path fill="#f7e5ba" d="M 37.921875 36.742188 C 37.261719 36.992188 36.570312 37.28125 36.082031 37.800781 C 35.507812 38.421875 35.304688 39.28125 34.96875 40.070312 C 34.3125 41.585938 33.082031 42.949219 33.148438 44.578125 C 34.34375 43.972656 35.390625 43.082031 36.21875 42.023438 C 36.910156 41.113281 37.429688 40.089844 38.105469 39.164062 C 38.847656 38.136719 39.808594 37.28125 40.871094 36.605469 C 41.597656 36.152344 43.265625 35.816406 43.570312 34.976562 C 41.679688 35.195312 39.691406 36.070312 37.921875 36.742188 Z M 37.921875 36.742188 " fill-opacity="1" fill-rule="nonzero"/><g clip-path="url(#id1)"><path fill="#427638" d="M 54.109375 21.636719 C 52.796875 21.183594 51.597656 20.410156 50.230469 20.105469 C 49.289062 19.886719 48.308594 19.90625 47.363281 19.71875 C 46.589844 19.570312 45.847656 19.300781 45.089844 19.097656 C 43.890625 18.777344 42.660156 18.628906 41.429688 18.542969 C 37.953125 18.308594 34.464844 18.59375 31.074219 19.417969 C 29.792969 19.71875 28.527344 20.105469 27.363281 20.746094 C 25.40625 21.789062 23.871094 23.503906 21.933594 24.613281 C 20.972656 25.167969 19.910156 25.558594 18.964844 26.164062 C 17.699219 26.96875 16.703125 28.113281 15.726562 29.238281 C 18.523438 29.726562 21.324219 30.214844 24.125 30.71875 C 24.800781 30.839844 25.507812 30.957031 26.183594 30.855469 C 27.027344 30.71875 27.765625 30.28125 28.542969 29.914062 C 30.9375 28.785156 33.636719 28.5 36.046875 27.457031 C 37.195312 26.96875 38.257812 26.3125 39.40625 25.859375 C 40.230469 25.539062 41.074219 25.320312 41.933594 25.121094 C 42.863281 24.882812 43.789062 24.664062 44.75 24.613281 C 45.476562 24.582031 46.21875 24.648438 46.925781 24.816406 C 47.484375 24.953125 48.023438 25.152344 48.597656 25.253906 C 49.136719 25.339844 49.675781 25.320312 50.214844 25.304688 C 52.527344 25.238281 55.375 25.339844 57.535156 24.394531 C 60.148438 23.234375 54.921875 21.90625 54.109375 21.636719 Z M 54.109375 21.636719 " fill-opacity="1" fill-rule="nonzero"/></g><g clip-path="url(#id2)"><path fill="#427638" d="M 63.945312 35.730469 C 64.128906 36.960938 64.230469 38.1875 64.414062 39.414062 C 64.636719 40.777344 64.972656 42.125 65.242188 43.484375 C 65.75 46.027344 66.050781 48.597656 66.136719 51.171875 C 66.1875 53.105469 66.136719 55.058594 66.660156 56.925781 C 67.636719 60.421875 70.46875 63.011719 72.546875 65.992188 C 73.707031 67.65625 74.652344 69.488281 75.445312 71.355469 C 75.75 72.078125 76.171875 72.917969 76.945312 73.003906 C 77.976562 71.691406 77.234375 69.808594 76.878906 68.195312 C 76.660156 67.21875 76.59375 66.207031 76.492188 65.199219 C 76.035156 59.96875 75.140625 54.773438 73.808594 49.691406 C 73.386719 48.113281 72.933594 46.511719 72.222656 45.035156 C 71.703125 43.941406 71.042969 42.898438 70.570312 41.789062 C 70.03125 40.542969 69.730469 39.195312 69.289062 37.917969 C 68.195312 34.65625 66.304688 31.746094 64.433594 28.886719 C 63.453125 27.390625 62.476562 25.894531 61.363281 24.480469 C 60.875 23.859375 60.199219 22.816406 59.441406 22.578125 C 59.1875 23.320312 59.828125 24.261719 60.132812 24.902344 C 60.707031 26.078125 61.261719 27.253906 61.769531 28.464844 C 62.746094 30.804688 63.554688 33.226562 63.945312 35.730469 Z M 63.945312 35.730469 " fill-opacity="1" fill-rule="nonzero"/></g><path fill="#f6ce79" d="M 18.894531 28.566406 C 23.6875 26.769531 28.507812 24.984375 33.484375 23.742188 C 35.945312 23.136719 38.425781 22.648438 40.957031 22.394531 C 43.519531 22.140625 46.101562 22.125 48.664062 22.34375 C 51.597656 22.597656 54.5 23.152344 57.367188 23.875 C 57.6875 23.957031 57.820312 23.472656 57.5 23.386719 C 52.40625 22.09375 47.164062 21.386719 41.917969 21.789062 C 36.808594 22.191406 31.816406 23.503906 26.957031 25.121094 C 24.175781 26.042969 21.460938 27.070312 18.761719 28.078125 C 18.457031 28.199219 18.59375 28.683594 18.894531 28.566406 Z M 18.894531 28.566406 " fill-opacity="1" fill-rule="nonzero"/><path fill="#f6ce79" d="M 63.371094 28.953125 C 63.976562 30.046875 64.347656 31.226562 64.71875 32.402344 C 65.105469 33.679688 65.496094 34.941406 65.882812 36.21875 C 66.660156 38.761719 67.433594 41.316406 68.210938 43.855469 C 68.582031 45.082031 68.96875 46.3125 69.40625 47.523438 C 69.847656 48.734375 70.351562 49.910156 70.808594 51.105469 C 71.71875 53.511719 72.191406 56.050781 72.695312 58.574219 C 73.285156 61.515625 73.878906 64.441406 74.484375 67.386719 C 74.550781 67.707031 75.042969 67.570312 74.972656 67.25 C 74.449219 64.628906 73.910156 62.003906 73.386719 59.378906 C 72.882812 56.839844 72.445312 54.25 71.601562 51.792969 C 71.179688 50.582031 70.671875 49.40625 70.199219 48.210938 C 69.730469 47 69.324219 45.757812 68.9375 44.527344 C 68.144531 41.988281 67.367188 39.433594 66.589844 36.875 C 66.152344 35.429688 65.714844 34 65.277344 32.554688 C 64.871094 31.242188 64.464844 29.914062 63.792969 28.703125 C 63.640625 28.417969 63.203125 28.667969 63.371094 28.953125 Z M 63.371094 28.953125 " fill-opacity="1" fill-rule="nonzero"/><path fill="#f6ce79" d="M 69.847656 52.6875 C 69.660156 54.285156 69.441406 55.863281 69.222656 57.460938 C 69.1875 57.679688 69.507812 57.765625 69.542969 57.546875 C 69.777344 55.933594 70 54.300781 70.183594 52.6875 C 70.21875 52.46875 69.878906 52.484375 69.847656 52.6875 Z M 69.847656 52.6875 " fill-opacity="1" fill-rule="nonzero"/><path fill="#f6ce79" d="M 70.570312 54.234375 C 70.453125 55.664062 70.320312 57.09375 70.132812 58.523438 C 70.097656 58.742188 70.4375 58.742188 70.46875 58.523438 C 70.640625 57.09375 70.792969 55.664062 70.910156 54.234375 C 70.925781 54.015625 70.589844 54.03125 70.570312 54.234375 Z M 70.570312 54.234375 " fill-opacity="1" fill-rule="nonzero"/><path fill="#f6ce79" d="M 67.265625 44.5625 C 66.910156 46.363281 66.609375 48.179688 66.355469 50.011719 C 66.320312 50.230469 66.660156 50.316406 66.675781 50.097656 C 66.929688 48.261719 67.234375 46.445312 67.585938 44.648438 C 67.621094 44.445312 67.300781 44.359375 67.265625 44.5625 Z M 67.265625 44.5625 " fill-opacity="1" fill-rule="nonzero"/><path fill="#f6ce79" d="M 72.765625 49.894531 C 71.820312 48.667969 71.078125 47.289062 70.589844 45.808594 C 70.519531 45.605469 70.199219 45.6875 70.269531 45.890625 C 70.773438 47.421875 71.550781 48.851562 72.527344 50.128906 C 72.664062 50.316406 72.898438 50.0625 72.765625 49.894531 Z M 72.765625 49.894531 " fill-opacity="1" fill-rule="nonzero"/><path fill="#f6ce79" d="M 29 25.539062 C 27.917969 26.648438 27.53125 28.230469 26.433594 29.308594 C 26.285156 29.457031 26.519531 29.695312 26.671875 29.542969 C 27.785156 28.464844 28.15625 26.886719 29.234375 25.777344 C 29.386719 25.625 29.152344 25.386719 29 25.539062 Z M 29 25.539062 " fill-opacity="1" fill-rule="nonzero"/><path fill="#f6ce79" d="M 32.40625 21.855469 C 31.695312 22.277344 30.820312 22.109375 30.042969 22.058594 C 29.117188 22.007812 28.1875 21.992188 27.261719 22.023438 C 27.042969 22.023438 27.042969 22.359375 27.261719 22.359375 C 28.238281 22.328125 29.234375 22.34375 30.214844 22.410156 C 31.003906 22.460938 31.867188 22.578125 32.574219 22.160156 C 32.757812 22.042969 32.589844 21.738281 32.40625 21.855469 Z M 32.40625 21.855469 " fill-opacity="1" fill-rule="nonzero"/><path fill="#f6ce79" d="M 35.863281 20.695312 C 35.003906 20.542969 34.109375 20.476562 33.230469 20.511719 C 33.011719 20.511719 33.011719 20.847656 33.230469 20.847656 C 34.074219 20.8125 34.933594 20.863281 35.761719 21.015625 C 35.980469 21.066406 36.082031 20.746094 35.863281 20.695312 Z M 35.863281 20.695312 " fill-opacity="1" fill-rule="nonzero"/><path fill="#f7e5ba" d="M 57.097656 35.648438 C 57.0625 35.210938 57.097656 34.773438 57.199219 34.335938 L 58.023438 34.503906 C 57.957031 34.859375 57.921875 35.226562 57.941406 35.597656 Z M 57.097656 35.648438 " fill-opacity="1" fill-rule="nonzero"/><path fill="#f7e5ba" d="M 58.601562 37.210938 L 59.03125 36.78125 L 59.625 37.378906 L 59.195312 37.804688 Z M 58.601562 37.210938 " fill-opacity="1" fill-rule="nonzero"/><path fill="#f7e5ba" d="M 59.507812 36.167969 C 59.238281 35.832031 59.121094 35.394531 59.171875 34.976562 L 59.996094 35.09375 C 59.964844 35.277344 60.03125 35.480469 60.148438 35.632812 Z M 59.507812 36.167969 " fill-opacity="1" fill-rule="nonzero"/><path fill="#f7e5ba" d="M 54.09375 34.238281 L 54.457031 33.476562 L 55.21875 33.839844 L 54.855469 34.597656 Z M 54.09375 34.238281 " fill-opacity="1" fill-rule="nonzero"/><path fill="#f7e5ba" d="M 55.398438 37.085938 L 56.175781 36.757812 L 56.433594 37.359375 L 55.65625 37.691406 Z M 55.398438 37.085938 " fill-opacity="1" fill-rule="nonzero"/><path fill="#f7e5ba" d="M 52.199219 34.292969 L 52.535156 33.769531 L 53.246094 34.222656 L 52.90625 34.746094 Z M 52.199219 34.292969 " fill-opacity="1" fill-rule="nonzero"/><path fill="#f7e5ba" d="M 54.8125 32.234375 L 55.410156 31.640625 L 55.839844 32.066406 L 55.242188 32.664062 Z M 54.8125 32.234375 " fill-opacity="1" fill-rule="nonzero"/><path fill="#f7e5ba" d="M 60.890625 39.179688 C 60.773438 38.929688 60.707031 38.640625 60.722656 38.371094 L 61.566406 38.390625 C 61.566406 38.542969 61.597656 38.675781 61.648438 38.808594 Z M 60.890625 39.179688 " fill-opacity="1" fill-rule="nonzero"/><path fill="#f7e5ba" d="M 57.429688 33.9375 L 57.792969 33.175781 L 58.3125 33.421875 L 57.949219 34.179688 Z M 57.429688 33.9375 " fill-opacity="1" fill-rule="nonzero"/><path fill="#f7e5ba" d="M 62.949219 40.339844 C 62.628906 40.121094 62.476562 39.71875 62.527344 39.347656 L 63.351562 39.464844 C 63.335938 39.535156 63.386719 39.617188 63.4375 39.667969 Z M 62.949219 40.339844 " fill-opacity="1" fill-rule="nonzero"/><path fill="#f7e5ba" d="M 59.050781 40.5 L 59.605469 39.867188 L 60.203125 40.390625 L 59.648438 41.023438 Z M 59.050781 40.5 " fill-opacity="1" fill-rule="nonzero"/><path fill="#f7e5ba" d="M 60.789062 36.667969 L 61.296875 35.996094 L 61.648438 36.257812 L 61.140625 36.929688 Z M 60.789062 36.667969 " fill-opacity="1" fill-rule="nonzero"/><path fill="#f7e5ba" d="M 61.902344 43.265625 C 61.734375 43.03125 61.617188 42.746094 61.582031 42.460938 L 62.425781 42.359375 C 62.441406 42.511719 62.492188 42.644531 62.59375 42.78125 Z M 61.902344 43.265625 " fill-opacity="1" fill-rule="nonzero"/><path fill="#f7e5ba" d="M 51.761719 38.296875 L 52.367188 37.867188 L 52.855469 38.550781 L 52.253906 38.980469 Z M 51.761719 38.296875 " fill-opacity="1" fill-rule="nonzero"/><path fill="#f7e5ba" d="M 54.53125 40.902344 L 55.335938 40.65625 L 55.574219 41.425781 L 54.769531 41.675781 Z M 54.53125 40.902344 " fill-opacity="1" fill-rule="nonzero"/><path fill="#f7e5ba" d="M 56.933594 41.074219 L 57.019531 40.472656 L 57.855469 40.59375 L 57.769531 41.191406 Z M 56.933594 41.074219 " fill-opacity="1" fill-rule="nonzero"/><path fill="#f7e5ba" d="M 51.328125 36.453125 L 51.929688 36.191406 L 52.261719 36.964844 L 51.660156 37.222656 Z M 51.328125 36.453125 " fill-opacity="1" fill-rule="nonzero"/><path fill="#f7e5ba" d="M 49.261719 34.707031 L 49.691406 34.621094 L 49.855469 35.445312 L 49.425781 35.53125 Z M 49.261719 34.707031 " fill-opacity="1" fill-rule="nonzero"/><path fill="#f7e5ba" d="M 51.160156 41.046875 L 52.003906 41.046875 L 52.003906 41.570312 L 51.160156 41.570312 Z M 51.160156 41.046875 " fill-opacity="1" fill-rule="nonzero"/><path fill="#f7e5ba" d="M 58.195312 44.28125 L 58.90625 43.824219 L 59.242188 44.351562 L 58.53125 44.804688 Z M 58.195312 44.28125 " fill-opacity="1" fill-rule="nonzero"/><path fill="#f7e5ba" d="M 60.4375 44.511719 L 60.816406 43.761719 L 61.164062 43.933594 L 60.78125 44.6875 Z M 60.4375 44.511719 " fill-opacity="1" fill-rule="nonzero"/><path fill="#f7e5ba" d="M 55.429688 43.925781 L 56.121094 43.578125 L 56.5 44.332031 L 55.804688 44.675781 Z M 55.429688 43.925781 " fill-opacity="1" fill-rule="nonzero"/><path fill="#f7e5ba" d="M 63.625 43.738281 C 63.4375 43.402344 63.320312 43 63.304688 42.613281 L 64.144531 42.578125 C 64.164062 42.847656 64.230469 43.097656 64.367188 43.335938 Z M 63.625 43.738281 " fill-opacity="1" fill-rule="nonzero"/><path fill="#f7e5ba" d="M 61.496094 46.429688 L 61.675781 45.746094 L 62.492188 45.957031 L 62.3125 46.640625 Z M 61.496094 46.429688 " fill-opacity="1" fill-rule="nonzero"/><path fill="#f7e5ba" d="M 63.738281 47.332031 L 64.558594 47.128906 L 64.730469 47.816406 L 63.910156 48.019531 Z M 63.738281 47.332031 " fill-opacity="1" fill-rule="nonzero"/><path fill="#f7e5ba" d="M 63.230469 50.285156 L 64.066406 50.179688 L 64.152344 50.863281 L 63.316406 50.96875 Z M 63.230469 50.285156 " fill-opacity="1" fill-rule="nonzero"/><path fill="#f7e5ba" d="M 59.136719 46.585938 L 59.859375 46.152344 L 60.117188 46.585938 L 59.394531 47.019531 Z M 59.136719 46.585938 " fill-opacity="1" fill-rule="nonzero"/><path fill="#f7e5ba" d="M 61.292969 48.378906 L 62.015625 47.949219 L 62.277344 48.378906 L 61.550781 48.8125 Z M 61.292969 48.378906 " fill-opacity="1" fill-rule="nonzero"/><path fill="#f7e5ba" d="M 60.367188 52.28125 L 61.210938 52.28125 L 61.210938 52.804688 L 60.367188 52.804688 Z M 60.367188 52.28125 " fill-opacity="1" fill-rule="nonzero"/><path fill="#f7e5ba" d="M 64.164062 52.972656 L 65.007812 52.972656 L 65.007812 53.578125 L 64.164062 53.578125 Z M 64.164062 52.972656 " fill-opacity="1" fill-rule="nonzero"/><path fill="#f7e5ba" d="M 58.449219 49.765625 L 58.792969 49.167969 L 59.523438 49.585938 L 59.179688 50.183594 Z M 58.449219 49.765625 " fill-opacity="1" fill-rule="nonzero"/><path fill="#f7e5ba" d="M 55.882812 47.5 L 56.320312 47.152344 L 56.84375 47.808594 L 56.410156 48.15625 Z M 55.882812 47.5 " fill-opacity="1" fill-rule="nonzero"/><path fill="#f7e5ba" d="M 38.847656 71.523438 L 39.691406 71.523438 L 39.691406 72.128906 L 38.847656 72.128906 Z M 38.847656 71.523438 " fill-opacity="1" fill-rule="nonzero"/><path fill="#f7e5ba" d="M 39.566406 69.019531 L 40.347656 68.710938 L 40.515625 69.128906 L 39.734375 69.441406 Z M 39.566406 69.019531 " fill-opacity="1" fill-rule="nonzero"/><path fill="#f7e5ba" d="M 37.582031 66.757812 L 38.179688 66.164062 L 38.523438 66.507812 L 37.929688 67.105469 Z M 37.582031 66.757812 " fill-opacity="1" fill-rule="nonzero"/><path fill="#f7e5ba" d="M 37.28125 69.050781 L 37.800781 69.050781 L 37.800781 69.890625 L 37.28125 69.890625 Z M 37.28125 69.050781 " fill-opacity="1" fill-rule="nonzero"/><path fill="#f7e5ba" d="M 40.835938 71.339844 L 40.976562 70.511719 L 41.492188 70.597656 L 41.351562 71.425781 Z M 40.835938 71.339844 " fill-opacity="1" fill-rule="nonzero"/><path fill="#f7e5ba" d="M 44.09375 70.160156 L 44.53125 70.160156 L 44.53125 71.003906 L 44.09375 71.003906 Z M 44.09375 70.160156 " fill-opacity="1" fill-rule="nonzero"/><path fill="#f7e5ba" d="M 41.242188 67.839844 L 41.496094 67.839844 L 41.496094 68.679688 L 41.242188 68.679688 Z M 41.242188 67.839844 " fill-opacity="1" fill-rule="nonzero"/><path fill="#f7e5ba" d="M 35.035156 65.351562 L 35.558594 65.351562 L 35.558594 66.191406 L 35.035156 66.191406 Z M 35.035156 65.351562 " fill-opacity="1" fill-rule="nonzero"/><path fill="#f7e5ba" d="M 42.710938 72.144531 L 43.402344 72.144531 L 43.402344 72.988281 L 42.710938 72.988281 Z M 42.710938 72.144531 " fill-opacity="1" fill-rule="nonzero"/><path fill="#f7e5ba" d="M 43.554688 69.960938 L 43.214844 69.875 L 43.417969 69.050781 L 43.757812 69.152344 Z M 43.554688 69.960938 " fill-opacity="1" fill-rule="nonzero"/><path fill="#f7e5ba" d="M 48.226562 70.328125 L 48.746094 70.328125 L 48.746094 71.171875 L 48.226562 71.171875 Z M 48.226562 70.328125 " fill-opacity="1" fill-rule="nonzero"/><path fill="#f7e5ba" d="M 45.460938 72.046875 L 45.898438 72.046875 L 45.898438 72.886719 L 45.460938 72.886719 Z M 45.460938 72.046875 " fill-opacity="1" fill-rule="nonzero"/><path fill="#f7e5ba" d="M 46.671875 71.539062 L 47.195312 71.539062 L 47.195312 72.382812 L 46.671875 72.382812 Z M 46.671875 71.539062 " fill-opacity="1" fill-rule="nonzero"/><path fill="#f7e5ba" d="M 51.125 71.84375 L 51.472656 71.667969 L 51.851562 72.421875 L 51.503906 72.59375 Z M 51.125 71.84375 " fill-opacity="1" fill-rule="nonzero"/><path fill="#f7e5ba" d="M 49.128906 71.746094 L 49.296875 71.582031 L 49.890625 72.175781 L 49.726562 72.339844 Z M 49.128906 71.746094 " fill-opacity="1" fill-rule="nonzero"/><path fill="#f7e5ba" d="M 46.636719 68.382812 L 47.238281 68.210938 L 47.46875 69.019531 L 46.867188 69.191406 Z M 46.636719 68.382812 " fill-opacity="1" fill-rule="nonzero"/><path fill="#f7e5ba" d="M 49.859375 69.050781 L 50.113281 69.050781 L 50.113281 69.890625 L 49.859375 69.890625 Z M 49.859375 69.050781 " fill-opacity="1" fill-rule="nonzero"/><path fill="#f7e5ba" d="M 52.527344 70.160156 L 53.132812 70.160156 L 53.132812 71.003906 L 52.527344 71.003906 Z M 52.527344 70.160156 " fill-opacity="1" fill-rule="nonzero"/><path fill="#f7e5ba" d="M 44.101562 68.417969 L 44.242188 67.589844 L 44.757812 67.675781 L 44.617188 68.503906 Z M 44.101562 68.417969 " fill-opacity="1" fill-rule="nonzero"/><path fill="#f7e5ba" d="M 44.917969 65.949219 L 45.855469 65.863281 L 45.933594 66.703125 L 44.992188 66.789062 Z M 44.917969 65.949219 " fill-opacity="1" fill-rule="nonzero"/><path fill="#f7e5ba" d="M 42.273438 65.957031 L 42.878906 65.957031 L 42.878906 66.796875 L 42.273438 66.796875 Z M 42.273438 65.957031 " fill-opacity="1" fill-rule="nonzero"/><path fill="#f7e5ba" d="M 48.433594 66.660156 L 49.199219 66.40625 L 49.464844 67.207031 L 48.695312 67.460938 Z M 48.433594 66.660156 " fill-opacity="1" fill-rule="nonzero"/><path fill="#f7e5ba" d="M 51.59375 68.59375 L 52.226562 68.480469 L 52.375 69.304688 L 51.746094 69.421875 Z M 51.59375 68.59375 " fill-opacity="1" fill-rule="nonzero"/><path fill="#f7e5ba" d="M 54.769531 70.078125 C 54.53125 69.941406 54.332031 69.742188 54.179688 69.503906 L 54.886719 69.066406 C 54.953125 69.1875 55.054688 69.285156 55.171875 69.355469 Z M 54.769531 70.078125 " fill-opacity="1" fill-rule="nonzero"/><path fill="#f7e5ba" d="M 55.410156 71.433594 L 55.511719 70.597656 L 55.964844 70.65625 L 55.859375 71.488281 Z M 55.410156 71.433594 " fill-opacity="1" fill-rule="nonzero"/><path fill="#f7e5ba" d="M 52.085938 67.65625 C 51.835938 67.605469 51.582031 67.503906 51.363281 67.351562 L 51.835938 66.664062 C 51.953125 66.746094 52.105469 66.8125 52.257812 66.832031 Z M 52.085938 67.65625 " fill-opacity="1" fill-rule="nonzero"/><path fill="#f7e5ba" d="M 53.789062 67.621094 L 54.128906 67.621094 L 54.128906 68.460938 L 53.789062 68.460938 Z M 53.789062 67.621094 " fill-opacity="1" fill-rule="nonzero"/><path fill="#f7e5ba" d="M 40.113281 66.578125 C 40.046875 66.359375 39.996094 66.140625 39.996094 65.921875 L 40.839844 65.921875 C 40.839844 66.058594 40.855469 66.191406 40.90625 66.308594 Z M 40.113281 66.578125 " fill-opacity="1" fill-rule="nonzero"/><path fill="#f7e5ba" d="M 42.875 64.191406 L 43.597656 63.757812 L 43.769531 64.046875 L 43.046875 64.480469 Z M 42.875 64.191406 " fill-opacity="1" fill-rule="nonzero"/><path fill="#f7e5ba" d="M 46.800781 65.734375 L 47.445312 65.191406 L 47.78125 65.59375 L 47.136719 66.132812 Z M 46.800781 65.734375 " fill-opacity="1" fill-rule="nonzero"/><path fill="#f7e5ba" d="M 50.621094 66.378906 C 50.402344 66.226562 50.25 65.992188 50.164062 65.738281 L 50.972656 65.519531 C 50.992188 65.585938 51.042969 65.652344 51.09375 65.6875 Z M 50.621094 66.378906 " fill-opacity="1" fill-rule="nonzero"/><path fill="#f7e5ba" d="M 55.542969 68.308594 L 56.179688 67.761719 L 56.523438 68.15625 L 55.882812 68.703125 Z M 55.542969 68.308594 " fill-opacity="1" fill-rule="nonzero"/><path fill="#f7e5ba" d="M 56.972656 70.230469 L 57.394531 69.5 L 57.789062 69.726562 L 57.371094 70.457031 Z M 56.972656 70.230469 " fill-opacity="1" fill-rule="nonzero"/><path fill="#f7e5ba" d="M 37.714844 72.699219 L 38.390625 72.195312 L 38.5625 72.421875 L 37.886719 72.925781 Z M 37.714844 72.699219 " fill-opacity="1" fill-rule="nonzero"/><path fill="#f7e5ba" d="M 38.53125 74 L 38.746094 73.183594 L 39.203125 73.304688 L 38.988281 74.117188 Z M 38.53125 74 " fill-opacity="1" fill-rule="nonzero"/><path fill="#f7e5ba" d="M 56.457031 66.746094 L 56.304688 66.058594 C 56.507812 66.023438 56.707031 66.058594 56.878906 66.191406 C 57.046875 66.308594 57.148438 66.496094 57.164062 66.695312 Z M 56.457031 66.746094 " fill-opacity="1" fill-rule="nonzero"/><path fill="#f7e5ba" d="M 57.230469 68.214844 L 57.632812 67.472656 L 57.972656 67.65625 L 57.574219 68.398438 Z M 57.230469 68.214844 " fill-opacity="1" fill-rule="nonzero"/><path fill="#f7e5ba" d="M 53.75 66.261719 L 54.0625 65.480469 L 54.503906 65.65625 L 54.1875 66.4375 Z M 53.75 66.261719 " fill-opacity="1" fill-rule="nonzero"/><path fill="#f7e5ba" d="M 51.871094 65.0625 L 52.136719 64.265625 L 52.90625 64.519531 L 52.640625 65.316406 Z M 51.871094 65.0625 " fill-opacity="1" fill-rule="nonzero"/><g clip-path="url(#id3)"><path fill="#5e17eb" d="M 50.425781 59.242188 L 54.949219 59.242188 C 54.949219 63.507812 53.058594 66.070312 51.585938 66.191406 C 51.496094 66.195312 51.402344 66.199219 51.308594 66.199219 L 50.425781 66.199219 C 49.445312 66.199219 48.558594 65.808594 47.914062 65.179688 C 47.273438 64.550781 46.875 63.679688 46.875 62.71875 C 46.875 60.800781 48.464844 59.242188 50.425781 59.242188 " fill-opacity="1" fill-rule="nonzero"/></g><g clip-path="url(#id4)"><path fill="#5ce1e6" d="M 62.050781 54.816406 L 62.050781 56.808594 C 62.050781 58.367188 61.417969 59.863281 60.292969 60.964844 L 57.523438 63.679688 C 55.941406 65.226562 53.816406 66.125 51.585938 66.191406 C 53.058594 66.070312 54.949219 63.507812 54.949219 59.242188 L 54.949219 54.816406 C 54.949219 52.894531 56.539062 51.335938 58.5 51.335938 C 60.460938 51.335938 62.050781 52.894531 62.050781 54.816406 " fill-opacity="1" fill-rule="nonzero"/></g><g clip-path="url(#id5)"><path fill="#5e17eb" d="M 66.574219 67.410156 L 62.050781 67.410156 C 62.050781 63.144531 63.941406 60.582031 65.414062 60.457031 C 65.503906 60.457031 65.597656 60.453125 65.691406 60.453125 L 66.574219 60.453125 C 67.554688 60.453125 68.441406 60.84375 69.085938 61.472656 C 69.726562 62.101562 70.125 62.972656 70.125 63.929688 C 70.125 65.851562 68.535156 67.410156 66.574219 67.410156 " fill-opacity="1" fill-rule="nonzero"/></g><g clip-path="url(#id6)"><path fill="#5ce1e6" d="M 54.949219 71.835938 L 54.949219 69.84375 C 54.949219 68.285156 55.578125 66.789062 56.707031 65.6875 L 59.476562 62.972656 C 61.058594 61.425781 63.183594 60.527344 65.414062 60.457031 C 63.941406 60.582031 62.050781 63.144531 62.050781 67.410156 L 62.050781 71.835938 C 62.050781 73.757812 60.460938 75.316406 58.5 75.316406 C 56.539062 75.316406 54.949219 73.757812 54.949219 71.835938 " fill-opacity="1" fill-rule="nonzero"/></g></svg>